<svg xmlns="http://www.w3.org/2000/svg" xml:space="preserve" style="enable-background:new 0 0 486.107 486.107" viewBox="0 0 486.107 486.107">
  <path d="M338.551 117.798c27.142 0 49.224-22.083 49.224-49.227 0-27.143-22.082-49.225-49.224-49.225-27.144 0-49.226 22.083-49.226 49.225 0 27.144 22.082 49.227 49.226 49.227zm0-89.952c22.455 0 40.724 18.269 40.724 40.725 0 22.457-18.269 40.727-40.724 40.727-22.456 0-40.726-18.27-40.726-40.727 0-22.456 18.27-40.725 40.726-40.725zM100.182 65.327H16.804C7.538 65.327 0 72.865 0 82.13v367.826c0 9.266 7.538 16.804 16.804 16.804h83.378c9.266 0 16.804-7.538 16.804-16.804V82.13c-.001-9.265-7.539-16.803-16.804-16.803zM8.5 449.957V82.13c0-4.579 3.725-8.303 8.304-8.303H33.33V458.26H16.804c-4.579 0-8.304-3.725-8.304-8.303zm99.985 0c0 4.579-3.725 8.304-8.304 8.304H41.83V73.827h31.998v125.816a4.25 4.25 0 1 0 8.5 0V73.827h17.854c4.579 0 8.304 3.725 8.304 8.303v367.827zm26.847-331.983a4.234 4.234 0 0 0 3.005-1.245l41.427-41.427a4.25 4.25 0 0 0-6.01-6.011l-41.427 41.427a4.25 4.25 0 0 0 3.005 7.256zm-1.837-26.623a4.251 4.251 0 0 0 5.67-1.997l28.873-60.258a4.25 4.25 0 0 0-7.666-3.673l-28.873 60.258a4.251 4.251 0 0 0 1.996 5.67zm4.842 48.812a4.25 4.25 0 0 0-6.01 6.011l41.427 41.427a4.234 4.234 0 0 0 3.005 1.245 4.25 4.25 0 0 0 3.005-7.256l-41.427-41.427zm.828 27.375a4.25 4.25 0 0 0-7.666 3.673l28.873 60.258a4.251 4.251 0 1 0 7.666-3.673l-28.873-60.258z"/>
  <path d="M205.27 229.376c0 7.189 5.849 13.037 13.038 13.037 7.188 0 13.037-5.849 13.037-13.037v-3.627l29.083 27.076a21.473 21.473 0 0 0 14.725 5.813h.002c5.54 0 10.912-2.162 14.922-5.98v34.185l-77.725 1.57-.083.001a31.4 31.4 0 0 0-28.552 19.784 31.158 31.158 0 0 0-2.225 12.38l2.201 108.878c.343 16.989 14.441 30.811 31.43 30.811.214 0 .426-.002.642-.006 8.399-.169 16.23-3.599 22.047-9.657 5.816-6.057 8.927-14.019 8.757-22.417l-1.564-77.529 69.224-1.398-.001 70.396a31.397 31.397 0 0 0 19.199 28.976 31.077 31.077 0 0 0 12.15 2.474h.176l108.909-.001c.091 0 .179.001.269-.001 17.212-.144 31.176-14.194 31.176-31.441.001-8.401-3.269-16.299-9.208-22.238s-13.836-9.21-22.234-9.21l-77.543-.001-.002-54.99c6.209-8.147 9.906-18.308 9.906-29.319V176.49c0-26.73-21.746-48.476-48.475-48.476-26.729 0-48.475 21.746-48.475 48.476v13.058l-16.008 17.076-31.399-29.31a21.48 21.48 0 0 0-11.324-5.597v-39.005c0-7.189-5.849-13.038-13.037-13.038-4.023 0-7.626 1.834-10.02 4.708h-71.701a4.25 4.25 0 1 0 0 8.5h68.683v96.494zm13.038-101.201a4.543 4.543 0 0 1 4.537 4.538v39.301a21.718 21.718 0 0 0-9.075 4.622v-43.923a4.543 4.543 0 0 1 4.538-4.538zm4.537 101.201a4.542 4.542 0 0 1-4.537 4.537 4.543 4.543 0 0 1-4.538-4.537v-19.989l9.075 8.449v11.54zm52.309 20.763h-.001c-3.325 0-6.492-1.25-8.926-3.527l-47.375-44.105a12.996 12.996 0 0 1-4.09-9.14 13.003 13.003 0 0 1 3.571-9.357 12.964 12.964 0 0 1 9.51-4.096c3.355 0 6.546 1.27 9.005 3.595l34.52 32.222a4.25 4.25 0 0 0 6.001-.2l47.24-50.392a12.961 12.961 0 0 1 9.51-4.095 13.03 13.03 0 0 1 8.985 3.576c5.243 4.956 5.477 13.253.509 18.51l-58.929 62.903a12.99 12.99 0 0 1-9.53 4.106zm23.422-6.502 51.228-54.682c8.174-8.649 7.788-22.337-.859-30.512a21.502 21.502 0 0 0-14.825-5.899 21.682 21.682 0 0 0-15.699 6.769l-19.844 21.168v-3.991c0-22.043 17.933-39.976 39.975-39.976s39.975 17.933 39.975 39.976v127.416c0 21.809-17.56 39.583-39.281 39.955 8.672-5.76 14.321-15.688 14.097-26.844-.349-17.205-14.784-31.159-32.077-30.803l-22.688.458v-43.035zm-57.992 98.61a4.249 4.249 0 0 0-4.163 4.335l1.649 81.777a22.793 22.793 0 0 1-6.39 16.358c-4.192 4.365-9.817 6.85-15.859 7.031v-87.112a4.25 4.25 0 1 0-8.5 0v85.745c-8.639-3.171-14.935-11.43-15.13-21.095l-2.202-108.924-.003-.09a22.795 22.795 0 0 1 1.624-8.919 22.912 22.912 0 0 1 20.828-14.439h.038l108.959-2.201.477-.005c12.394 0 22.68 10.086 22.931 22.482.254 12.65-9.832 23.15-22.483 23.407h-.002l-.1.002-81.674 1.648zm214.273 100.358h-.195l-108.946.001c-.024 0-.054-.001-.081.001a22.745 22.745 0 0 1-8.894-1.803 22.92 22.92 0 0 1-14.015-21.155l.002-69.93a48.216 48.216 0 0 0 15.825 2.659c11.352 0 21.795-3.933 30.064-10.493l.001 50.579a4.252 4.252 0 0 0 4.25 4.251h81.795a22.793 22.793 0 0 1 16.225 6.72 22.795 22.795 0 0 1 6.718 16.227c0 .749-.038 1.489-.109 2.22h-69.436a4.25 4.25 0 1 0 0 8.5h66.879c-3.827 7.21-11.383 12.15-20.083 12.223z"/>
</svg>
