<svg xmlns="http://www.w3.org/2000/svg" xml:space="preserve" style="enable-background:new 0 0 495.622 495.622" viewBox="0 0 495.622 495.622">
  <path d="M495.622 113.089v150.03s-32.11 6.326-38.725 7.158c-6.594.83-27.316 7.521-42.334-6.914-23.16-22.197-105.447-104.03-105.447-104.03s-14.188-13.922-36.969-1.89c-20.912 11.022-51.911 27.175-64.859 33.465-24.477 13.028-44.764-7.642-44.764-23.387 0-12.213 7.621-20.502 18.515-26.598 29.524-17.898 91.752-52.827 117.67-66.598 15.754-8.379 27.105-9.097 48.734 9.124 26.638 22.403 50.344 42.824 50.344 42.824s7.732 6.453 20.063 3.854c30.28-6.402 77.772-17.038 77.772-17.038zM168.098 367.3c3.985-10.238 2.653-21.689-4.987-29.545-6.865-7.027-16.888-8.879-26.445-6.689 2.673-9.479 1.197-19.568-5.705-26.688-6.886-7.009-16.89-8.898-26.446-6.688 2.653-9.465 1.181-19.553-5.725-26.652-10.814-11.092-29.519-10.616-41.807 1.097-12.223 11.729-20.053 32.979-9.144 45.487 10.891 12.445 23.405 4.873 32.945 2.699-2.654 9.465-10.606 18.269-.813 30.658 9.784 12.395 23.404 4.875 32.954 2.721-2.663 9.429-10.268 19.117-.851 30.604 9.502 11.522 25.065 5.383 35.344 2.19-3.967 10.199-12.458 21.193-1.549 33.513 10.892 12.409 36.063 6.668 48.358-5.063 12.262-11.729 13.439-30.318 2.654-41.445-7.446-7.634-18.546-9.41-28.783-6.199zm224.344-78.054c-88.88-88.881-47.075-47.058-94.906-94.992 0 0-14.375-14.311-33.321-5.998-13.3 5.828-30.423 13.771-43.307 19.835-14.158 7.424-24.347 9.722-29.131 9.69-27.37-.179-49.576-22.178-49.576-49.521 0-17.738 9.417-33.181 23.462-41.947 19.75-13.667 65.21-37.847 65.21-37.847s-13.849-17.549-44.187-17.549c-30.329 0-93.695 41.512-93.695 41.512s-17.976 11.514-43.601 1.143L0 96.373V268.05s14.103 4.082 26.775 9.258c2.862-8.162 7.48-15.699 13.886-21.924 21.023-20.024 55.869-20.232 74.996-.537 5.762 5.987 9.783 13.129 11.835 21.024 7.707 2.379 14.688 6.593 20.298 12.373a47.226 47.226 0 0 1 11.854 20.984c7.698 2.381 14.669 6.611 20.298 12.395 6.339 6.537 10.562 14.433 12.534 22.988a48.588 48.588 0 0 1 21.176 12.693c11.495 11.807 15.575 27.826 13.103 43.278.02 0 .058 0 .076.035.188.246 7.122 7.976 11.446 12.336 8.474 8.482 22.311 8.482 30.811 0 8.444-8.479 8.481-22.289 0-30.811-.304-.303-30.572-31.963-28.136-34.418 2.418-2.438 40.981 37.688 41.699 38.422 8.463 8.465 22.291 8.465 30.792 0 8.481-8.479 8.463-22.289 0-30.791-.416-.396-2.152-2.059-2.796-2.721 0 0-38.234-34.06-35.324-36.97 2.946-2.928 50.438 41.392 50.515 41.392 8.537 7.688 21.687 7.631 29.9-.586 7.991-7.99 8.162-20.629 1.078-29.146-.15-.453-36.194-38.121-33.381-40.955 2.854-2.871 38.519 33.853 38.594 33.929 8.444 8.463 22.291 8.463 30.792 0 8.463-8.464 8.463-22.291 0-30.83-.115-.072-.266-.148-.379-.222z" style="fill:#030104"/>
</svg>
