<svg xmlns="http://www.w3.org/2000/svg" xml:space="preserve" style="enable-background:new 0 0 475.2 475.2" viewBox="0 0 475.2 475.2">
  <path d="M241.7 191.4h-32.8c-4.1 0-7.5 3.4-7.5 7.5v83.2H191c-4.1 0-7.5 3.4-7.5 7.5s3.4 7.5 7.5 7.5h10.4V310H191c-4.1 0-7.5 3.4-7.5 7.5s3.4 7.5 7.5 7.5h10.4v39c0 4.1 3.4 7.5 7.5 7.5s7.5-3.4 7.5-7.5v-39H264c4.1 0 7.5-3.4 7.5-7.5s-3.4-7.5-7.5-7.5h-47.6v-12.9h25.1c27.7 0 50.2-23.5 50.2-52.5 0-28.9-21.9-52.3-50-53.2zm-.2 90.7h-25.1v-75.7h25c19.8.7 35.3 17.5 35.3 38.2s-15.8 37.5-35.2 37.5z"/>
  <path d="M442.9 263.6 297.1 118c10.6-14.1 15.8-31.3 14.6-49-1.3-18.8-9.5-36.3-23.3-49.1C274.6 7 256.4 0 237.2 0c-18.9 0-36.9 7.1-50.6 20.1-13.7 13-21.9 30.6-23.2 49.8-.3 4.1 2.9 7.7 7 8 4.1.3 7.7-2.9 8-7 2.1-31.8 27.4-55.8 58.8-55.8 31.9 0 57.5 23.7 59.6 55.1.9 13.8-3 26.8-10.3 37.3l-43.2-43.1c-2.9-2.9-7.7-2.9-10.6 0L32.3 263.8c-1.4 1.4-2.2 3.3-2.2 5.3s.8 3.9 2.2 5.3L232.7 473c1.5 1.4 3.4 2.2 5.3 2.2s3.8-.7 5.3-2.2l199.6-198.6c1.4-1.4 2.2-3.3 2.2-5.3 0-2.2-.8-4.1-2.2-5.5zM238 456.9l-189.7-188L238 80.1l38.3 38.3c-3 2.6-6.4 4.9-9.9 6.8-5.1-10.8-15.9-18.2-28.4-18.2-18.2 0-32.4 14.2-32.4 32.4 0 17.4 14.5 31.6 32.4 31.6 17.1 0 31-13.6 31.6-30.6 6.3-2.9 12.1-6.7 17.3-11.4L427 268.9l-189 188zm.3-316.7c.4 3.8 3.7 6.7 7.4 6.7h.8c2.2-.2 4.5-.6 6.7-1.1-2.6 5.9-8.5 10.2-15.3 10.2-9.8 0-17.4-7.3-17.4-16.6 0-9.9 7.5-17.4 17.4-17.4 6.2 0 11.6 3.4 14.4 8.6-2.4.6-4.9 1-7.4 1.3-4.1.5-7 4.2-6.6 8.3z"/>
</svg>
