<?xml version="1.0" standalone="no"?>
<!DOCTYPE svg PUBLIC "-//W3C//DTD SVG 20010904//EN"
 "http://www.w3.org/TR/2001/REC-SVG-20010904/DTD/svg10.dtd">
<svg version="1.0" xmlns="http://www.w3.org/2000/svg"
 width="500.000000pt" height="500.000000pt" viewBox="0 0 500.000000 500.000000"
 preserveAspectRatio="xMidYMid meet">
<metadata>
Created by potrace 1.14, written by Peter Selinger 2001-2017
</metadata>
<g transform="translate(0.000000,500.000000) scale(0.100000,-0.100000)"
fill="#000000" stroke="none">
<path d="M2486 4362 c-4 -11 -29 -57 -55 -102 l-49 -82 110 -191 c61 -106 176
-304 255 -440 78 -137 143 -253 143 -258 0 -5 5 -9 10 -9 6 0 10 -5 10 -10 0
-9 111 -207 168 -300 9 -14 14 -25 11 -25 -2 0 6 -13 19 -29 12 -16 22 -35 22
-42 0 -8 4 -14 9 -14 5 0 11 -8 14 -17 4 -10 18 -38 33 -63 79 -134 162 -277
168 -290 3 -8 15 -28 26 -45 11 -16 23 -36 27 -44 3 -8 42 -75 85 -149 43 -74
78 -136 78 -137 0 -2 18 -33 40 -69 22 -36 40 -70 40 -76 0 -5 5 -10 10 -10 6
0 10 -4 10 -9 0 -5 14 -33 31 -63 l31 -54 114 0 c111 0 130 5 105 32 -5 5 -20
29 -33 54 -33 59 -58 104 -97 168 -17 29 -31 57 -31 62 0 6 -4 10 -10 10 -5 0
-10 4 -10 10 0 5 -14 33 -31 62 -37 62 -62 105 -97 168 -14 25 -33 57 -43 72
-11 14 -19 29 -19 33 0 5 -18 36 -40 71 -22 35 -40 65 -40 67 0 2 -44 81 -98
174 -55 94 -102 177 -106 184 -3 8 -14 28 -25 44 -10 17 -28 47 -40 68 -11 20
-29 52 -40 70 -162 281 -207 359 -229 397 -14 25 -65 113 -113 197 -49 83 -98
169 -110 190 -86 153 -224 390 -235 402 -10 11 -13 10 -18 -7z"/>
<path d="M2248 3944 c-8 -16 -34 -61 -57 -100 l-41 -72 188 -328 c104 -181
203 -353 221 -382 17 -29 31 -55 31 -57 0 -3 16 -29 35 -60 20 -30 39 -63 42
-73 4 -9 21 -39 38 -67 17 -27 35 -57 39 -65 4 -8 19 -36 34 -61 52 -90 107
-184 119 -204 7 -11 16 -27 20 -35 4 -8 26 -48 50 -88 24 -40 43 -77 43 -82 0
-6 5 -10 10 -10 6 0 10 -4 10 -9 0 -6 41 -80 91 -166 49 -87 95 -167 102 -179
7 -11 15 -23 18 -26 4 -3 9 -14 13 -26 6 -19 13 -20 120 -20 63 1 117 4 120 7
4 3 0 12 -9 19 -8 7 -15 16 -15 20 0 8 -184 332 -210 370 -6 8 -13 22 -17 30
-4 8 -26 48 -50 88 -24 40 -43 77 -43 82 0 6 -4 10 -10 10 -5 0 -10 5 -10 10
0 6 -18 40 -40 76 -22 36 -40 69 -40 73 0 4 -6 13 -12 20 -7 6 -13 15 -13 19
0 4 -8 18 -17 32 -17 27 -228 391 -263 455 -49 90 -219 382 -236 406 -10 14
-16 28 -13 31 2 3 -2 11 -11 18 -8 7 -15 19 -15 26 0 8 -4 14 -10 14 -5 0 -10
5 -10 10 0 10 -88 169 -100 180 -3 3 -16 26 -29 52 -14 25 -32 56 -41 69 l-17
22 -15 -29z"/>
<path d="M1999 3513 c-14 -27 -60 -106 -101 -178 -188 -326 -272 -472 -287
-500 -9 -16 -19 -31 -23 -33 -5 -2 -8 -7 -8 -12 0 -5 -23 -48 -51 -97 -29 -48
-63 -108 -77 -133 -13 -25 -31 -52 -38 -61 -8 -8 -14 -19 -14 -22 0 -4 -127
-227 -281 -495 -155 -268 -291 -505 -302 -527 -12 -22 -24 -42 -27 -45 -3 -3
-30 -48 -59 -100 -65 -115 -75 -131 -140 -243 -28 -49 -51 -93 -51 -98 0 -5
-4 -9 -10 -9 -5 0 -10 -4 -10 -9 0 -5 -12 -30 -27 -56 -35 -59 -62 -106 -98
-170 -15 -27 -34 -59 -41 -70 -8 -11 -14 -23 -14 -28 0 -4 52 -6 116 -5 l117
3 153 265 c85 146 157 272 161 280 4 8 29 53 56 100 27 47 59 101 70 120 11
19 28 49 38 65 10 17 25 44 34 60 8 17 23 44 34 60 10 17 62 107 116 200 54
94 111 193 127 220 16 28 32 58 35 68 3 9 9 17 14 17 5 0 9 4 9 10 0 5 14 33
31 62 18 29 39 67 49 83 30 53 241 419 251 435 24 40 136 237 142 250 4 8 18
33 32 55 14 22 42 70 62 107 21 38 44 68 51 68 6 0 12 -4 12 -9 0 -5 23 -48
50 -95 l51 -85 -26 -40 c-14 -23 -25 -45 -25 -51 0 -5 -4 -10 -10 -10 -6 0 -9
-3 -8 -7 1 -5 -16 -39 -39 -78 -22 -38 -50 -86 -61 -105 -11 -19 -43 -75 -72
-125 -29 -49 -64 -110 -78 -135 -14 -25 -81 -141 -149 -258 -67 -118 -123
-216 -123 -218 0 -2 -15 -27 -34 -56 -18 -29 -36 -63 -40 -75 -4 -13 -12 -23
-17 -23 -5 0 -9 -4 -9 -10 0 -5 -18 -39 -40 -75 -22 -36 -40 -67 -40 -69 0 -3
-27 -50 -60 -106 -33 -56 -60 -106 -60 -111 0 -5 -3 -9 -7 -9 -5 0 -13 -10
-19 -23 -15 -32 -74 -138 -93 -167 -9 -14 -23 -38 -31 -55 -8 -16 -17 -32 -20
-35 -7 -7 -25 -37 -56 -95 -14 -27 -45 -81 -69 -120 -23 -38 -45 -77 -48 -85
-4 -8 -21 -37 -37 -65 -17 -27 -35 -59 -40 -70 -5 -11 -17 -30 -26 -42 l-16
-23 120 0 120 0 58 102 c33 57 63 110 67 118 4 8 20 36 35 61 74 128 280 483
298 516 12 21 30 54 41 73 50 86 97 169 121 210 14 25 44 77 67 115 22 39 44
77 48 85 4 8 13 24 20 35 7 11 37 63 67 115 30 52 60 104 67 115 7 11 15 27
19 35 4 8 24 42 44 75 20 33 39 65 41 70 2 6 55 99 118 208 92 158 117 195
127 186 8 -6 14 -16 14 -21 0 -5 14 -29 30 -54 17 -24 28 -44 25 -44 -4 0 3
-12 14 -26 12 -15 21 -31 21 -36 0 -5 -50 -96 -111 -201 -62 -106 -119 -205
-129 -222 -9 -16 -45 -79 -80 -140 -35 -60 -68 -120 -74 -132 -6 -13 -14 -23
-18 -23 -5 0 -8 -5 -8 -10 0 -6 -31 -65 -70 -131 -38 -66 -70 -122 -70 -125 0
-3 -9 -17 -19 -32 -15 -21 -216 -370 -391 -677 -10 -16 -45 -77 -78 -135 l-61
-105 1691 -3 c930 -1 1693 0 1695 2 3 2 -6 24 -20 48 -14 23 -37 64 -52 91
-15 26 -34 51 -43 55 -10 4 -670 7 -1469 6 l-1451 -2 26 47 c14 25 34 60 44
76 10 17 22 40 27 51 5 12 20 23 33 25 13 2 620 4 1351 3 730 0 1327 1 1327 2
0 5 -49 93 -75 134 -12 19 -24 43 -28 52 -5 15 -90 17 -1194 17 -653 0 -1210
0 -1237 1 -46 0 -48 1 -34 18 8 9 26 37 39 62 13 25 26 47 29 50 3 3 13 19 22
35 l17 30 1098 2 c604 2 1105 4 1115 5 13 2 5 21 -39 98 -30 52 -57 97 -59 99
-2 3 -452 4 -999 4 -547 0 -995 1 -995 3 0 2 16 30 35 63 19 32 35 64 35 69 0
6 4 12 8 14 5 2 28 39 53 82 24 43 51 91 59 105 8 14 57 98 107 186 98 171
122 208 123 187 0 -7 11 -29 23 -50 13 -20 35 -57 49 -82 14 -25 68 -119 121
-210 l95 -165 116 0 c64 -1 116 0 116 1 0 1 -25 47 -56 101 -31 54 -65 114
-76 133 -11 19 -36 62 -55 95 -19 33 -38 67 -43 75 -5 8 -59 103 -121 210 -62
107 -120 209 -129 225 -10 17 -41 71 -70 120 -29 50 -64 110 -78 135 -14 25
-45 78 -69 118 -24 41 -43 75 -43 78 0 2 -18 33 -40 69 -22 36 -40 68 -40 70
0 3 -11 24 -26 46 -14 22 -34 57 -46 77 -51 93 -101 172 -107 172 -3 0 -18
-21 -32 -47z"/>
</g>
</svg>
