<svg xmlns="http://www.w3.org/2000/svg" width="3510.4" height="1413.3"><path d="M3510 1033H0V0h3510v1033M3510 1033H0v380h3510v-380" fill="#fff"/><path d="M2856 713l-28-78 9-12 7-19 17-12h48l11 2-9 40-37 34-4 17-14 28M2961 616c0-3 50-20 50-20l56 14 26 13-35 15-31-12-21-3-21 6-34 7-12-4 22-16M2580 702l82-31 48 20 13 14-31 5-34-15-34 10-44-3M2128 610l-4-31 10-9 9-14 53 3 35 4 16 4-24 12 5 25-34 15-22-5-34 10-24-1 14-13M1289 806l57-54 64 98-16 4-16-24s-27 34-30 34c-4 0-26 11-29 0-4-11-9-12-9-16 0-5-21-42-21-42M1142 737l2-26 24-6 29-14 48 25 26 13 13 17-31-9-20 9-44-20-22 10-27 16 2-15M885 765l17-56 22-10h15c7 0 36 6 36 6l40 25-28 22-25 2-42-7-35 18M674 745l126-87s40 38 40 109l-28-7-70 58 3 20-14 5-21-7-27-2-7-20-28-6-18 48s-63-15-79-30l123-81M484 589l67-40 36 57h-36v19l-34 12-33-13v-35M680 434l9-29 56 14 6 21-71-6M849 405l44-37 57 72-27 69-74-104M978 383l29-80 8 5-34 104-16 7 13-36M955 398l3-64s-14-10-14-13l-3 68 14 9M958 285l12-33-5-19-7-22 11-8 12 31 5 24-14 37-14-10M3152 589l-8-37 6-4 12 40-25 57-5-14 20-42" fill="#c8d4de"/><path d="M830 493l27 56 4 20-30 10-21-3-23 23 43-106M981 431l53-34 35 8-49 29-39-3M252 557l17-14 41-20 15 24-17 13-56-3M114 830l61-73 51 20-52 19-4 18-56 16M2937 557l48-14 17 20-18 7-10-14-31 7-6-6M2793 460l3-28 55-6v20l-14 23 5 21-29-9h-34l14-21M2327 459l-22 49 26-6 20-18 21 1 17-21-62-5M2659 551l-30 48-18 37 39-36 50-77-41 28" fill="#d9ab39"/><path d="M603 361c6-3-10 65-10 65l-27-10s12-40 37-55M426 672l39-35 18 5-66 67 9-37M812 953l105-53 12 10-123 60 6-17M2624 432s27-69 44-75c16-6 61 39 61 39l-23 26-14 18-19-17-27 17-22-8M3318 811l-19 28 42 23-10-21v-19l-13-11" fill="#ea5444"/><path d="M2726 623l29 85 44 10-9-30s5-17 9-20c3-4 8-44 8-44l-81-1M2263 600v-10l37-3-37-14-24 11 8 23 16-7M2803 396l25-35h23l-21 35h-27M2972 722s47-12 68-32l15 49s-6 12 3 22c9 9 9 20 9 20l-69 21-10-42-23-5 16-4-9-29M621 599l21-65 26-11 15 45-18 4-58 46 14-19M868 626l81-62 18 8 14 20-9 14-47 5-10 15h-47" fill="#c0e1ed"/><path d="M724 1208c0 14-139 25-310 25-172 0-310-11-310-25s138-25 310-25c171 0 310 11 310 25M1305 1242c0 11-137 20-307 20-169 0-307-9-307-20s138-20 307-20c170 0 307 9 307 20M2284 1199c0 15-104 27-231 27-128 0-232-12-232-27 0-14 104-26 232-26 127 0 231 12 231 26M2620 1230c0 14-81 24-181 24-99 0-180-10-180-24 0-13 81-23 180-23 100 0 181 10 181 23M3462 1057c0 13-276 24-615 24-340 0-616-11-616-24s276-24 616-24c339 0 615 11 615 24" fill="#eaf2f4"/><path d="M3451 842l-2-2-16-123-23 37c1 3 4 12-1 17s-14 4-29-3c-21-9-25-14-29-19-3-4-6-8-25-14-39-13-56-15-56-15-3 0-88-4-105-20-15-16-48-76-52-83a434 434 0 00-100-27v-54c-15-25-43-73-49-78-2-3-1-6 0-8 2-8 6-21-53-42-39-13-69-10-90-7-22 3-37 5-43-17-10-35-50-77-56-83l-46 19h-99l-1-1c-1 0-5-10-12-10-5 0-10 6-15 19-16 39-36 42-37 42h-1l-119-21s-8-2-14 3c-4 3-6 9-6 16 0 26-13 39-14 40l-36 43h-3l-5-1-1 5c0 10-14 37-15 38l-2 1-1-2s0-6-5-7c-3-1-9 0-22 12-27 28-38 51-38 51l-2 1-103-15c-3 3-21 16-21 35s-6 36-8 40c3 4 13 21-1 35l-15 15-1 1-50 16c-1 1-2 0-2-1-1-1 0-1 1-2l50-16 14-15c14-14 1-31 1-31v-2s7-20 7-40c0-22 23-37 24-38h1l103 15c2-5 13-27 38-51 11-11 20-16 26-13 3 1 4 3 5 6 4-8 12-26 12-33 0-4 1-6 3-7 3-2 6-1 8 0l36-42s12-13 12-38c0-9 3-15 8-19 7-5 16-3 17-3l119 21c2-1 19-5 34-41 5-13 11-20 18-21 7 0 12 9 14 11h97l47-18h2c2 2 46 47 57 86 5 18 17 16 39 14 22-3 52-7 92 7 58 20 59 34 55 46-1 2-2 4-1 5a1232 1232 0 0150 80v53a453 453 0 01100 26c0 1 36 66 52 82 15 16 101 20 102 20s17 2 57 15c21 7 24 11 27 16 3 4 7 9 27 17 17 8 23 6 26 4 3-4 1-12 0-15v-1l25-41 2-1 1 1 17 128a2 2 0 01-1 2" fill="#262262"/><path d="M2732 711l-1-1-41-113 1-3 128-53 2 1 17 42-1 2-2-1-16-40-125 52 40 112a2 2 0 01-2 2" fill="#262262"/><path d="M2692 598l-1-1-1-2 20-33a2 2 0 013 2l-20 33-1 1M2837 672l-2-1-17-44v-2l13-13 4-16 1-1 14-17h1l23-5 58 10h1v2l-9 32c-1 1-2 2-3 1l-1-2 9-31-55-9-22 5-14 16-4 16v1l-13 13 17 43a2 2 0 01-1 2M2978 576l-1-1c-1-1 0-2 1-2l21-10-14-18-42 11-2-1 1-2 43-12 2 1 16 20v3l-24 11h-1M2641 755l-2-2c0-3 8-36 23-36h34l15-6h1c12 5 32 13 35 13h21l44 3 1 1 16 24a2 2 0 11-3 1l-15-22-43-4h-21c-4 0-29-10-36-13l-14 6h-35c-11 0-20 29-20 33l-1 2M3088 598l-1-2v-53l-15-33h-63a2 2 0 110-3h64l1 1 16 34v54l-2 2" fill="#262262"/><path d="M3088 545h-26l-2-2 2-2h26a2 2 0 110 4M3227 706l-5-1-1-1 2-2s17 2 24-7c4-5 4-13-1-24-8-19-25-29-37-33-19-7-41-7-58 1a2 2 0 01-1-3c18-8 41-9 61-1 17 6 31 19 38 35 5 12 5 21 1 27-6 7-16 9-23 9M3136 648c-1 0-2-1-1-2l25-58-10-38c-4 4-10 4-13 4l9 36v1l-14 32a2 2 0 01-3-1l13-32-9-38 1-1 1-1s10 2 14-4l2-1 1 1 11 42v1l-25 58-2 1" fill="#262262"/><path d="M3135 554l-2-2c0-1 1-5 11-7l2 1-1 2c-8 2-8 4-8 4l-2 2M3019 669l-3 1c-13 0-31 3-49 9-18 5-34 12-46 19-11 7-16 13-15 17 1 5 10 7 22 6 14 0 31-3 49-9 18-5 35-12 46-19s17-13 16-18c-2-3-9-6-20-6zm-93 56c-10 0-21-2-23-9s8-15 16-21c12-7 29-14 47-20 18-5 36-8 50-9 11 0 24 1 26 9 2 7-8 15-17 21-12 7-28 14-47 20a201 201 0 01-52 9M2925 785l-2-2-13-49a2 2 0 113-1l14 49a2 2 0 01-2 3M3072 775l-1-1-5-11-5-2h-1s-4-5-4-11c0-4 2-7 4-8l-19-56 2-2 2 1 18 57v1s-4 4-4 7c0 4 3 7 4 8l5 3 1 1 5 11a2 2 0 01-2 2M2943 759a2 2 0 010-4s56-1 99-31h2v3c-44 30-101 32-101 32M3375 828l-1-1-29-55-18-3c-3 0-37-2-54 15a2 2 0 01-2-2c7-8 19-13 35-15a115 115 0 0121-2l19 4 1 1 29 54 35-3 1 1-1 2-36 4M3326 863l-40-21-1-1 1-1 12-15a2 2 0 012 2l-10 13 37 20 1 2-2 1M2931 483l-56-9a2 2 0 111-4l55 10 33-25 3 1-1 2-34 25h-1M2777 471l-1-1v-2c3-6 13-22 13-28 0-2-2-4-5-6-5-4-12-9-12-20 0-17 6-30 6-31a2 2 0 013 2s-6 13-6 29c0 10 6 14 11 17 3 2 6 5 6 9 0 8-12 28-14 30l-1 1M2841 386l-1-1-1-2 19-28h-38l-20 30a2 2 0 01-3-2l21-30 2-1h41l1 1v2l-20 30-1 1M2592 639h-1l-1-1v-56a2 2 0 114 0v51l29-38c1-3 24-43 29-49 3-2 3-22 1-35l-60 26c-1 1-2 0-3-1l1-2 63-27a2 2 0 012 1c1 6 4 35-1 41a578 578 0 00-30 47l-32 43h-1M2700 681l-38-18-37 13c-1 1-2 0-2-1-1-1 0-1 1-2l38-13h1l38 18 1 2-2 1M2837 519h-1l-25-30-37-1h-1l-41-17-91 12-2-2 1-1 92-13h1l41 18h38l1 1 24 30 19-6 2 1-1 2-20 6M2895 549h-1l-21-19v-2h2l22 18a2 2 0 01-2 3M2641 355h-49l-2-1-15-35 1-2h3l14 35h48a2 2 0 110 3" fill="#262262"/><path d="M2624 397h-1v-2c2-6 22-53 39-53s49 24 51 25a2 2 0 11-2 3c-1-1-33-25-49-25-13 0-31 37-36 51l-2 1M2289 522zm1 3l-1-1v-2l6-30a2 2 0 013 0c-2 14-5 30-7 32l-1 1M2370 458a748 748 0 01-51-8l2-2s41 7 49 7l2 1-2 2M2406 455l-1-1-8-16-15-10a2 2 0 011-3l16 10 1 1 7 15 41-15 15-35 1-1 2 1 9 16-1 2-2-1-7-12-15 32v1l-43 16h-1M2396 539zm25 20zm-105 47l-1-1c-1-1 0-2 1-2 8-1 19-4 19-8v-29l1-1 17-18h1l42-11c3 0 28 18 28 23 0 2 3 3 4 3l2 2-2 1c-3 0-7-2-7-6l-12-11-13-9-41 11-17 16v29c0 2-1 9-22 11M2182 624l-1-1 1-2c3 0 25-9 45-17l-6-25 1-1 16-8 15-9h2l12 7 24 9a2 2 0 11-1 4l-24-10-12-6-15 8-14 7 5 24-1 2c-7 3-42 18-47 18M2263 646l-2-1 1-2 22-14h1l32 7a2 2 0 11-1 3l-31-7-21 14h-1M104 832h-1l-1-3 69-81h2l53 21a2 2 0 11-1 3l-53-21-67 80-1 1M1405 790l-1-1-49-74v-1l10-68-15-72-73-20-1-1-52-97-137-53-52-17-76 48-2-1-66-78-86-55-15 1-47 53 16 91a2 2 0 01-2 2H642c-4 4-10 6-17 6-22 0-55-22-98-65l-2-3c-5-5-11-16-18-28-8-15-17-30-25-38-12-12-26 0-26 0l-2 1h-51l-90 25-51 96a2 2 0 01-3 0l-13-13-54-3L86 530a2 2 0 11-3-2l107-106h1l55 3h1l13 12 51-94 1-1 90-25 1-1h51c3-2 18-12 31 1 7 8 16 23 24 38l18 28 3 2c41 43 73 65 95 65 6 0 11-2 16-6l1-1h113l-16-89 1-1 48-55 1-1h18l86 55v1l66 77 74-47 2-1 53 18 138 53 1 1 52 97 72 20 2 2 16 73-10 68 47 73a2 2 0 01-1 3" fill="#262262"/><path d="M911 501l-1-1-74-92-75-38a2 2 0 012-3l75 38v1l74 92a2 2 0 01-1 3M843 399l-1-1v-2l36-29a2 2 0 112 3l-36 29h-1M944 489l-1-1v-2l24-44 1-1h51a2 2 0 110 3h-50l-23 44-2 1M1128 739l-1-1c-7-7-3-27 3-42 2-5 10-23 19-23s45-18 63-28l40-54a2 2 0 113 2l-40 54h-1c-2 2-53 29-65 29-4 0-11 9-16 21-7 17-9 34-4 39a2 2 0 01-1 3M1418 849h-1l-67-104-29 1-75 68a2 2 0 11-3-3l76-68h1l31-2 1 1 67 105a2 2 0 01-1 2M702 897a2 2 0 01-1-3l98-83a2 2 0 012 3l-98 83h-1M447 815a2 2 0 01-1-2l45-36-9-23-21-8h-1l-14-15a2 2 0 011-3l227-150 1-1c1 0 98 8 142 72 22 33 33 63 37 83 5 21 4 34 4 35l-1 2-2-2c0-1 2-54-41-116-41-60-131-70-139-70L450 730l12 13 22 8 1 1 9 25v1l-45 37h-2M1025 994l-1-2-1-30-30-12-1-1-35-31c-6-7-41-35-46-40a356 356 0 00-79 36v-2a363 363 0 0180-37 1557 1557 0 0182 72l31 12 1 2 1 31-2 2" fill="#262262"/><path d="M870 1003a2 2 0 010-3l96-46a2 2 0 111 2l-96 47h-1M879 762h-1l-1-2 19-72 1-1 21-11 1-1 39 3h1l22 14 26-35h1l28 3 2 1 37 67 21 8a2 2 0 01-1 3l-22-8-1-1-37-67-26-3-26 35h-2l-23-14-39-2-20 11-19 71-1 1M261 687h-1l-1-2 25-54 2-1 38 6c1 0 21 2 31 13 10 9 36 0 38 0l61-32h1l63 34a2 2 0 11-1 2l-63-33-60 32c-1 0-30 11-41 0-10-10-29-13-29-13l-37-6-25 53-1 1M420 597l-1-2-1-4c-3-15-10-54 37-81 55-29 94 19 94 20a2 2 0 010 2l-65 40a2 2 0 11-1-2l62-40c-3-3-11-12-24-18a65 65 0 00-64 1c-46 25-38 63-36 77l1 5-2 2M612 588a2 2 0 01-1-2l17-63 2-1 44-12 2 1 9 29a2 2 0 01-4 1l-8-27-42 11-17 62-2 1M271 511l-1-2-11-69a2 2 0 013 0l11 69a2 2 0 01-2 2" fill="#262262"/><path d="M189 607a2 2 0 01-2-2l37-73a2 2 0 013 0l19 18 13-12h1l11-7h1l35-15c1 0 9-4 15 1a143 143 0 0024-44l19-13h46a2 2 0 010 3h-45l-18 13c-4 10-19 43-26 45l-2-1c-5-4-11-1-12-1l-35 15-11 6-15 13h-2l-19-18-36 71-1 1M616 476h-58a2 2 0 110-3h57l25-29a2 2 0 113 2l-26 30h-1M800 552a2 2 0 01-1-3c3-4 19-45 29-74l-71-28a2 2 0 111-3l73 29 1 2a701 701 0 01-32 77" fill="#262262"/><path d="M857 541l-1-1a492 492 0 01-26-67l2 1a465 465 0 0025 67M1048 605l-57-17h-1c-9-10-20-21-23-21-7 0-39-16-39-24l-1-1c-3-1-15 4-22 11l-43 44a2 2 0 01-2-3l42-43c7-7 21-14 27-12l2 4c0 5 30 21 36 21s22 17 26 21l56 17a2 2 0 01-1 3M668 424a2 2 0 01-2-2l15-49a2 2 0 012-1l49 17a2 2 0 11-1 3l-47-16-15 47-1 1M959 399l-1-2 3-46 1-23-11-5c-3-1-4-3-5-6l2-6 6-7c1-1 2-2 1-4 0-2 0-5 2-7 2-1 5-2 7-1l7 1 14-35-5-23-14-35c-9 8-18 10-22 10l12 42v1c-11 18-26 46-25 53a494 494 0 01-2 70l-1-2c0-1 3-48 0-68-2-9 21-47 25-54l-13-43a2 2 0 012-2s12 1 24-11a2 2 0 012 1l15 37 5 23v1l-14 38-2 1-9-2c-1-1-2 0-3 1s-2 2-1 4c0 2 0 5-2 6l-6 7c-1 1-2 2-1 4l2 3 13 5 1 2-2 24-3 46-2 2M993 384a2 2 0 01-1-2l26-74-16-10-23 62a2 2 0 01-3-2l23-63a2 2 0 013-1l19 12 1 2-27 75-2 1M600 425h-1l-1-2 12-66c-6-2-11-2-17 1-19 9-30 39-30 40a2 2 0 11-3-1c0-2 11-33 31-42 7-3 15-4 22-1l1 2-13 68-1 1M762 803a2 2 0 01-1-3l50-41h2l24 5 20 8 21-5 42-21h1l46 8 1 2-2 1-45-8-42 21-22 5h-1l-20-7-23-6-50 41h-1M1115 768h-28a2 2 0 010-4h27l36-19 19-12 19-9h2l43 20 20-3h1l26 9a2 2 0 01-1 3l-26-8-20 3h-1l-43-20-19 8-18 12-36 19-1 1M1305 915a2 2 0 010-4l97-34 1-5c2-3 7-4 13-4a422 422 0 0168 16l-2 1c-1 0-50-14-66-14-7 0-9 2-10 3l-1 4a2 2 0 01-1 2l-98 34-1 1" fill="#262262"/><path d="M1331 955l-1-1-11-30h-27l-1-1-13-18-33-12-34 38a2 2 0 01-2-2l34-39h2l35 12h1l12 19h27l2 1 11 31a2 2 0 01-2 2M702 880h-1l-99-22c-2-1-49-15-65-32-5-5-10-7-13-6-4 1-6 6-6 6v1l-34 23-1 1-35 15h-22l-32 7a2 2 0 11-1-3l33-7h21l35-15 34-24c0-2 2-6 7-7 5-2 10 1 16 7 16 16 63 30 64 30l99 23a2 2 0 010 3M724 843h-1l-14-6-26-2-2-1-6-19-26-5-10 27-2 1-1-2 10-28 2-1 28 5 2 1 6 19 26 2 14 6a2 2 0 010 3" fill="#262262"/><path d="M2592 948h-361V718h361v230" fill="#fff"/><path d="M2592 948h-353V725h353v223" fill="#d9ab39"/><path d="M2333 950h-102l-2-2V718l2-1h361l2 1v92a2 2 0 11-4 0v-90h-358v227h101l2 1-2 2M2572 950h-222a2 2 0 110-3h222a2 2 0 110 3M2592 950l-2-2V829a2 2 0 114 0v119l-2 2" fill="#262262"/><path d="M2558 718h-49V440h49v278" fill="#fff"/><path d="M2558 718h-41V450h41v268" fill="#c8d4de"/><path d="M2558 720h-49l-2-2V440l2-2h49l2 2v222a2 2 0 01-4 0V441h-45v276h47l2 1-2 2" fill="#262262"/><path d="M2290 718h-55v-33h55v33" fill="#fff"/><path d="M2290 718h-47v-27h47v27" fill="#d9ab39"/><path d="M2290 720h-55l-2-2v-33l2-1h55l2 1v17a2 2 0 01-3 0v-15h-52v30h53l2 1-2 2" fill="#262262"/><path d="M2347 718h-47l209-203v44l-162 159" fill="#fff"/><path d="M2347 718h-33l195-189v30l-162 159" fill="#c8d4de"/><path d="M2347 720h-47a2 2 0 01-1-3l209-203h2l1 1v44l-1 1-48 47a2 2 0 11-2-2l47-47v-39l-203 198h42l96-95a2 2 0 113 3l-97 94-1 1" fill="#262262"/><path d="M2552 520a18 18 0 11-36 0 18 18 0 0136 0" fill="#fff"/><path d="M2552 521a14 14 0 11-29 0 14 14 0 0129 0" fill="#c8d4de"/><path d="M2534 539a19 19 0 1120-19 2 2 0 01-4 0 16 16 0 10-4 11h2l1 2c-4 4-9 6-15 6" fill="#262262"/><path d="M2231 857h361v12h-361v-12" fill="#fff"/><path d="M2231 863h361v6h-361v-6" fill="#d9ab39"/><path d="M2592 871l-2-2v-11h-358v9h44a2 2 0 110 4h-45l-2-2v-12l2-2h361l2 2v12l-2 2" fill="#262262"/><path d="M2575 871h-282a2 2 0 110-4h282l2 2-2 2" fill="#262262"/><path d="M2517 948h-10V779h10v169" fill="#fff"/><path d="M2517 948h-5V779h5v169" fill="#d9ab39"/><path d="M2517 950h-10l-2-2V779a2 2 0 113 0v168h7V805l2-1 2 1v143l-2 2" fill="#262262"/><path d="M2417 948h-11V779h11v169" fill="#fff"/><path d="M2417 948h-6V779h6v169" fill="#d9ab39"/><path d="M2417 950h-11l-1-2V779l1-2h11l1 2v39a2 2 0 01-3 0v-37h-7v166h7V840a2 2 0 013 0v108l-1 2" fill="#262262"/><path d="M2316 948h-10V779h10v169" fill="#fff"/><path d="M2317 948h-6V779h6v169" fill="#d9ab39"/><path d="M2316 950h-10l-2-2V779l2-2h10l2 2v35a2 2 0 01-3 0v-33h-8v166h9l2 1-2 2" fill="#262262"/><path d="M2316 928l-1-1v-92a2 2 0 013 0v92l-2 1" fill="#262262"/><path d="M2231 777h361v12h-361v-12" fill="#fff"/><path d="M2231 784h361v6h-361v-6" fill="#d9ab39"/><path d="M2592 791l-2-2v-10h-358v9h128l2 1-2 2h-129l-2-2v-12l2-1h361l2 1v12l-2 2" fill="#262262"/><path d="M2564 791h-177l-2-2 2-1h177a2 2 0 110 3" fill="#262262"/><path d="M2311 1054h-44V948h44v106" fill="#fff"/><path d="M2311 1054h-32V948h32v106" fill="#c8d4de"/><path d="M2311 1056h-44l-2-2V948l2-1h44a2 2 0 110 3h-43v103h42v-81a2 2 0 013 0v82l-2 2" fill="#262262"/><path d="M2556 1054h-44V948h44v106" fill="#fff"/><path d="M2556 1054h-32V948h32v106" fill="#c8d4de"/><path d="M2556 1056h-44l-2-2V948l2-1h44l2 1v44l-2 2-2-2v-42h-41v103h41v-36a2 2 0 014 0v37l-2 2" fill="#262262"/><path d="M2676 1054h-45V943h45v111" fill="#fff"/><path d="M2676 1054h-33V943h33v111" fill="#c8d4de"/><path d="M2676 1056l-2-2V944h-41v109h21l1 1-1 2h-23l-1-2V943l1-2h45l1 2v111l-1 2" fill="#262262"/><path d="M3117 1054h-44V943h44v111" fill="#fff"/><path d="M3117 1054h-33V943h33v111" fill="#c8d4de"/><path d="M3103 1056h-30l-2-2V943l2-2h44a2 2 0 110 3h-43v109h29l1 1-1 2" fill="#262262"/><path d="M3117 1056l-2-2v-79a2 2 0 114 0v79l-2 2" fill="#262262"/><path d="M3141 943h-549v-39h549v39" fill="#fff"/><path d="M3141 943h-549v-28h549v28" fill="#c8d4de"/><path d="M2876 944h-249l-2-1 2-2h249a2 2 0 110 3" fill="#262262"/><path d="M3141 944h-202l-2-1 2-2h200v-36h-545v36h14l2 2-2 1h-16l-2-1v-39l2-2h549l1 2v39l-1 1" fill="#262262"/><path d="M2886 900l-12 7-12-2-13-7-12 1-13-1-13 1-12-2-13 9-13-5-12 2-13-2-13 3h-12l-13 5-12-1-13-5-13-2-9-3 1-9v-12l-1-12-9-13 6-12-3-13 7-12 1-13-7-12 5-10 9 3 13-1 13-8 12 2 13 5 12-8h13l13 5 12-4 13 2 13 8 12-10 13 1 13 1 12 6 13-10 12 10h8l11 8-4 12 2 13-1 12 3 13-6 12-5 13v12l8 13-4 10" fill="#fff"/><path d="M2699 909l-14-6-8-1-6-3v-19l-1-13-8-12 6-12-4-12 7-12 1-14-6-12 2-5 8 2 14-1 12-7h11l14 6 13-8h11l13 6 13-5 11 1 15 10 13-11 11 1 12 1 14 7 13-10 11 9h8l8 6-3 10 1 13-1 13 3 9-6 10-4 13-1 14 8 12-4 11-12 9-10-3-15-8-9 1-12-1-13 1-16-2-13 9-11-5-11 2-16-2-11 3h-11l-14 5h-13" fill="#c8d4de"/><path d="M2698 909h-1l-13-5-12-1-9-3-1-2v-21l-1-12-8-12v-2l5-11-3-12v-2l7-12 1-11-7-12v-2l5-9 2-1 9 2h12l13-8h1l12 1h1l12 5 12-7h14l12 5 12-5h1l12 2h1l12 8 11-9h14l13 1 12 6 12-10h2l12 11 7-1 1 1 11 7v2l-3 12 1 13v12a2 2 0 01-3 0v-12l-1-13 3-12-9-6h-8-1l-11-10-12 10h-2l-12-7-12-1h-12l-12 9h-2l-13-8-12-1-12 4h-1l-12-5h-12l-12 7h-2l-12-5-12-1-12 8h-1l-13 1-9-3-3 8 6 11v1l-1 13v1l-7 11 4 12v1l-6 12 8 12 1 13v20l8 3 12 1 13 5 1 2-1 1M2710 910l-1-1c-1-1 0-1 1-2l12-5h13l13-3 13 3 12-3h1l12 5 12-8 1-1 12 3 13-2 13 1 12-1h1l12 7 12 3 10-7 4-9-7-12-1-1 1-12v-1l4-12v-1l6-12a2 2 0 113 1l-6 13-4 12v12l7 12 1 1-5 11-1 1-11 7h-1l-13-3-12-6h-12-1l-12-1-13 2-12-2-12 9h-2l-12-6-12 3h-1l-12-3-12 3h-13l-12 5h-1" fill="#262262"/><path d="M2817 859l-5 22 11 7 2-7s9-16-8-22" fill="#c0e1ed"/><path d="M2799 899a2 2 0 01-2-3l10-11 1-1 15 3 16-23c0-2 1-8-5-10-2 0-4-1-5-3-2-5 3-17 4-18h2l1 2c-2 4-5 12-4 15l2 1c8 2 9 10 8 14v1l-17 24h-1l-15-2-9 10-1 1M2849 900a2 2 0 010-4l12-4-2-8a2 2 0 113-1l3 10v1l-1 1-14 4-1 1M2870 884a2 2 0 01-1-3l-3-4-4-4c-5-5-2-12 0-15h1l23-7a2 2 0 111 3l-23 7c0 1-3 6 1 10l3 3 5 6-2 3-1 1" fill="#262262"/><path d="M2861 800c-3-8-9 12-28 9l8 8s8 16 8 19c0 2 18-10 21-12 2-3-6-17-9-24" fill="#ea5444"/><path d="M2868 823zm-17 13zm-2 2l-1-2-9-18 1-3 2 1 9 18c3-1 15-9 17-12 1-1-3-9-5-14a174 174 0 01-4-9l-3 3c-4 4-11 11-24 9l-1-2 2-1c10 1 17-5 21-8 2-3 4-4 6-4 2 1 2 2 2 3l4 8c5 11 7 16 5 18 0 0-17 13-22 13" fill="#262262"/><path d="M2756 875c-2-6 24-18 24-18h-19c-8 8-23 14-16 20 7 7 3 24 3 24l13 2 8-15s-11-7-13-13" fill="#c0e1ed"/><path d="M2750 899l10 2 6-12c-2-2-9-8-11-13-1-4 2-8 11-14l7-4h-11l-8 7c-4 3-9 6-9 9l1 2c6 6 5 19 4 23zm11 6h-1l-12-3-1-1-1-1c1 0 4-16-2-21-2-2-2-4-2-5 0-5 5-8 10-12l8-7h20a2 2 0 010 3c-12 6-23 14-22 17 1 4 9 10 12 12v2l-8 15-1 1M2689 882l-1-1-7-4c-1 0-2-1-1-2l2-1 7 4 12-34-15-39-3 12 10 23v1l-10 27a2 2 0 11-3-2l10-26-10-22v-2l5-16a2 2 0 013 0l16 44v1c-11 36-14 36-15 37M2723 905h-1l-14-6-1-2 4-13-10 8a2 2 0 11-2-3l14-10h1l1 1-4 16 12 6a2 2 0 010 3" fill="#262262"/><path d="M2761 817c-11-4 2-16-11-19s-18 14-18 28l8 22c5-36 25-10 34-19 8-9-1-8-13-12" fill="#eaf2f4"/><path d="M2740 849c-1 0-2-1-1-2 1-10 4-16 8-19 5-3 10-1 15 0 4 1 8 2 10 0l3-4-7-3-7-3c-7-2-7-7-7-11 1-4 1-6-4-8-3 0-6 0-8 2-6 4-8 16-8 25a2 2 0 01-4 0c0-10 3-22 10-28 3-2 6-3 10-2 8 2 8 7 8 11s-1 7 4 8l7 2c5 2 9 3 10 6 0 2-1 4-4 7-4 4-9 2-14 1-4-1-9-2-12 0s-6 8-7 17l-2 1M2796 836l-1-2c1-5 2-15 0-18h-2c-8 0-11-6-12-10l2-2 2 2s1 6 8 6l4 2c4 6 1 19 1 20l-2 2M2820 812h-1l-1-2 4-16 1-1h1l9 3a2 2 0 11-1 3l-7-3-4 14-1 2M2790 884l-1-1v-2l12-14c-6-2-16-5-16-10 0-4-6-10-9-11a2 2 0 112-3c1 1 10 7 10 14 0 3 9 6 16 7a2 2 0 011 3l-13 16-2 1M2893 879l-2-1-5-8c-4-3-1-18 0-21a2 2 0 013 1c-1 7-2 16 0 18l3 5 2-4a2 2 0 113 1l-3 8-1 1M2900 838l-2-1-9-22a2 2 0 013-1l9 22a2 2 0 01-1 2" fill="#262262"/><path d="M3195 899l-9 6-13-5-13 3-12 2-13-3-13 4-12-9-13 3-13 8-12-5h-13l-12-3-13 3-13 1-12 2-13-8-13 6-17 2v-17l9-12-8-12 8-13-3-12v-13l-3-12-2-13-2-12 10-8 8-10 13 11 13 1 12-10 13 4 13-7 12 9 13 4 12-7 13-3 13-3 12 11 13 1 13-3 12-1 13-2 13 2 15-5-5 16 2 12-2 13-3 12 9 13 2 12-5 13 4 12-11 12 3 10" fill="#fff"/><path d="M3071 903l-8 1-15-4-13 4h-14l-12 2-12-8-14 6-10 2v-11l10-14-8-12 7-12-3-14v-12l-3-13-2-12-2-11 9-7 6-7 11 9 15 2 13-10 12 4 12-7 11 8 15 4 13-7 12-2 11-4 12 11 15 1 13-2 12-1 13-3 12 2 10-3-3 10 2 13-1 12-4 9 10 13 1 11-5 14 4 12-11 12 3 10-8 5-13-4-13 4-13 1-13-3-13 4-12-9-12 3-14 8-13-5" fill="#c8d4de"/><path d="M3084 910l-12-6-13 1-12-3-13 3h-13l-12 3h-1l-12-8-12 5-18 3h-1v-1l-1-17 1-1 8-12-7-12v-1l7-12-2-12v-13l-3-12-3-12-1-13v-1l10-9 8-9h2l13 10 11 1 12-9h2l12 3 12-7h2l12 10 12 3 12-7 13-2 12-4h2l12 11 12 1 12-2h1l12-1 13-3 12 2 16-4a2 2 0 012 2l-5 15 2 12a2 2 0 11-3 1l-3-13v-1l5-12-13 3-1 1-12-3-12 3h-1l-12 1-13 2-13-1h-1l-12-10-11 3h-1l-12 2-12 7h-2l-12-3h-1l-12-9-11 6-2 1-11-4-12 9-2 1-12-2h-1l-11-10-8 9-9 7 2 12 2 12 3 13v12l3 13v1l-8 12 7 11v2l-9 12 1 15 15-3 12-5h2l12 7 12-2 13-1 12-3h1l12 4 13-1 12 5 12-8h1l12-3 2 1 12 8 12-4 13 3 12-1 12-4 3 1-2 3-12 3h-1l-12 2-1-1-12-2-12 4-2-1-12-8-11 2-13 8-1 1M3186 906a2 2 0 01-1-3l8-5-3-9 2-2 2 1 3 10-1 2-10 6" fill="#262262"/><path d="M3203 879l-2-2-3-12v-1l4-12-1-12-10-12v-1l4-13 2-1 1 2-3 12 8 12h1l2 13-1 1-4 12 3 12a2 2 0 01-1 2M2996 900l-1-1v-2c22-18 24-16 25-15 2 2 8 3 12 4l15-8 2 1 14 9v2h-2l-13-8-15 7h-1c-2 0-11-2-14-4a97 97 0 00-22 15M3067 877h-1l-1-2c4-9 7-20 6-22-2-2-7-4-31-4-20 0-28-12-31-18l-5 9c0 2 3 11 10 15 8 5 29 0 30 0l18 2 1 1-1 2-18-2c-3 1-23 5-32 0-9-6-12-18-12-18v-2l8-11 1-1 2 1c0 1 5 19 29 19 26 0 31 2 34 5 2 2 0 10-6 25l-1 1" fill="#262262"/><path d="M3155 822l-4-8s-18 8-21 8l-10-5-3 8s5 11 13 15c6 3 11 10 13 17l-1-23 13-12" fill="#d9ab39"/><path d="M3143 869h-1l-1-3c2-2 1-6 0-10-2-6-7-12-11-14-10-5-14-16-15-16v-1l3-9 1-1 2 1 9 5 20-8 2 1 5 8v2l-13 11h-3v-2l12-11-3-5-20 7-9-5-2 6c1 2 5 10 12 14 6 3 11 10 13 16 2 5 2 10 0 13l-1 1M3173 902h-1l-17-6-1-1-5-12a2 2 0 011-3l23-5 2 2-2 2-20 4 4 10 16 5a2 2 0 010 4M3190 873l-2-1-6-15a2 2 0 011-2l21-5 2 2-2 2-18 4 5 13a2 2 0 01-1 2M3105 841l-1-1-5-20c0-4 3-11 4-14l-4-5-4 14-3 1-1-2 6-17 1-1h1l7 9 1 2c-2 2-5 10-5 13l5 19a2 2 0 01-2 2" fill="#262262"/><path d="M3044 800c-13-3-10 17-10 22l10-8 10 6 13-18s-10 1-23-2" fill="#ffcac0"/><path d="M3034 824l-1-2v-2c-1-7-1-16 4-20 2-2 4-2 8-1l22 2h2v2l-13 18h-2l-10-5a2 2 0 111-3l9 5 10-14c-4 0-11 0-20-2h-5c-4 3-3 12-3 17v3l-2 2M2985 824a2 2 0 01-1-2v-12a2 2 0 113 0v10l10-3 2 1c1 1 0 2-1 2l-12 4h-1M2998 879c-8 0-8-11-8-17a2 2 0 113 0c0 8 1 13 5 13l17-1a2 2 0 110 3l-17 2M3117 892h-1l-14-9-4-6h-8l2 11a2 2 0 01-3 1l-2-13v-2h13l4 7 14 8a2 2 0 01-1 3" fill="#262262"/><path d="M3103 862l2 7 21 10-9-17h-14" fill="#ffcac0"/><path d="M3171 810l-5 8s-1 12 9 18c9 5 9 9 9 9v-8s-9-6-9-10l-4-17" fill="#ea5444"/><path d="M3198 835l-2-1c0-7 4-14 7-17a2 2 0 012 3c-2 2-6 9-6 14l-1 1M3144 783l-1-1-8-9a6 6 0 00-7-1l-1 1h-2v-3c2-2 8-4 12 1 5 4 8 9 8 9a2 2 0 01-1 3" fill="#262262"/><path d="M3422 1055l-11-1-16 4h-15l-15-6-15 6-15 5-15-7-16-2-15 2-15 5-15-3-15-4-15 9-16-7-17 5 6-18-9-16 4-15-4-16 4-16 4-15v-16l-4-17 16-3 16 10 15-3 15 3 15-9 15-3 15 11 15-7 16 5 15 4 15-10 15 10 15-5 15-6 19 1-5 19-1 16-4 15 8 16-7 16 6 15-2 15-2 13" fill="#fff"/><path d="M3322 1055l-16-1-16 2-15 5-14-3-17-4-15 8-15-7-12 4 5-13-9-16 3-15-4-16 4-14 4-17v-16l-4-14 12-2 16 10 16-3 16 3 16-9 13-3 16 11 15-7 14 5 18 4 14-10 15 10 17-6 15-5 13 1-4 15v6l-1 10-3 12 8 16-7 15 6 16-2 9-1 9-1 9h-9l-16 4h-14l-16-7-16 7-14 5-15-8" fill="#c8d4de"/><path d="M3411 999l6-17h3l6 12-15 5" fill="#d9ab39"/><path d="M3287 982l-2 6v7l11 1h7l5-10-21-4" fill="#eaf2f4"/><path d="M3267 1022l37 28-50-26zM3249 1017s-16 3-16 6l-2 15 9-6 9-15" fill="#ffcac0"/><path d="M3320 1010l13 2s6 6-1 13c-6 7-8 13-8 13l-6-13 6-8-4-7M3326 988l14-9 13-1-5 29c0-1-1-15-4-18-2-2-18-1-18-1" fill="#c0e1ed"/><path d="M3369 1010l10 9 15 2-3-13-5-4-5-9 1 13-13 2" fill="#d9ab39"/><path d="M3229 1065l-1-1-15-6-17 4h-1l-1-2 6-17-8-15v-1l3-15-4-16 5-16 3-15v-16l-4-16v-2h1l17-4 1 1 15 10 14-3h1l15 3 14-9h1l15-3h1l14 10 15-7h1l15 6 15 4 14-11h2l14 10 15-5 15-5 1-1 18 2h1l1 2-6 19-2 1-1-2 5-17-16-1-15 5-15 5h-2l-14-9-14 10h-2l-15-4-14-5-15 7-2-1-14-10-14 3-15 9h-1l-15-3-15 3h-1l-15-10-14 3 3 15 1 16h-1l-3 16-5 15 5 15v1l-4 15 9 15v1l-6 15 15-4h1l15 7 1 3-1 1" fill="#262262"/><path d="M3259 1059h-1l-15-3-1-2c0-1 1-2 2-1l15 3a2 2 0 010 3M3335 1065h-1l-15-8-15-2-14 3-15 5a2 2 0 11-2-3l16-6 15-2h1l15 2 15 8a2 2 0 010 3M3395 1060l-15-1-15-5-15 5-2-1 1-2 15-6h2l15 6 14 1 15-4 1-1 10 1 1-11 2-1 1 2-1 12-2 2-11-1-15 4h-1M3426 1029l-2-1-6-16v-1l7-15-7-15-1-1 4-16a2 2 0 113 1l-3 15 7 15v2l-6 15 5 15a2 2 0 01-1 2M3218 1052l-1-2-3-9 2-12-13-13v-3h2l14 14 1 2-3 12 3 8a2 2 0 01-2 3M3333 1047l-11-4-1-2s2-13 11-17l2-4c1-3-1-6-1-7l-17-2-1-2 2-1 17 2 1 1s4 5 3 10c-1 2-2 4-5 5-6 4-8 11-8 14l9 3a2 2 0 01-1 4M3250 982zm54 70l-1-1-50-25a2 2 0 010-3l9-12-14-27c-1-1-2-2 11-24l2-1 1 3-11 20a600 600 0 0115 30l-10 12 33 16-23-17v-1-1l9-13h2l23 9 1 2-2 1-22-9-7 10 35 28a2 2 0 01-1 3M3273 1056l-1-1c-1-1-5-9-3-13l2-2 1 3c-1 2 1 8 3 11a2 2 0 01-2 2M3226 1005zm0 0zm0 0zm0 0zm0 0zm0 0zm0 0zm0 0zm-1 0c-1 0-2 0-11-13a2 2 0 112-2l9 12 2-1c3-1 9-2 10-5 2-4 2-6 0-11-3-5 2-13 2-14h2l1 2c-1 2-4 8-2 11 3 5 3 9 0 14-2 4-8 5-12 6a21 21 0 00-3 1" fill="#262262"/><path d="M3411 1000h-1l-11-3-1-1-10-11v-2l1-1 14-6a2 2 0 011 3l-12 5 8 10 10 3 8-17c0-1 1-2 2-1l1 2-9 18-1 1M3409 1053l-1-1v-2l7-12-10-10-7 9h-1l-16 7h-1l-16-2-2-2 2-1 16 1 16-6 8-10h2l13 13v2l-9 13-1 1" fill="#262262"/><path d="M3357 1047l-2-1-9-16a2 2 0 011-2l12-2h2l9 8 1 2h-3l-9-7-9 2 8 13a2 2 0 01-1 3M3394 1022h-1l-14-2h-1l-12-11v-2h2l12 10 12 2-3-9v-1c-2-2-6-5-9-13l-4-4c-5 0-12 3-15 6a2 2 0 01-2-2c4-4 11-8 17-7 3 1 6 3 7 6 3 7 6 10 8 11l1 1 3 13v2h-1M3321 973zm4 4l-6-1-1-3a2 2 0 013 0c2 2 13 0 24-3 1 0 6-1 6-5v-7l-5 5a2 2 0 01-2-2l7-8h2l1 1v11c0 6-5 8-8 9l-21 3M3286 994zm19 0zm-4 4a256 256 0 01-16-1s-2 0-2-2l-1-2c0-4 2-14 7-14a2 2 0 110 4l-1 1c-2 3-3 8-2 10a211 211 0 0117 0l8-16h2v2l-7 15v1c-1 1-1 2-5 2M3303 959zm-23 2zm2 3h-4l-1-3c0-3 4-7 7-7a2 2 0 110 3l-3 2-1 2h2l17-1 4-1 4-8 2-1 1 2c-4 10-6 10-7 10l-3 1-18 1M3405 957h-1l-12-6-1-3h3l11 6 18-6c1-1 2 0 2 1 1 1 0 1-1 2l-19 6M3335 938l-2-1 1-2c7-2 10-4 10-7s-4-6-7-7c-2-1-3 0-4 1v5h-2c-2-2-2-4-1-7 2-2 4-4 8-3 4 2 10 6 10 12-1 4-5 7-13 9M3375 938a2 2 0 010-3l20-9a2 2 0 112 3l-21 9h-1M3423 1022a2 2 0 01-1-3c2-1 6-7 5-10-1-6 5-16 5-17a2 2 0 013 2c-1 2-5 10-4 14 1 6-6 13-7 14h-1M3311 1070h-1s-13-12-23-12a2 2 0 110-3c11 0 24 12 25 12a2 2 0 01-1 3" fill="#262262"/><path d="M3368 965s-6 3-6 7l3 12 9-5c1-1 5-7 10-7l14-3-30-4" fill="#eaf2f4"/><path d="M1461 295l-300-67 5-38 302 16c9 0 15 9 13 17l-20 72" fill="#fff"/><path d="M1461 295l-300-67 4-31 305 15c8 1 11 13 9 20l-18 63" fill="#c0e1ed"/><path d="M1461 297c-1 0-2-1-1-2l19-72c1-4 0-8-2-11s-5-5-8-5l-302-16-4 38a2 2 0 01-4-1l5-38 2-2 303 16c4 0 8 2 11 6s3 9 2 14l-19 72-2 1" fill="#262262"/><path d="M1397 283h-1l-209-47a2 2 0 011-3l209 46a2 2 0 010 4" fill="#262262"/><path d="M1139 426l-25-3 19-195 25 2-19 196" fill="#fff"/><path d="M1139 426l-18-2 19-195 18 1-19 196" fill="#c8d4de"/><path d="M1139 427l-25-2c-1 0-2-1-1-2l18-195a2 2 0 012-2l25 3a2 2 0 011 2l-14 149-2 2-2-2 15-148-22-2-18 192 23 2a2 2 0 010 3" fill="#262262"/><path d="M1151 463l-55-6 10-34 41 4 4 36" fill="#fff"/><path d="M1151 463l-43-5 6-35 32 3 5 37" fill="#c8d4de"/><path d="M1098 456l51 5-4-33-37-4zm53 8l-55-5a2 2 0 01-1-2l10-35 2-1 40 4 1 1 5 36a2 2 0 01-2 2" fill="#262262"/><path d="M1166 233l-40-5 5-50 40 5-5 50" fill="#fff"/><path d="M1166 233l-33-4 5-45 33 4-5 45" fill="#c8d4de"/><path d="M1166 235l-40-5-2-2 6-50a2 2 0 012-2l39 5 2 2-3 23-1 1-2-2 2-21-36-4-5 47 36 4 2-12 1-1 2 2-2 13a2 2 0 01-1 2M1553 269l-2-1-80-46c-1-1-2-3-1-4s2-2 4-1l80 47 1 3-2 2" fill="#262262"/><path d="M1706 384l-166-113 11-19 166 113-11 19" fill="#fff"/><path d="M1706 384l-166-113 7-12 166 113-7 12" fill="#c8d4de"/><path d="M1542 270l163 112 10-16-163-111zm164 116l-1-1-166-113-1-2 12-19h2l166 113 1 2-12 19a2 2 0 01-1 1" fill="#262262"/><path d="M1832 696l-81-290c-5-19-17-33-32-41l-234-107-18 42 200 122c14 8 25 24 29 43l55 245 81-14" fill="#fff"/><path d="M1822 693l-76-281c-5-18-16-32-31-40l-233-108-15 36 197 120c14 8 28 27 32 45l55 245 71-17" fill="#c0e1ed"/><path d="M1751 712a2 2 0 01-1-4l80-13-81-289c-5-18-16-32-31-40l-233-106-16 39 91 56 1 2-2 1-93-57-1-2 18-42a2 2 0 012-1l235 107c15 8 27 24 32 42l82 291a2 2 0 01-2 2l-81 14" fill="#262262"/><path d="M1725 596l-2-1-28-130c-4-18-15-33-29-42l-88-53v-3h2l88 53c15 9 26 25 30 44l29 130a2 2 0 01-2 2" fill="#262262"/><path d="M1485 298l-41-13c-6-2-10-9-8-16 2-6 9-10 15-8l41 13c6 2 9 9 7 16-1 6-8 10-14 8" fill="#fff"/><path d="M1488 299l-41-14c-5-1-8-6-6-11v-1c2-5 6-8 11-6l41 13c5 2 7 7 6 12-2 5-7 8-11 7" fill="#c8d4de"/><path d="M1485 296h8l5-7c1-6-2-12-7-13l-41-14-7 1c-2 1-4 4-5 7-2 5 1 11 7 13zm3 4l-4-1-40-13c-7-2-11-10-9-17 1-4 3-7 7-9 3-1 6-2 9-1l41 14c7 2 11 10 9 17-1 4-3 7-7 8l-6 2" fill="#262262"/><path d="M1797 749l-12 3-69-317 13-3 68 317" fill="#fff"/><path d="M1797 749l-8 2-68-317 8-2 68 317" fill="#c8d4de"/><path d="M1785 754h-1l-1-1-68-317c-1-1 0-2 1-2l13-3c1-1 1 0 2 1l-2 2-11 3 68 313 9-2-59-275 1-2 2 1 60 277-1 2-13 3" fill="#262262"/><path d="M1739 426c0 11-8 19-18 19s-18-8-18-19 8-19 18-19 18 8 18 19" fill="#fff"/><path d="M1739 430c0 8-7 15-15 15s-14-7-14-15c0-9 6-16 14-16s15 7 15 16" fill="#c8d4de"/><path d="M1721 409c-9 0-17 7-17 17s8 17 17 17 16-7 16-17-7-17-16-17zm0 38c-11 0-20-10-20-21s9-21 20-21 19 10 19 21-8 21-19 21" fill="#262262"/><path d="M1213 572l-16 3 3-45 25-5-12 47" fill="#fff"/><path d="M1213 572l-12 2 6-46 18-3-12 47" fill="#c8d4de"/><path d="M1213 572zm-11-41l-3 42 13-3 11-43zm-5 45a2 2 0 01-2-1l3-46 2-1 25-5 1 1 1 2-12 46-2 1-16 3" fill="#262262"/><path d="M1225 525l-24 6-68-69h38l54 63" fill="#c8d4de"/><path d="M1201 533l-1-1-69-69a2 2 0 012-3l38 1h1l20 23a2 2 0 01-3 2l-19-22-33-1 64 66 21-5-17-20a2 2 0 112-2l20 22a2 2 0 01-1 3l-25 5v1" fill="#262262"/><path d="M1019 557l15 5 3-45-25-8 7 48" fill="#fff"/><path d="M1025 560l9 2 2-45-17-5 6 48" fill="#c8d4de"/><path d="M1020 556l13 4 2-42-21-6zm14 8l-16-5-1-1-6-49a2 2 0 012-1l24 7 1 2-2 45a2 2 0 01-2 2" fill="#262262"/><path d="M1012 509l24 9 75-59-38-4-61 54" fill="#fff"/><path d="M1020 512l16 6 75-59-30-4-61 57" fill="#c8d4de"/><path d="M1036 519h-1l-23-9a2 2 0 01-1-2l61-55h1l39 4a2 2 0 11-1 3l-37-4-59 52 20 8 39-30a2 2 0 012 2l-39 31h-1" fill="#262262"/><path d="M1131 589l-16-1v-49l25 1-9 49" fill="#fff"/><path d="M1131 589h-11l2-50 18 1-9 49" fill="#c8d4de"/><path d="M1117 587l13 1 8-46-22-2zm14 4l-16-1-1-2-1-49a2 2 0 012-2l25 1a2 2 0 011 2l-8 50-2 1" fill="#262262"/><path d="M1140 541l-25-3-10-81 37 3-2 81" fill="#fff"/><path d="M1140 541l-18-2-8-81 28 2-2 81" fill="#c8d4de"/><path d="M1140 542l-25-2-2-1-10-82a2 2 0 012-2l37 3 2 2-2 45-1 2-2-2 1-44-33-2 9 78 24 2a2 2 0 010 3" fill="#262262"/><path d="M1972 902h-413v-26h413v26" fill="#c8d4de"/><path d="M1972 904h-413l-1-2v-26a2 2 0 113 0v24h409v-24a2 2 0 114 0v26l-2 2" fill="#262262"/><path d="M1872 926l-119-24h-196l-153 24c-29 0-53 25-53 56s24 56 53 56h468c29 0 53-25 53-56s-24-56-53-56" fill="#999"/><path d="M1872 926l-119-24h-154l-108 22-18 2c-26 4-47 27-47 56 0 31 24 56 53 56h393c29 0 53-25 53-56s-24-56-53-56" fill="#24325b"/><path d="M1429 1040h-25c-30 0-55-26-55-58 0-30 23-56 51-58l13-1 144-23 2 2-2 2-143 22-14 2c-26 2-47 25-47 54 0 30 23 54 51 54h25a2 2 0 110 4M1642 1040h-163a2 2 0 110-4h163l1 2-1 2" fill="#262262"/><path d="M1482 950c-17 0-31 14-31 33 0 18 14 33 31 33s31-15 31-33c0-19-14-33-31-33zm0 68c-18 0-33-16-33-35 0-20 15-36 33-36s33 16 33 36c0 19-15 35-33 35M1873 950c-18 0-32 14-32 33 0 18 14 33 32 33 17 0 31-15 31-33 0-19-14-33-31-33zm0 68c-19 0-34-16-34-35 0-20 15-36 34-36 18 0 33 16 33 36 0 19-15 35-33 35M1543 970h-1v-1c5-8 13-13 21-13 9 0 17 4 21 12a1 1 0 11-2 1c-4-7-11-11-19-11s-15 4-19 12h-1M1563 1009c-8 0-16-5-21-13v-1h2c4 8 11 12 19 12s16-4 20-12h1l1 1c-5 8-13 13-22 13M1601 970l-1-1c5-8 13-13 22-13 8 0 16 4 21 12l-1 1h-1c-5-7-12-11-19-11-8 0-16 4-20 12h-1M1622 1009c-9 0-17-5-22-13l1-1h1c4 8 12 12 20 12s15-4 19-12h2v1c-5 8-13 13-21 13M1659 970l-1-1c5-8 13-13 22-13 8 0 16 4 21 12a1 1 0 11-2 1c-4-7-12-11-19-11-8 0-16 4-20 12h-1M1680 1009c-9 0-17-5-22-13l1-1h1c4 8 12 12 20 12s15-4 19-12a1 1 0 012 1c-4 8-12 13-21 13M1718 970h-1v-1c4-8 12-13 21-13 8 0 16 4 21 12v1h-2c-4-7-11-11-19-11s-15 4-20 12M1738 1009c-9 0-17-5-21-13v-1h1c5 8 12 12 20 12s15-4 20-12h1l1 1c-5 8-13 13-22 13M1776 970h-1v-1c4-8 12-13 21-13s16 4 21 12a1 1 0 11-2 1c-4-7-11-11-19-11s-15 4-19 12h-1M1796 1009c-9 0-17-5-21-13v-1h2c4 8 11 12 19 12s16-4 20-12a1 1 0 012 1c-5 8-13 13-22 13" fill="#c8d4de"/><path d="M1836 970h-317a1 1 0 110-2h317l1 1-1 1M1836 997h-317l-1-1 1-1h317a1 1 0 110 2" fill="#c8d4de"/><path d="M1444 1032h-59a2 2 0 110-3h59l2 1-2 2M1432 1022h-59a2 2 0 110-3h59l2 2-2 1M1426 1013h-59l-2-2 2-2h59l2 2-2 2M1420 1003h-59l-2-2 2-1h59l2 1-2 2M1418 993h-59l-2-1 2-2h59a2 2 0 110 3M1416 984h-59a2 2 0 110-4h59l2 2-2 2M1418 974h-59l-2-2 2-1h59a2 2 0 110 3M1420 964h-59l-2-1 2-2h59l2 2-2 1M1426 955h-59l-2-2 2-2h59l2 2-2 2M1432 945h-59a2 2 0 110-3h59l2 1-2 2M1444 935h-59a2 2 0 110-3h59l2 2-2 1M1459 928h-55l-2-2 2-2 55 1 2 1-2 2M1491 923l-51-1-1-1 1-2 51 1a2 2 0 010 3M1517 918h-45l-1-2 1-2h45l1 2-1 2" fill="#262262"/><path d="M2092 926l-119-24h-196l-153 24c-29 0-53 25-53 56s24 56 53 56h468c30 0 53-25 53-56s-23-56-53-56" fill="#999"/><path d="M2092 926l-119-24h-154l-108 22-18 2c-26 4-47 27-47 56 0 31 24 56 53 56h393c30 0 53-25 53-56s-23-56-53-56" fill="#24325b"/><path d="M1777 904l-143 22-13 2c-27 2-48 25-48 54 0 30 23 54 51 54h468c29 0 52-24 52-54s-23-54-52-54l-119-24zm315 136h-468c-30 0-55-26-55-58 0-30 23-56 51-58l13-1 144-23h196l119 24c30 0 55 26 55 58s-25 58-55 58" fill="#262262"/><path d="M1702 950c-17 0-31 14-31 33 0 18 14 33 31 33s31-15 31-33c0-19-14-33-31-33zm0 68c-18 0-33-16-33-35 0-20 15-36 33-36s33 16 33 36c0 19-15 35-33 35M2093 950c-18 0-32 14-32 33 0 18 14 33 32 33 17 0 31-15 31-33 0-19-14-33-31-33zm0 68c-19 0-34-16-34-35 0-20 15-36 34-36 18 0 33 16 33 36 0 19-15 35-33 35M1763 970a1 1 0 01-1-1c5-8 13-13 21-13 9 0 17 4 21 12a1 1 0 11-1 1c-5-7-12-11-20-11s-15 4-19 12h-1M1783 1009c-8 0-16-5-21-13v-1h2c4 8 11 12 19 12 9 0 16-4 20-12h2v1c-5 8-13 13-22 13M1821 970l-1-1c5-8 13-13 22-13 8 0 16 4 21 12l-1 1h-1c-5-7-12-11-19-11-8 0-16 4-20 12h-1M1842 1009c-9 0-17-5-22-13a1 1 0 012-1c4 8 12 12 20 12s15-4 19-12a1 1 0 012 1c-4 8-12 13-21 13M1879 970a1 1 0 01-1-1c5-8 13-13 22-13 8 0 16 4 21 12a1 1 0 11-2 1c-4-7-11-11-19-11s-15 4-20 12h-1M1900 1009c-9 0-17-5-22-13l1-1h1c5 8 12 12 20 12s15-4 20-12h1v1c-4 8-12 13-21 13M1938 970h-1v-1c4-8 12-13 21-13s16 4 21 12v1h-2c-4-7-11-11-19-11s-15 4-19 12h-1M1958 1009c-9 0-17-5-21-13a1 1 0 012-1c4 8 11 12 19 12s16-4 20-12h1l1 1c-5 8-13 13-22 13M1996 970a1 1 0 01-1-1c5-8 13-13 21-13 9 0 17 4 21 12a1 1 0 11-2 1c-4-7-11-11-19-11s-15 4-19 12h-1M2016 1009c-8 0-16-5-21-13v-1h2c4 8 11 12 19 12s16-4 20-12a1 1 0 112 1c-5 8-13 13-22 13" fill="#c8d4de"/><path d="M2056 970h-317l-1-1 1-1h317l2 1-2 1M2056 997h-317l-1-1 1-1h317a1 1 0 110 2" fill="#c8d4de"/><path d="M1664 1032h-59l-2-2 2-1h59l2 1-2 2M1652 1022h-59a2 2 0 110-3h59l2 2-2 1M1646 1013h-59a2 2 0 110-4h59l2 2-2 2M1640 1003h-59l-2-2 2-1h59a2 2 0 110 3M1638 993h-59l-2-1 2-2h59l2 2-2 1M1636 984h-59a2 2 0 110-4h59l2 2-2 2M1638 974h-59l-2-2 2-1h59l2 1-2 2M1640 964h-59l-2-1 2-2h59a2 2 0 110 3M1646 955h-59a2 2 0 110-4h59l2 2-2 2M1652 945h-59a2 2 0 110-3h59l2 1-2 2M1664 935h-59l-2-1 2-2h59l2 2-2 1M1680 928h-56a2 2 0 110-4l56 1 1 1-1 2M1711 923l-51-1a2 2 0 010-3l51 1 2 1-2 2M1737 918h-44l-2-2 2-2h44l1 2-1 2" fill="#262262"/><path d="M1943 572l22-29-4-3-23 30-1 3v116h5V575l1-3" fill="#fff"/><path d="M1945 580c0-4 2-7 4-10l18-24-2-3-22 29-1 3v114h3V580" fill="#c8d4de"/><path d="M1945 690h-8l-2-1V573l2-4 23-30h2l6 6a2 2 0 01-2 2l-5-4-22 28v116h5V580c0-4 1-8 3-11l6-8h3v2l-6 8c-2 2-3 5-3 9v109l-2 1" fill="#262262"/><path d="M1952 657h-21v-68h21v68" fill="#fff"/><path d="M1952 657h-15v-68h15v68" fill="#c8d4de"/><path d="M1952 659h-21l-2-2v-68l2-2h21l1 2v37a2 2 0 01-3 0v-36h-18v65h20l1 2-1 2" fill="#262262"/><path d="M1979 702h-107v-20c0-4 4-7 8-7h91c5 0 8 3 8 7v20" fill="#fff"/><path d="M1979 702h-102v-15c0-4 3-7 7-7h88c4 0 7 3 7 7v15" fill="#c8d4de"/><path d="M1874 701h103v-19c0-3-2-6-6-6h-91c-3 0-6 3-6 6zm105 3h-107l-1-2v-20c0-5 4-9 9-9h91c6 0 10 4 10 9v20l-2 2" fill="#262262"/><path d="M2013 876h-373V695h357c26 0 48 22 48 49v100c0 18-14 32-32 32" fill="#fff"/><path d="M2013 876h-373V705h358c26 0 47 21 47 47v92c0 18-14 32-32 32" fill="#c0e1ed"/><path d="M1993 878h-246a2 2 0 110-3h246l2 1-2 2M2014 878l-2-2 2-1c16 0 30-15 30-32v-97c0-27-21-49-46-49h-358l-2-2 2-1h358c27 0 49 23 49 52v97c0 19-15 35-33 35" fill="#262262"/><path d="M1991 797h-131l-2 2c0 2 1 3 2 3h131c1 0 2-1 2-3l-2-2M1991 782h-131l-2 2c0 2 1 3 2 3h131c1 0 2-1 2-3l-2-2M1991 767h-131l-2 2c0 2 1 3 2 3h131c1 0 2-1 2-3l-2-2M1991 752h-131c-1 0-2 1-2 3l2 2h131l2-2c0-2-1-3-2-3M1860 742h131l2-2c0-2-1-3-2-3h-131c-1 0-2 1-2 3l2 2" fill="#24325b"/><path d="M1648 756h-19V523h19v233" fill="#c0e1ed"/><path d="M1647 757h-19l-2-1V523l2-1h19l1 1v48a2 2 0 01-3 0v-46h-15v229h15V616a2 2 0 013 0v140l-1 1" fill="#262262"/><path d="M1754 721h-94v-93h84c5 0 10 5 10 10v83" fill="#fff"/><path d="M1754 721h-94v-88h84c5 0 10 4 10 10v78" fill="#24325b"/><path d="M1754 723h-94l-2-2v-93l2-1h84c6 0 12 5 12 12v25a2 2 0 11-4 0v-25c0-5-3-9-8-9h-83v90h91v-33a2 2 0 114 0v34l-2 2" fill="#262262"/><path d="M1736 681l-2-1 1-37 1-1 2 1v37l-2 1M1602 646c0 5-4 8-8 8s-8-3-8-8 4-8 8-8 8 3 8 8M1505 855h10c5 0 10-2 14-4l19-1c5 0 8 4 8 9v11h-27v-3l-6 3-32 1c-1-9 6-16 14-16" fill="#262262"/><path d="M1584 722l137-17 3 14c0 11-3 18-7 23-3 6-8 10-14 11l-2 1-105 3-40 107-31-13 44-119 3-4c3-4 8-6 12-6" fill="#fff"/><path d="M1588 726l90-15 43-6 3 16-2 13c-2 8-10 17-17 19l-108 4c-2 0-2 3-3 5l-38 102-27-11 44-116 3-5c3-4 8-5 12-6" fill="#24325b"/><path d="M1527 850l28 12 40-106 1-1 105-3h1c6-1 11-5 14-10l1-1a43 43 0 004-27l-1-7-136 17c-5 0-9 2-11 5l-2 4-32 86-12 31zm29 16h-1l-31-13-1-2a32844 32844 0 0148-124c2-4 6-6 13-7l137-17 2 1 2 9a43 43 0 01-5 29l-1 2a22 22 0 01-18 11l-104 4-39 106-1 1h-1" fill="#262262"/><path d="M1579 665s-8-12-13-15l-12 3c-3 3 1 18 2 16l11 5 5 7 7-16" fill="#fff"/><path d="M1577 669s-8-13-13-15c-1-1-10-1-11 1-3 2 1 11 3 14l11 5 5 7 5-12" fill="#ea5444"/><path d="M1566 652zm-9 16l4 1 7 4 4 5 5-13-11-13-11 2c-2 2 0 10 2 14zm15 15l-1-1-5-7-6-3-5-2h-1c-1-2-5-14-1-18 2-2 12-4 14-3 5 2 13 14 13 15l1 2-7 16-2 1" fill="#262262"/><path d="M1635 709c-22 5-56-16-64-25l11-24v-1c1 1 38 30 54 20 9-6 17-32 19-49 1-7 8-12 15-11s12 8 11 16l-6 27c-7 20-15 34-26 41-5 3-9 5-14 6" fill="#fff"/><path d="M1570 684l10-19s37 29 54 17c13-9 17-30 20-45 2-8 5-18 13-19 7 0 11 7 10 15l-8 34c-7 20-14 30-24 37-7 5-34 15-75-20" fill="#c8d4de"/><path d="M1627 711l-17-3-1-2 2-1c9 3 17 4 24 2 4-1 9-3 13-6 4-2 7-5 10-9 0 0 6-7 13-24 6-16 8-33 8-34 1-6-3-13-9-14l-8 2c-3 2-5 5-5 9-3 17-11 43-20 49-15 10-46-12-54-18l-10 21c2 3 11 10 23 16 1 1 2 2 1 3h-2c-15-7-23-15-26-17v-2l12-24v-1h2c3 3 38 28 52 20 8-6 16-31 19-48 0-4 2-8 6-10 3-2 7-3 10-3 8 2 14 9 13 18 0 0-2 17-9 34s-13 25-13 25a44 44 0 01-34 17" fill="#262262"/><path d="M1555 640c-3 4-4 4-6 3-3-7-1-12 2-18 2-3 6-4 9-5 3 0 8 1 7 7-2 8-5 9-12 13" fill="#fff"/><path d="M1555 640c-2 2-3 4-6 3-1-3-2-6-1-10 1-5 8-8 10-9 4 1 9 1 8 7-2 4-4 5-11 9" fill="#ffcac0"/><path d="M1550 642l2-2 2-2h1c6-3 8-4 10-11v-4l-5-2-2 1c-2 1-5 2-6 4-2 5-4 9-2 16zm0 3h-2l-1-2c-2-8 0-13 2-18 2-4 5-5 8-6l2-1h1c3 1 6 1 8 4v5c-2 9-5 11-11 14h-1l-1 1c-1 2-3 3-5 3" fill="#262262"/><path d="M1688 604c-16 3-32 8-36 20-6 15-3 31 0 40l19 49 5 22s12 0 39-8c21-6 22-9 22-9l-6-36c-4-19-8-57-12-66-6-12-16-14-31-12" fill="#fff"/><path d="M1718 613c-4-9-9-8-18-9-3 0-31 3-37 8-4 2-6 8-7 12a62 62 0 001 41l20 49 2 23s12 0 37-7c19-7 18-22 18-22l-4-23-1-7c-1-11-7-57-11-65" fill="#c8d4de"/><path d="M1676 737l-2-1-4-23-20-48c-2-8-6-21 0-40 2-10 15-21 37-22 23-2 31 0 34 15a11974 11974 0 0115 94l-2-1-5-28-12-64c-2-12-7-14-29-13-15 1-32 8-35 20-5 18-2 30 1 38a1402 1402 0 0019 49l4 22a2 2 0 01-1 2" fill="#262262"/><path d="M1598 727l82-10v1l56-5 2 11c0 11-3 17-6 23-4 6-8 10-14 11h-3l-104 4-41 107-31-13 45-119 2-5c3-3 8-5 12-5" fill="#fff"/><path d="M1602 731l91-15 43-5s4 14 3 25c-3 15-13 23-25 23l-102 3c-2 0-3 3-4 5l-38 102-26-11 44-117 2-4c3-4 8-5 12-6" fill="#24325b"/><path d="M1715 758zm-145 113l-31-13a2 2 0 011-3l30 12 39-106 2-1 104-3c12-2 15-7 18-10 2-3 6-9 3-29l-2-9a2 2 0 113-1l2 10c3 19 0 26-3 31-4 5-8 10-20 11h-1l-103 3-40 107a2 2 0 01-2 1" fill="#262262"/><path d="M1539 858c-1-1-2-2-1-3l12-33 32-86 3-5c3-3 7-5 13-6l86-11 1 2-1 2-85 10c-6 1-9 3-11 5l-3 5-32 85-12 34-2 1" fill="#262262"/><path d="M1616 646s-11-12-16-14h-9c-3 3-5 9-6 12 0 4 3 3 5 1 3 2 10 6 10 8 1 5 8 9 8 9l8-16" fill="#fff"/><path d="M1613 650l-14-15c-1 0-7-3-9-1-3 2-4 7-5 10 0 4 3 3 5 1 3 2 10 6 10 8 1 5 8 9 8 9l5-12" fill="#ea5444"/><path d="M1590 644h1l2 1c5 3 8 6 9 8 1 3 3 5 5 6l7-13-14-13-7 1c-3 2-6 8-6 10v1l1-1a2 2 0 012 0zm18 19h-1s-7-4-8-9l-8-6-1-1c-1 1-2 2-4 1-1 0-3-2-2-5 0-3 3-9 6-12 3-2 10-2 11-1 5 3 16 15 16 15v2l-7 16a2 2 0 01-2 0" fill="#262262"/><path d="M1669 693c-22 4-54-19-63-29l13-23c1 0 36 31 52 23 10-6 20-32 23-47 1-8 8-13 15-11 8 2 12 9 10 16 0 1-2 13-7 27-8 20-18 33-29 39-4 3-9 5-14 5" fill="#fff"/><path d="M1606 664l11-19c1 1 36 33 57 22 14-7 19-27 22-43 2-7 6-17 14-17 7 0 11 8 9 15-1 8-5 20-10 33-8 21-19 28-30 35-7 4-35 12-73-26" fill="#c8d4de"/><path d="M1664 695c-6 0-12-1-20-4l-1-2 3-1c9 4 16 5 23 4l14-5 10-8c0-1 7-8 14-24 8-16 11-33 11-33 1-6-3-13-9-14-3-1-6-1-8 1-3 2-5 5-5 8-4 17-13 43-24 48-15 9-45-15-52-22l-12 21c3 3 11 11 24 18a2 2 0 01-1 3c-16-8-24-18-26-20v-2l13-23v-1l3 1c2 2 35 30 50 22 9-4 18-30 21-46 1-4 4-8 7-10s7-3 11-2c8 2 13 10 11 19 0 0-3 17-11 34-7 16-14 23-15 24a43 43 0 01-31 14" fill="#262262"/><path d="M1686 582l3 24c0 2-8 13-17 14-10 0-6-9-6-10l-2-19 22-9" fill="#fff"/><path d="M1686 581l3 26c0 2-7 11-16 12-6 1-4-9-3-10l-2-20 18-8" fill="#ea5444"/><path d="M1666 611l-2-1-2-19 1-2 22-8h2v1l3 24a2 2 0 01-3 0l-3-21-19 7 3 17a2 2 0 01-2 2" fill="#262262"/><path d="M1652 565c-1 12 7 28 18 29 11 2 21-14 22-25 1-12-3-26-18-26-18-1-21 10-22 22" fill="#fff"/><path d="M1656 565c-1 12 6 28 16 29s19-14 20-26c1-11-2-24-17-25s-18 10-19 22" fill="#24325b"/><path d="M1672 544c-14 0-17 8-18 21-1 11 7 27 16 28 4 0 8-2 10-4 6-4 10-13 11-21 0-7-1-14-5-18-3-4-7-5-13-6h-1zm-1 52h-1c-12-1-21-18-20-31s5-25 24-24c6 0 11 3 14 7 6 6 6 16 6 21-1 8-6 18-12 23-3 3-7 4-11 4" fill="#262262"/><path d="M1652 579c-2-13 0-25 11-27 7-1 18-1 18 9 1 3 3 5 2 11l3-1c3 0 5 4 5 9-1 3-3 6-6 7-3 7-9 13-15 14-9 2-16-8-18-22" fill="#fff"/><path d="M1656 581c-2-14 1-27 9-28 7-1 16-2 16 8 1 3 3 5 2 11 1-1 9-3 7 10 0 6-6 5-6 5-3 7-8 12-11 13-8 0-15-6-17-19" fill="#ea5444"/><path d="M1654 579c1 9 5 16 9 19 2 1 4 2 7 1 5-1 11-6 14-13l1-1c2 0 4-2 4-6 0-3-1-6-3-6h-2a2 2 0 01-3-1c1-5 0-7-1-9l-1-1v-1l-2-5c-3-2-7-3-13-2-4 0-6 1-8 4-3 4-4 11-2 21zm14 24c-2 0-5-1-7-3-5-3-9-11-10-20-2-11-1-19 3-24 2-3 5-5 9-6 5 0 12 0 16 3 2 2 3 4 3 7l1 1 2 8h2c4 1 6 6 5 11 0 4-3 7-5 8-4 8-10 13-17 15h-2" fill="#262262"/><path d="M1685 588a5 5 0 01-3-1l-1-2h4l2-1c1 0 2-2 2-5s-1-6-3-6c-1 0-3 1-3 3h-3v-2c1-3 4-5 7-5 4 1 6 6 5 11 0 3-1 6-3 7l-4 1" fill="#262262"/><path d="M1673 587s-7 3-14 1c0 0 2 6 7 5 5 0 6-3 7-6" fill="#fff"/><path d="M1677 569h-1l-8-2-2-1 1-2c1 0 6-1 11 2a2 2 0 01-1 3M1654 569h-2l1-3c3-2 7-2 7-2l1 2-1 1-5 2h-1M1661 575l-3 3-2-3c0-2 1-3 2-3 2 0 3 1 3 3M1672 575c0 2-1 3-3 3-1 0-2-1-2-3s1-4 2-3c2 0 3 1 3 3" fill="#262262"/><path d="M1673 605c13-4 17-10 17-10l2 10c0 7-7 11-20 14l-2-9c0-3 1-5 3-5" fill="#fff"/><path d="M1673 605c6-2 15-8 17-10l2 10c-1 9-12 12-20 14l-2-9c0-3 1-5 3-5" fill="#c8d4de"/><path d="M1669 609l2 10-5-1-3-2-2-10h4c2 0 3 1 4 3" fill="#fff"/><path d="M1668 609l2 10h-3l-3-13c2 0 4 1 4 3" fill="#c8d4de"/><path d="M1673 605zm16-6c-2 2-7 5-15 8l-2 2 2 8c8-2 16-6 16-12zm-17 22l-1-1-1-1-2-9c0-3 2-6 5-7 12-3 16-9 16-9a2 2 0 013 1l2 10c0 7-7 13-21 16h-1" fill="#262262"/><path d="M1665 616l3 1-1-7-2-2h-2zm5 5c-4 0-7-2-8-4l-3-11 1-2h5c2 0 5 2 5 5l2 9a2 2 0 01-1 3h-1" fill="#262262"/><path d="M1671 621a2 2 0 01-1-4h4a2 2 0 011 3l-4 1" fill="#262262"/><path d="M1696 563v-7c1-12-8-23-20-23h-6c-11-1-21 9-21 21v2l-9 4 8 1 48 2" fill="#fff"/><path d="M1696 563v-7c0-12-8-23-20-23h-2c-11-1-20 9-21 21v2l-7 5 40 1 10 1" fill="#eaf2f4"/><path d="M1646 559l48 2v-5c1-12-7-21-18-21l-6-1c-5 0-9 2-13 5-4 4-6 9-7 15v2l-1 1zm50 5l-56-2-2-1 1-2 8-4v-1c0-7 3-13 8-17 4-4 10-6 15-6h6c13 1 22 12 22 25l-1 7-1 1M1491 716a3 3 0 01-2-5l62-55 4 1v3l-63 55-1 1M1529 722l-1-1v-4l61-69a3 3 0 113 3l-61 70-2 1" fill="#262262"/><path d="M1556 736h-121l26-25h88l7 25" fill="#fff"/><path d="M1556 736h-114l23-20 85 1 6 19" fill="#24325b"/><path d="M1439 734h115l-7-22h-85zm117 3h-121l-1-1v-2l26-25h89l1 1 8 25v2h-2" fill="#262262"/><path d="M1583 529l-78 207h5l78-207h-5" fill="#fff"/><path d="M1599 518h-107l-87 229h5l85-224h102l2-5" fill="#fff"/><path d="M1510 736h-89l78-207h89zm-15-213l-85 224h102l85-224h-102" fill="#c0e1ed"/><path d="M1430 712c-1 0-2-1-1-2l68-181a2 2 0 013 1l-68 181-2 1zm75 26h-84l-2-2 2-2h83l77-203h-56a2 2 0 110-3h58a2 2 0 012 2l-79 207-1 1zm-98 7h104l85-225h-103zm105 4h-107a2 2 0 01-2-2l87-229 2-1h108v2l-86 229-2 1" fill="#262262"/><path d="M1405 747h107l87 129h-107l-87-129" fill="#c0e1ed"/><path d="M1517 878h-25l-2-1-86-129a2 2 0 011-3h107a2 2 0 110 4h-104l85 126h24a2 2 0 110 3M1599 878h-60l-1-2 1-1h60l1 1-1 2" fill="#262262"/><path d="M1614 535h145v175l-219 20zm155 189V519l-170-1-87 229 87 129h170V724" fill="#c0e1ed"/><path d="M1615 536l-73 192 215-19V537zm-75 195h-1l-1-2 74-195 2-1h145l2 2v175l-2 2-219 19zm156 147h-97l-2-1-61-91v-3l3 1 60 91h97a2 2 0 110 3zm73 0h-45l-2-2 2-1h43V520h-167l-86 227 14 21-1 2-2-1-14-21-1-1 87-229 2-1h170l2 2v357l-2 2" fill="#262262"/><path d="M1792 878h-23V519h23v359" fill="#c0e1ed"/><path d="M1792 880h-23l-2-2V519l2-2h23l2 2v121a2 2 0 11-4 0V520h-19v357h19V666a2 2 0 114 0v212l-2 2M1536 714l-1-2 54-144a2 2 0 114 1l-55 144-2 1M1605 870l-1-1-82-121 1-2h2l82 121-1 2-1 1M1721 727l2 3c2 2 6 5 16 5 7 0 12-2 15-5l3-6zm18 11c-9 0-16-2-19-6-3-3-2-6-2-7l1-1 39-3h1l1 1c0 1 0 6-4 10-3 4-9 6-17 6M2176 1201c0-10 8-19 18-19h14l2-5 22-11c4-3 10-2 14 2l7 11-27 20-3-4-5 6h-42" fill="#262262"/><path d="M2202 899l-10 123 55 141-39 19-56-142c-2-3-3-7-3-10v-2l-3-129h56" fill="#fff"/><path d="M2202 891l-11 129 56 143-34 17-56-143c-3-7-3-12-3-12l-2-126 50-8" fill="#24325b"/><path d="M2192 1023l-1-1 10-123 2-2 1 2-10 123-2 1M2208 1184l-1-1v-1l-56-142c-2-3-3-7-3-10l-3-104 1-2 2 2 3 104a18 18 0 003 9l55 141 37-19 3 1-1 2-39 20h-1M2086 1182h13c5 0 11-1 16-4h25c5 0 10 4 10 10v13h-35v-5l-7 5h-40c0-10 8-19 18-19" fill="#262262"/><path d="M2112 1178l14-151c0-4 2-9 6-12l37-79c2 9 54-6 49 2l-51 102-13 142-42-4" fill="#fff"/><path d="M2119 1180l13-150c0-5 3-11 5-15l40-97 48-9c3 9 0 19-4 27l-54 103-14 144-34-3" fill="#24325b"/><path d="M2154 1183l-42-4a2 2 0 01-1-1l13-151c0-4 2-7 5-11l1-3a1716 1716 0 0041-82v2l-38 82-2 2-4 11-13 148 40 4a2 2 0 010 3" fill="#262262"/><path d="M2162 1096l-2-2 5-54v-1l52-102c5-8 6-14 6-23a2 2 0 014 0c0 10-2 16-7 25l-52 101-4 54-2 2" fill="#262262"/><path d="M2055 908s-10-1-13-3l-10-5 5-8 9-3c10-3 20 0 26 8l3 5-12 8-8-2" fill="#ea5444"/><path d="M2034 899l9 5 12 2 6 2 10-5-1-2c-5-9-16-13-25-10l-7 2zm27 12l-7-1c-2-1-10-2-13-4a134 134 0 00-11-6l1-1 4-8 1-1 8-2c11-4 23 1 29 11l2 4a2 2 0 01-1 2l-12 6h-1" fill="#262262"/><path d="M2134 817a103 103 0 01-40 51c-12 8-31 15-43 19l11 26a133 133 0 00103-80c-11-4-21-10-31-16" fill="#fff"/><path d="M2137 819a97 97 0 01-41 54c-11 7-30 14-43 18l9 22a133 133 0 00103-80l-28-14" fill="#eaf2f4"/><path d="M2062 914l-1-1-12-26v-1l1-1c13-4 32-11 43-18a102 102 0 0043-64l2-2 1 2a106 106 0 01-45 67c-10 7-28 14-41 18l10 23 9-2 2 1-1 2a136 136 0 01-11 2M2086 909l-2-2 1-2a132 132 0 0064-47c10-14 18-31 22-49a2 2 0 013 1 141 141 0 01-62 86 134 134 0 01-26 13" fill="#262262"/><path d="M1975 1155l57 34 56-257c1-5-1-11-6-13l-43-25-5-1-3 4zm59 43l-1-1-64-37-2-4 57-260c1-4 3-7 7-9s8-1 12 1l43 25c7 4 10 12 9 20l-57 262a3 3 0 01-4 3" fill="#262262"/><path d="M2045 1211l-120-26-88-52 2-9 208 78-2 9" fill="#c8d4de"/><path d="M2045 1213l-120-26v-1l-89-51-1-2 2-9 2-2 2 2-2 9 87 50 118 26 2-8a2 2 0 013 1l-2 9a2 2 0 01-2 2" fill="#262262"/><path d="M2047 1202l-120-26-88-52 120 26 88 52" fill="#b3b3b3"/><path d="M1928 1174l109 24-79-46-109-24zm119 29l-120-26-89-52v-2l1-1 120 26 1 1 88 51 1 2-2 1" fill="#262262"/><path d="M2050 1216a16 16 0 11-32-7 16 16 0 0132 7" fill="#24325b"/><path d="M2040 1214a6 6 0 11-12-3 6 6 0 0112 3" fill="#c8d4de"/><path d="M2034 1198l-8 2a14 14 0 00-4 20c2 4 5 6 9 7a14 14 0 0017-11 15 15 0 00-14-18zm0 32a18 18 0 01-18-21 18 18 0 0122-14 18 18 0 01-4 35" fill="#262262"/><path d="M1858 1127l70 42 96 21 13-58v-16c0-4 1-8 4-11 2-2 3-5 3-8l27-122-167-63-46 215" fill="#eaf2f4"/><path d="M2024 1192l-96-21-1-1-70-42-1-2 47-214a2 2 0 113 0l-47 214 70 41 94 21 12-57 1-4-1-10c0-5 1-10 4-13l4-7 3-16a2 2 0 014 0l-4 17-4 8c-3 3-4 6-4 10l1 11v5l-13 58a2 2 0 01-2 2M2052 1065h-1l-1-2 19-88 2-2 2 2-20 89-1 1" fill="#262262"/><path d="M1904 912l71 42 96 21-77-44-90-19" fill="#c0e1ed"/><path d="M2071 977h-1l-77-44-79-17 61 37 64 14 1 1-2 2-64-14-71-43v-2l2-1 89 20 78 44a2 2 0 01-1 3M1965 1001l-1-1-70-42-1-2 2-1 71 42a2 2 0 01-1 4M1908 932l-1 4c0 2 0 4 2 5l12 7 3 1 2-3v-2zm15 20l-4-1-11-7c-3-2-5-5-4-9l1-6 1-1h1l22 13 1 2-1 4a6 6 0 01-6 5" fill="#262262"/><path d="M1961 973l-19-11 2-10 19 11-2 10" fill="#c0e1ed"/><path d="M1944 961l15 10 2-7-16-10zm17 14h-1l-19-11-1-2 3-11a2 2 0 012-1l19 11v2l-2 11a2 2 0 01-1 1M1940 1115l-2-2 30-135 2-2 1 2-29 136-2 1M1928 1171a2 2 0 01-2-2l7-30v-12l-2-7a2 2 0 013-1l2 7v13l-6 30-2 2M1938 971c-1 2-2 3-4 3-1 0-2-2-1-4 0-2 1-3 3-3l2 4M1945 976l-3 3c-2 0-3-2-2-4 0-2 2-3 3-3 2 0 2 2 2 4M1952 981c0 2-2 3-3 3l-2-4c1-2 2-4 3-3 2 0 3 2 2 4" fill="#262262"/><path d="M1926 1064c3-18 1-34-4-41-6 5-13 19-16 37s-2 34 3 42c7-6 14-20 17-38" fill="#24325b"/><path d="M1922 1025c-6 6-12 20-15 35-2 16-1 31 3 39 6-6 11-20 14-35 3-16 2-31-2-39zm-13 78l-1-1c-5-8-7-25-4-42 3-18 10-33 17-39h2l1 1c5 8 6 25 3 43-3 17-10 32-17 38h-1" fill="#262262"/><path d="M1914 1052h-1l-11-7v-2l2-1 11 7v2l-1 1" fill="#fff"/><path d="M1910 1086l-1-2-1-16 4-18 1-1 13-8 2 1-1 2-12 7-3 17v16l-2 2" fill="#fff"/><path d="M1903 1102l5-1c6-5 13-20 16-37 4-25 0-43-7-44-2-1-4 0-5 1-7 5-14 19-17 37-4 24 1 42 8 44zm1 3h-2c-10-2-14-23-10-48 3-18 10-33 18-39 2-1 5-2 7-1 10 2 14 23 10 48-3 18-10 33-18 38-1 2-3 2-5 2zm30-39zm-18-57l-8 2c-10 7-18 24-21 45-5 28 2 54 15 57l9-3c10-6 18-24 22-44 4-28-3-54-15-57h-2zm-12 107h-3c-15-3-22-30-17-61 3-21 12-39 22-46 4-3 9-4 13-3 14 3 22 30 17 60-4 22-12 40-23 47l-9 3" fill="#262262"/><path d="M1901 1088h-1v-2l9-11h2v2l-9 11h-1M2185 775c-20-1-41 2-48 15a70 70 0 00-8 46c1 9 9 41 14 59l-3 27s19 7 53 4c27-3 35-11 35-11l-7-41c-4-23 2-64-1-76-5-15-16-22-35-23" fill="#fff"/><path d="M2188 776c-20-1-36-2-44 11a73 73 0 00-9 46l13 59-1 32s17 5 51 1c27-3 30-9 30-9l-8-46c-4-23 0-60 0-71-1-17-13-21-32-23" fill="#c0e1ed"/><path d="M2175 928c-23 0-35-5-35-5l-1-2 1-14a2 2 0 113 0l-1 13c4 2 22 7 51 4 26-3 34-10 34-10h3v2c-1 1-10 8-37 11l-18 1M2143 896l-2-1-14-58c-2-10-3-26 7-46 6-11 24-20 51-17s36 7 37 24l-1 15c0 18-1 44 2 61l2 13v3c1 1 0 2-1 2l-2-1v-3l-3-13c-3-17-2-44-1-62v-15c0-14-6-18-34-21-18-2-40 2-47 15-9 20-8 34-7 44a1938 1938 0 0013 60" fill="#262262"/><path d="M2103 908s-19 4-24 7c-2 1-6 8-5 10 0 5 5 12 7 13 4 3 6-1 4-3 4-2 12-8 15-7 6 2 14-3 14-3l-11-17" fill="#fff"/><path d="M2105 912s-19 4-24 7c-1 1-7 6-7 8 1 5 5 10 7 11 4 3 6-1 4-3 4-2 12-8 15-7 6 2 14-3 14-3l-9-13" fill="#ea5444"/><path d="M2102 909c-4 1-18 5-22 8-1 1-5 6-5 8 1 4 5 11 7 12l2 1v-2-2l1-1 2-1c6-4 11-6 14-5s8-1 10-2zm-19 32l-3-1c-3-2-7-9-8-14 0-4 4-11 6-12 5-4 24-8 24-8l2 1 11 17v3c-1 0-9 5-15 3-2-1-8 3-11 5l-2 1c1 1 0 3-1 4l-3 1" fill="#262262"/><path d="M2111 933a133 133 0 0089-53 138 138 0 0027-81c0-11-10-21-22-18-9 1-15 9-15 18a103 103 0 01-47 90c-11 7-31 14-43 18l11 26" fill="#fff"/><path d="M2111 933c17-2 34-8 49-17 16-9 24-15 35-30 11-14 22-29 26-48 2-11 6-23 6-33 0-12-3-23-20-24-6-1-12 11-12 20a103 103 0 01-20 66c-7 11-18 20-29 27-13 9-32 14-44 18l9 21" fill="#eaf2f4"/><path d="M2111 935l-1-1-12-27v-1l2-1c13-3 31-11 42-17a102 102 0 0046-89c0-9 7-18 17-20 6-1 12 1 17 4 4 4 7 10 7 16a141 141 0 01-68 118h-2l1-3a135 135 0 0065-115 17 17 0 00-20-17c-8 2-14 9-13 17a104 104 0 01-48 91c-11 7-29 14-42 18l10 23 20-4a2 2 0 111 3 135 135 0 01-22 5" fill="#262262"/><path d="M2059 896s-1-7-7-9l-16-5c-4 0-14 7-17 10-2 3 2 4 7 6l10 2c4 0 11-5 13-7l10 3" fill="#fff"/><path d="M2059 896l-11-6-11-3c-3 0-8 3-12 7-2 2-3 3 1 4l10 2c4 0 11-5 13-7l10 3" fill="#ea5444"/><path d="M2035 884a36 36 0 00-15 10l7 3 9 2 12-7h2l6 2c0-2-2-4-4-5l-5-2-12-3zm0 18l-9-2c-5-2-8-3-9-5l1-4c3-3 13-10 17-10h1l12 3 5 2c6 2 7 10 8 10l-1 1-2 1-9-3-12 7h-2" fill="#262262"/><path d="M2190 753l-1 27c0 2-11 14-23 12s-6-11-5-13l1-22 28-4" fill="#fff"/><path d="M2190 753l-1 27c0 2-10 14-22 12-8-1-2-11-2-13l2-23 23-3" fill="#ea5444"/><path d="M2187 780zm-24-21l-1 20v2c-1 2-2 5-1 7l5 3c10 1 21-9 21-11l2-25zm5 35h-2c-4-1-7-2-8-4-2-4 0-8 1-10v-1l1-22 2-2 28-4h2v2l-1 27c0 2-2 4-4 6-5 4-11 8-19 8" fill="#262262"/><path d="M2153 725c-4 13 3 34 16 38s29-12 32-25c4-13 2-30-17-34-21-5-27 8-31 21" fill="#fff"/><path d="M2157 726c-3 13 2 34 14 37s26-12 30-25 2-29-15-33c-19-4-25 8-29 21" fill="#24325b"/><path d="M2155 725c-4 13 3 33 15 36 8 3 25-6 30-23 1-5 3-15-2-23-3-4-8-8-15-9-18-4-24 4-28 19zm18 40h-4c-14-4-22-26-18-41 4-14 11-26 33-21 8 1 13 5 17 11 5 9 3 19 2 25-4 13-17 26-30 26" fill="#262262"/><path d="M2150 742c1-16 5-30 19-29 9 0 21 3 20 14 1 3 3 6 0 13h5c3 1 5 6 3 10-1 5-5 8-8 7-5 8-14 14-21 13-12 0-18-13-18-28" fill="#fff"/><path d="M2156 743c0-16 5-32 13-30 9 0 21 3 20 14 1 3 3 6 0 13h3c6 0 8 6 5 10-2 4-5 8-8 7-5 8-15 13-22 13-9-4-11-12-11-27" fill="#ea5444"/><path d="M2152 742c0 7 1 14 4 19 2 3 6 8 12 8 7 0 15-5 20-13h1c3 0 5-3 6-6l1-6-3-3-3 1a2 2 0 01-2-2c2-6 1-9 0-11a97 97 0 01-1-3c1-2 0-4-1-6-3-3-9-5-17-6-4 0-7 1-10 4-4 4-7 12-7 24zm16 30c-6 0-11-3-15-9-3-6-4-13-4-21 0-13 3-22 8-27 3-3 7-4 12-4 7 0 15 2 19 7 2 2 3 5 2 8l1 1c1 3 2 6 1 11h2l5 5v8c-2 5-5 8-9 8-6 8-14 13-22 13" fill="#262262"/><path d="M2189 759a7 7 0 01-4-2v-2h2l1 1c3 0 6-2 7-6l1-6-3-3c-2 0-4 1-5 3a2 2 0 11-3-2c2-4 6-5 9-4l5 5v8c-2 5-6 8-10 8" fill="#262262"/><path d="M2174 755s-9 2-17-2c0 0 0 7 7 8 6 0 9-3 10-6" fill="#fff"/><path d="M2182 735h-1c-4-4-9-4-9-4l-2-2 2-2s7 1 12 5a2 2 0 01-2 3M2154 730l-1-1 1-2c4-2 8-1 9-1l1 2c0 1-1 2-2 1l-7 1h-1M2161 738c0 2-2 4-3 3-2 0-3-2-2-4 0-2 2-3 3-3 2 0 3 2 2 4M2175 741c-1 2-2 3-4 3l-2-4c0-3 2-4 4-4l2 5M2380 1009l-42-23-39 72 43 23c6 4 20-10 30-30 11-19 15-38 8-42" fill="#262262"/><path d="M2374 1040c-4-4-2-13 5-12h3c2-9 2-17-2-19l-42-23-39 72 43 23c6 4 20-10 30-30l2-3c-2-2-2-6 0-8" fill="#fff"/><path d="M2374 1040c-4-4-2-13 5-12h3c2-9 0-11-4-13l-42-23-37 66 43 23c6 4 20-10 30-30l2-3c-2-2-2-6 0-8" fill="#c0e1ed"/><path d="M2344 1083h-3l-43-23v-2l38-72 3-1 42 23c5 2 5 10 2 21a2 2 0 01-2 1l-2-1c-3 0-5 2-5 3-1 2-1 5 1 7v2 6l1 2-2 3-2 1-1-2 1-3v-8c-2-2-2-6-1-9 1-4 5-5 8-5h2c2-8 1-14-1-15l-41-22-38 69 41 22c2 1 7-1 14-8h3v2c-6 6-11 9-15 9" fill="#262262"/><path d="M2339 991h-2c-1-1-2-3-1-5 2-5 6-9 9-11 5-3 9-4 12-2 2 1 2 3 2 4-1 2-3 2-5 1-1 0-3 0-5 2-3 2-5 5-7 9l-3 2" fill="#262262"/><path d="M2385 959s-7 10-10 12c-2 3-10 8-14 11-4 2-13 2-13 2s-11-3-10-8 2-11 5-13l31-14 11 10" fill="#fff"/><path d="M2385 959s-7 10-10 12c-2 3-10 8-14 11-4 2-5 0-5 0s-12-4-12-7c1-5 4-14 6-16l24-10 11 10" fill="#ffcac0"/><path d="M2374 951l-31 13-2 9-1 4c-1 2 5 5 9 6 2 0 8-1 11-3l14-10 9-11zm-26 35c-1 0-13-4-11-10v-4c1-5 2-9 5-10a1187 1187 0 0133-14l11 9v3l-10 13-14 10c-4 3-13 3-13 3h-1" fill="#262262"/><path d="M2355 1000l-1-1c-2 0-3-2-2-4 5-8 4-15 2-17-1 0-2-2-1-4s3-2 4-1c4 2 5 5 5 11 0 4-1 9-4 14l-3 2" fill="#c8d4de"/><path d="M2355 998l2-1 4-13c0-5-2-8-4-10h-2l-1 1v1l1 1c4 2 3 11-1 19a2 2 0 001 2zm0 3h-2l-3-3 1-4c4-7 3-13 2-14a5 5 0 01-2-7l3-2h4c4 2 6 7 6 13 0 4-2 10-5 15l-4 2" fill="#262262"/><path d="M2302 1083l-4-1c-3-2-5-5-5-11 1-4 2-9 5-14 1-2 3-2 4-1 2 0 2 2 1 4l-3 11 1 5c3 2 9-2 13-10a3 3 0 116 3c-5 9-12 15-18 14" fill="#c8d4de"/><path d="M2301 1057h-1l-1 1c-2 4-4 9-4 13 0 5 1 8 4 10h3c5 1 12-4 16-13a2 2 0 00-1-2l-1 1c-5 8-12 13-15 11-2-1-3-3-3-7l4-12a2 2 0 00-1-2zm1 28a10 10 0 01-4-1c-4-2-6-7-6-13 0-4 2-10 4-15a5 5 0 017-2c2 1 3 4 2 7-2 3-3 7-3 10v4c1 0 7-2 11-10a5 5 0 118 5c-5 9-12 15-19 15" fill="#262262"/><path d="M2330 1029c-11 19-25 33-31 29-6-3-3-22 8-42s25-33 31-30c6 4 3 23-8 43" fill="#fff"/><path d="M2327 1033c-9 18-21 29-26 26-6-3-2-19 7-36s21-29 26-26c6 3 3 19-7 36" fill="#c8d4de"/><path d="M2330 1029zm6-41c-3 0-7 2-11 6-5 5-11 14-16 23-6 10-9 19-11 27-1 7 0 12 2 13 5 3 18-9 29-29 11-21 13-38 8-40h-1zm-35 73l-3-1c-3-2-5-8-3-17 2-8 5-18 11-28 5-9 11-18 17-24s12-8 16-6c8 4 2 26-8 44-8 17-21 32-30 32" fill="#262262"/><path d="M2418 858v10c-1 25-30 65-51 78l16 25c25-13 58-54 66-81 3-10 5-21 5-31l-36-1" fill="#fff"/><path d="M2425 858l-1 14c-2 24-33 66-54 79l13 20c25-13 58-53 63-76 3-12 7-24 7-36l-28-1" fill="#ea5444"/><path d="M2404 957l-1-1v-2c28-24 42-54 45-64a2 2 0 113 1 152 152 0 01-47 66M2383 972h-2l-16-25v-2l1-1c20-12 49-52 51-76a2 2 0 113 0c-1 25-30 64-51 78l15 24a2 2 0 01-1 2M2330 1221h13c6 0 12-1 17-4h24c6 0 10 4 10 9v14h-34v-5l-8 5h-40c0-11 8-19 18-19" fill="#262262"/><path d="M2357 1217l13-151c0-4 2-9 6-13l1-1 68-130 38 42-72 115-13 141-41-3" fill="#fff"/><path d="M2364 1218l12-149c1-5 3-9 6-13l70-131 34 39-75 114-13 142-34-2" fill="#24325b"/><path d="M2398 1222l-42-4a2 2 0 01-1-1l13-151 5-12 1-2a30614 30614 0 0073-131l37 42v2l-72 115h-2v-2l71-113-35-40-69 129-1 2c-2 4-4 7-4 10l-14 149 41 4a2 2 0 01-1 3M2477 1239c0-10 8-18 18-18h14l2-5 22-12c4-3 10-2 14 2l7 11-27 20-3-3-5 5h-42" fill="#262262"/><path d="M2504 938l-11 122 55 141-39 20-56-143c-1-3-3-6-3-10v-2l-3-128h57" fill="#fff"/><path d="M2503 940l-10 120 55 141-32 16-56-141c-2-3-3-6-3-10v-2l-3-135 49 11" fill="#24325b"/><path d="M2509 1222a2 2 0 01-1-1l-56-142c-2-3-3-7-3-11l-4-138a2 2 0 013 0l4 138a18 18 0 003 9l55 141 37-18h3l-1 2-39 20h-1" fill="#262262"/><path d="M2493 1062l-1-2 10-123 2-1 1 2-10 122-2 2" fill="#262262"/><path d="M2480 810c-19-3-40-3-49 9a70 70 0 00-13 46c0 9 5 42 7 59l-5 38s17 10 52 10c27 0 36-6 36-6l-3-53c-1-24 10-64 8-76-3-16-14-23-33-27" fill="#fff"/><path d="M2482 811c-20-3-37-1-46 11a64 64 0 00-12 43l7 60-6 41s12 6 47 6c27 0 36-6 36-6l-3-55c-2-23 7-62 8-74 0-16-12-23-31-26" fill="#ea5444"/><path d="M2422 961c4 2 21 9 50 10 22 0 32-5 35-6l-2-36-1-16a342 342 0 017-76c1-14-4-19-32-25-18-4-40-2-48 10a66 66 0 00-12 43 1894 1894 0 008 60zm50 13c-35 0-52-10-53-10l-1-2 5-38-7-59c-1-10 0-26 12-45 7-10 25-17 52-11s36 11 34 28l-2 15a338 338 0 00-4 77l2 37-1 1s-10 7-37 7" fill="#262262"/><path d="M2656 1131l-70-63-10-11-6-9c-4-7-10-13-17-17l-7-4-15-8-13-11-128-138-13 13 127 138 14 11 12 6 3 2 9 4c7 5 12 10 17 17l5 11 10 11 70 62c2 2 6 0 10-4 3-4 5-8 3-10h-1" fill="#fff"/><path d="M2656 1130l-70-62-10-11-6-10c-4-6-10-12-17-17l-7-4-15-8-13-10-128-138-7 7 127 138 14 11 12 6 3 2 9 4c6 4 12 10 16 16l6 11 9 11 67 60c5 3 7 6 8 5 3-4 5-9 3-10l-1-1" fill="#c8d4de"/><path d="M2646 1148l-3-2h-1l-69-62a56 56 0 01-10-12l-6-11c-4-6-9-11-15-15l-9-4v-1l-4-2-12-6-14-11-128-138v-1-1l14-13h3l56 60-1 3h-2l-55-60-11 11 126 137 14 10 12 6 3 3 9 4a56 56 0 0117 17l6 11 9 11 70 61v1c1 1 5 0 8-4 3-3 4-7 3-8h-1l-1-2 2-1 2 1c3 2 1 8-3 12-3 4-6 6-9 6" fill="#262262"/><path d="M2635 1113h-1l-49-43c-4-4-8-8-10-12l-6-9c-5-7-10-13-17-17l-7-4-14-8c-6-3-10-6-14-11l-49-53v-2h2l49 53 13 10 15 8 7 4c7 5 13 11 17 18l6 9 10 11 49 44v2h-1" fill="#262262"/><path d="M2390 870c1 1-2 5-5 8-4 4-8 6-9 5s1-5 5-9c4-3 8-5 9-4" fill="#24325b"/><path d="M2389 871zm-1 1l-6 4-4 5 6-4 4-5zm-11 12h-2v-5l5-6 6-4h5c3 3-4 9-5 10s-6 5-9 5M2577 1060h-1c-6-9-18-16-18-16l-1-2 3-1s12 7 18 17a2 2 0 01-1 2" fill="#262262"/><path d="M2495 975s-14 13-17 19c-1 1-1 9 1 11 3 3 10 7 12 7 5 1 5-3 2-5 3-4 7-12 10-13 5-1 10-9 10-9l-18-10" fill="#fff"/><path d="M2499 978s-14 12-17 18c-1 1-3 8-2 10 3 4 9 6 11 6 5 1 5-3 2-5 3-4 7-12 10-13 5-1 10-9 10-9l-14-7" fill="#ffcac0"/><path d="M2495 977c-3 3-13 13-16 18l1 9c3 3 9 6 12 7l1-1-1-1v-1-2l1-2c4-6 7-11 10-11 3-1 6-5 7-7zm-3 37h-1c-3 0-10-4-14-8-2-3-1-11 0-13 3-6 16-18 17-19h1l18 10 1 2s-5 8-11 10l-7 9-1 2c1 1 2 3 1 4 0 2-1 3-4 3" fill="#262262"/><path d="M2490 976c16-20 28-68 21-91-4-11-10-20-17-28-7-7-14-13-13-23 1-9 10-16 19-16 10 1 18 9 24 16 13 17 22 39 23 60 3 28-14 78-32 99l-25-17" fill="#fff"/><path d="M2496 979c15-19 28-69 21-93-3-14-7-21-15-29-6-7-16-16-15-26 1-9 7-13 13-13 11 1 22 15 28 22 14 17 16 39 19 60 3 23-14 72-32 93l-19-14" fill="#ea5444"/><path d="M2515 995l-1-1-25-17v-1-1c15-19 28-67 20-90-3-10-9-19-17-27l-2-2c-6-6-12-12-11-22s10-17 21-17c10 0 18 8 25 16 13 17 22 39 24 61 0 0 3 38-19 78h-2l-1-2c18-32 20-65 19-76-2-21-11-43-24-59-6-7-13-15-22-15s-17 6-18 14c0 8 5 14 10 19l3 3c8 8 14 18 17 28 8 24-4 71-19 91l23 17v2l-1 1" fill="#262262"/><path d="M2489 753c0-7 1-12-5-15-3-3-4-8-15-9-8-1-25-1-27 10-6 4-5 16-5 21 0 16 6 25 20 27s24-2 30-19l2-15" fill="#fff"/><path d="M2490 755c1-5-2-15-8-18-2-3-9-4-15-5-9 0-17 2-21 11-6 3-7 15-7 20 0 16 4 23 18 25s22-5 29-19l4-14" fill="#24325b"/><path d="M2490 756zm-26-26c-6 0-13 1-16 4-2 2-3 3-3 5l-1 1c-4 2-6 9-6 20v1c1 18 6 27 18 29s18-2 27-19v-1c2-3 4-8 5-14 1-5 0-15-5-17h-1c-2-4-5-7-14-9h-4zm-4 64l-5-1c-13-2-20-13-20-32v-1c0-5 0-18 6-22 1-3 2-5 5-6 5-5 15-6 22-5 11 2 14 6 16 9 7 3 8 14 8 21-1 6-4 11-6 15v1c-8 14-14 21-26 21" fill="#262262"/><path d="M2453 822c19-1 26-12 26-12l-1-39-29 2 2 41s0 7 2 8" fill="#fff"/><path d="M2457 822c17-1 23-12 23-12l-3-34-23-2s1 45 3 48" fill="#ffcac0"/><path d="M2451 774l1 40 1 6c18-1 24-9 25-10l-2-37zm2 50l-2-1-2-9-2-41 2-2 29-1 1 1 2 39v1s-6 11-28 13" fill="#262262"/><path d="M2480 767c-2-1-3 0-5 1 2-8 0-10-1-14 0-4-2-7-5-9-4 0-14-1-23 4l2-5-2 1c-8 4-9 16-9 28 1 15 9 27 20 26 7 0 15-6 20-14 3 0 6-4 7-8 1-5-1-9-4-10" fill="#fff"/><path d="M2480 767c-2-1-3 0-5 1 2-8 0-10-1-14 0-4-2-7-5-9-4 0-14-1-23 4 0 0-4 11-3 23 1 15 7 27 13 27 8 1 16-6 21-14 3 0 6-4 7-8 1-5-1-9-4-10" fill="#ffcac0"/><path d="M2449 778h2l11 3 2 5c1 2 7-11 9-18l2 2c-3 6-3 13 1 13-2 4-2 5-6 9-4 5-10 7-17 7-2 0-8-8-9-20l5-1" fill="#24325b"/><path d="M2445 748c-6 5-7 16-6 24 1 13 6 26 17 26h1c6-1 14-6 18-14l2-1c2 0 5-3 5-6v-6l-3-3-3 1a2 2 0 01-2-2c1-6 0-8-1-11l-1-1v-1c0-3-1-6-4-7h-2c-5 0-13 0-19 3h-2l-1-2zm11 53c-11 0-19-11-20-28-1-15 2-25 9-30l3-1h1l1 2-1 2c7-3 13-3 17-3h3l1 1c4 2 6 6 5 10l1 1 2 10h2c2 1 4 2 5 5l1 8c-1 4-5 8-8 8-5 9-13 14-21 15h-1" fill="#262262"/><path d="M2477 786a6 6 0 01-5-1v-3h2l2 1c2 1 5-2 6-6v-6l-3-3-3 2h-3v-3c2-2 5-2 7-2 2 1 4 2 5 5l1 8c-2 5-5 8-9 8" fill="#262262"/><path d="M2460 784s-9 2-17-1c0 0 1 7 8 7 5 0 8-3 9-6" fill="#fff"/><path d="M2466 764h-1c-4-4-10-4-10-4l-1-1 1-2c1 0 7 0 12 4l1 2-2 1M2438 761a2 2 0 010-3l8-1 2 1-2 2-7 1h-1M2446 769c0 2-2 3-3 3-2 0-3-2-3-4l3-3c2 0 3 2 3 4M2459 770c0 2-1 4-3 3-2 0-3-2-2-4 0-2 1-3 3-3 1 0 3 2 2 4M1093 1198c-26 0-47-3-58-8-17-6-26-15-36-24-10-11-21-22-43-31-26-11-138-27-280-27-90 0-235 9-332 15a2760 2760 0 01-331 5 4 4 0 010-9l237 1 94-6c96-6 242-15 332-15 131 0 253 14 284 28 23 10 35 22 45 32s18 18 33 23c13 5 43 9 77 7 38-3 69-13 89-29 19-15 27-35 24-60a4 4 0 019-1c3 28-6 51-28 68-27 21-66 28-93 30l-23 1" fill="#262262"/><path d="M745 936l-9 1H416v248h320l9 1c39 0 70-56 70-125s-31-125-70-125" fill="#fff"/><path d="M745 948l-9 1H416v236h320l9 1c39 0 70-53 70-119s-31-119-70-119" fill="#c8d4de"/><path d="M745 1188l-9-1H571a2 2 0 010-3h165l9 1c38 0 69-56 69-124 0-19-3-38-7-55-12-42-36-68-62-68a39 39 0 00-9 1H417v245h100a2 2 0 010 3H416l-2-2V937l2-1h320l9-1c28 0 53 27 65 70 5 18 7 37 7 56 0 70-32 127-72 127" fill="#262262"/><path d="M486 1061l-1 22c9 4 23 6 20 27-1 6-20 8-21 13-1 4 1 13-1 16-7 7-13 10-18 11-12 20-31 36-49 36-39 0-71-56-71-125s32-125 71-125c38 0 70 56 70 125" fill="#697580"/><path d="M416 1188c-40 0-72-57-72-127 0-69 32-126 72-126 17 0 34 11 47 31a170 170 0 0124 95 2 2 0 11-3 0l-1-18c-5-60-34-105-67-105-38 0-69 55-69 123s31 124 69 124c15 0 29-9 41-25a2 2 0 013 2c-13 17-28 26-44 26" fill="#262262"/><path d="M465 1151a2 2 0 010-3c11-4 19-8 17-17-3-12 5-14 12-16 4-1 8-2 10-6 1-3 1-7-1-11-3-6-10-12-19-14a2 2 0 111-3c10 3 18 9 21 16 2 5 3 9 1 14-3 5-8 6-12 7-7 2-12 3-10 13 3 12-10 17-19 20h-1M594 1027a2 2 0 010-4l10-2 11-2a340 340 0 0122 1l11 1 11 1h10l11-1 11 1 11 1 10-2 11-2 12 2 10 1 11 1a408 408 0 0053-1 2 2 0 110 4h-10l-11-1-11 1-11 1h-21l-12-2-10-1-10 1-11 2-11-1h-32l-12-1-10-1h-22l-10 1c-2 1-5 2-11 2M250 1197c0-10-9-18-19-18h-14l-2-5-21-12c-5-3-11-2-14 3l-8 10 28 20 2-3 6 5h42" fill="#262262"/><path d="M223 896l10 122-56 142 40 19 56-143c2-3 3-6 3-10v-2l4-128h-57" fill="#fff"/><path d="M238 1021l-10-129 52-2-4 137c0 4-3 12-5 15l-40 103-35-15 42-109M226 1157l-9 22-34-16 8-21 35 15" fill="#24325b"/><path d="M196 1130l35 15-5 12-35-15 5-12" fill="#d9ab39"/><path d="M177 1162a2 2 0 01-1-2l55-142-10-122a2 2 0 014-1l10 123v1l-56 142-2 1" fill="#262262"/><path d="M217 1180h-1l-39-18a2 2 0 111-3l39 18 2 1a2 2 0 01-2 2M248 1101l-1-3 25-63 2-9 4-138 2-1 2 2-4 137c0 4-1 8-3 11l-25 63-2 1M342 1186h-12c-6 0-12-1-17-4h-24c-6 0-10 4-10 10v13h34v-5l8 5h40c0-11-8-19-19-19" fill="#262262"/><path d="M316 1182l-13-151c-1-4-3-9-6-12l-43-89-47-18c-4 10-2 22 3 30l52 102 12 141 42-3" fill="#fff"/><path d="M316 1183l-36 2-2-20 36-3 2 21M212 916l16-44 71 151 4 9 10 117-36 3-9-106-51-103c-5-8-7-18-5-27" fill="#24325b"/><path d="M314 1162l-36 3-1-13 36-3 1 13" fill="#d9ab39"/><path d="M274 1187a2 2 0 010-3l42-4a2 2 0 110 3l-41 4h-1" fill="#262262"/><path d="M274 1187l-1-1-13-142-51-101a36 36 0 01-4-28l22-53 1-1 2 1c1 1 52 124 69 155l1 3c2 4 4 7 4 11a2 2 0 01-3 1c0-4-2-7-4-11l-1-2c-16-29-59-132-68-152l-20 49a33 33 0 004 25l51 102v1l13 141-1 2h-1" fill="#262262"/><path d="M359 972a133 133 0 01-67-78 138 138 0 011-86c3-11 16-16 27-10 7 4 11 14 8 22a103 103 0 0015 100c9 11 25 24 35 31l-19 21" fill="#fff"/><path d="M320 798c7 4 7 13 4 22l-7 28c-2 13 0 27 5 40a103 103 0 0020 39l-18 20a131 131 0 01-32-53 138 138 0 011-86c3-11 16-16 27-10M375 955l-16 17c-9-4-17-10-25-17l17-19 24 19" fill="#c8d4de"/><path d="M351 936l-17 19-10-8 18-20 9 9" fill="#d9ab39"/><path d="M359 974h-1a136 136 0 01-73-134c0-11 3-22 6-32a20 20 0 0129-12c9 5 13 16 9 25a101 101 0 0031 114 2 2 0 01-2 3 106 106 0 01-32-118c3-8 0-17-7-21-5-2-10-3-15-1s-8 6-10 11a137 137 0 0025 130c12 13 26 24 41 32a2 2 0 01-1 3" fill="#262262"/><path d="M382 952l21 12-6 9-24 7-34-19 25-30 18 21" fill="#fff"/><path d="M379 956l23 11-5 6-24 7-34-19 22-25 18 20" fill="#d9ab39"/><path d="M341 961l32 17 23-7 4-6-19-11-1-1-16-20zm32 20h-1l-34-18a2 2 0 01-1-3l25-30 2-1 1 1 18 21 21 12a2 2 0 010 2l-6 9h-1l-24 7" fill="#262262"/><path d="M288 779c19 6 38 15 41 29 4 19-1 36-7 47l-32 51-10 31s-20 1-51-13c-25-11-31-21-31-21l24-41c11-21 19-63 25-72 10-13 22-16 41-11" fill="#fff"/><path d="M281 932l-1 6s-19-1-51-15c-25-11-26-15-26-15l4-8c23 15 48 26 74 32M214 889l14-27c15-28 21-61 25-72 6-15 16-15 35-10s38 14 41 28c4 19 1 33-5 43l-33 54-6 14c-26-6-49-15-71-30" fill="#c8d4de"/><path d="M207 900l7-11c22 15 45 24 71 30l-4 13c-26-6-53-15-74-32" fill="#d9ab39"/><path d="M278 939c-5 0-24-1-50-14-25-11-31-21-31-22v-1l16-27 8-14c10-19 18-47 22-62l3-10c6-16 16-17 43-11 26 6 40 20 42 32s1 22-2 32a2 2 0 11-3-1c3-10 3-20 2-31-2-14-22-25-40-29-27-6-34-4-39 9l-3 10c-4 15-12 44-22 62l-8 15-16 26c2 2 9 10 29 19 27 13 45 13 50 13l9-30h1a1890 1890 0 0034-52v3c-5 8-25 41-32 50l-9 31-2 2h-2" fill="#262262"/><path d="M345 747c-3 13-19 29-32 26-14-3-20-24-17-38 3-13 13-26 32-21 21 6 20 19 17 33" fill="#fff"/><path d="M345 747c-3 14-18 29-30 26-12-2-17-23-14-36s12-27 29-22c19 5 18 19 15 32" fill="#24325b"/><path d="M345 747zm-25-33c-4 0-7 1-10 3-8 5-11 14-12 19-4 17 6 33 15 35 12 3 28-11 31-24 3-16 2-26-17-32l-7-1zm-4 61h-4c-6-2-12-8-15-16s-4-17-2-24c1-5 4-16 13-21 6-3 13-4 20-2 22 6 22 21 19 35s-18 28-31 28" fill="#262262"/><path d="M285 779l19-34 26 14-20 36-25-16" fill="#fff"/><path d="M289 782l19-35 22 12-20 36-21-13" fill="#ea5444"/><path d="M288 779l21 14 18-34-22-12zm22 18h-1l-24-16-1-3 19-34a2 2 0 012-1l25 14 1 2-20 37a2 2 0 01-1 1" fill="#262262"/><path d="M306 781c-14-7-17-15-17-15l-5 10v1c-2 7 5 14 19 20l5-10c1-2 0-5-2-6" fill="#fff"/><path d="M306 781c-7-4-11-7-13-10l-6 13c2 8 8 9 16 13l5-10c1-2 0-5-2-6M310 787l-5 11h5l4-1 5-12-4-1c-2 0-4 1-5 3" fill="#c8d4de"/><path d="M286 777c-2 7 8 13 16 18l4-9c1-1 0-3-1-3-9-5-14-10-16-13zm17 22h-1c-15-7-22-15-20-23l5-11 2-1 1 1c1 0 4 7 17 14 3 2 4 6 2 9l-4 10a2 2 0 01-2 1" fill="#262262"/><path d="M310 787zm-2 9h4l5-9-2-1c-2 0-3 1-3 2zm1 4l-4-1a2 2 0 01-2-2l5-10c2-3 5-5 7-4h4a2 2 0 012 3l-5 12h-1l-6 2" fill="#262262"/><path d="M305 799l-5-1a2 2 0 011-4l5 2a2 2 0 01-1 3" fill="#262262"/><path d="M338 762c7-14 10-28-3-34-7-4-20-8-23 3-3 2-6 4-7 12-1-2-2-3-4-3-4-1-7 3-8 8-1 4 1 8 3 10 1 9 7 18 13 22 10 5 22-4 29-18" fill="#fff"/><path d="M338 762c7-14 10-28-3-34-7-4-20-8-23 3-3 2-6 4-7 12l-2-2c-4-1-6 5-6 10 0 4 1 6 4 7 1 9 5 18 11 21 9 5 19-3 26-17" fill="#ea5444"/><path d="M338 762zm-38-21c-2 0-5 3-6 7 0 4 1 7 3 8l1 2c1 9 6 17 12 20 10 5 21-4 27-16 5-11 7-19 5-25-1-3-4-6-7-8-8-3-14-4-18-3l-4 5v1l-1 1c-3 2-5 4-6 10a2 2 0 01-3 0l-2-1-1-1zm16 42l-8-2c-7-4-12-12-13-22-3-2-5-7-4-11 1-6 6-11 10-10l3 1c1-5 3-7 5-9h1c1-3 3-6 6-7 6-2 14 1 20 3 5 2 8 6 9 10 2 7 1 16-5 27-7 13-16 20-24 20" fill="#262262"/><path d="M299 760h-2c-4-1-7-7-6-12 1-6 6-11 10-10s6 4 7 8a2 2 0 01-4 0c0-2-1-4-3-4-3-1-6 2-7 6 0 4 1 8 4 9l2-1a2 2 0 011 4h-2" fill="#262262"/><path d="M311 763s7 6 16 7c0 0-4 5-10 3-6-3-6-7-6-10" fill="#fff"/><path d="M325 743s-5-3-11-2c-1 1-2 0-2-1l1-2c7-1 13 1 13 2a2 2 0 01-1 3M341 751l-1-1-6-4a2 2 0 111-3s5 2 7 5a2 2 0 01-1 3M330 754c0 2 0 4 2 5l4-3c0-2 0-4-2-5l-4 3M317 750c-1 2 0 4 2 5l4-3c0-2 0-4-2-5l-4 3" fill="#262262"/><path d="M294 723l3-7c4-14 19-21 33-16l6 3c14 4 21 19 16 32l-1 3 9 9-11-4-55-20" fill="#fff"/><path d="M300 725l3-7c4-14 19-21 32-16l3 1c13 5 19 19 14 33l-1 2 6 8-46-17-11-4" fill="#eaf2f4"/><path d="M296 722l58 21-4-4v-4c5-13-2-26-14-31l-7-2c-12-5-26 2-31 14zm64 26h-1l-65-23c-1 0-2-1-1-2l2-8c5-14 21-22 35-16l7 2c14 5 22 21 17 35l-1 1 8 9a2 2 0 01-1 2M312 746l-9-4a2 2 0 011-3l9 4a2 2 0 01-1 3" fill="#262262"/><path d="M325 752c-1 2-5 3-9 2-3-1-5-4-4-7 1-2 4-3 8-2 3 1 6 5 5 7" fill="#24325b"/><path d="M317 746l-4 2c0 1 1 3 4 4 3 2 6 1 6-1v-2l-4-2-2-1zm3 10h-4c-5-2-7-6-6-10 1-3 6-4 10-3l5 4c2 2 2 4 1 6s-3 3-6 3" fill="#262262"/><path d="M341 759c-1 2-5 3-8 1-3-1-5-5-4-7 1-3 5-3 8-2 4 2 5 5 4 8" fill="#24325b"/><path d="M334 752l-3 1v3l3 3c2 1 5 0 6-1l-1-3-2-2-3-1zm3 11l-5-1-4-4v-6c1-3 6-4 10-2l4 4 1 5c-1 2-4 4-6 4" fill="#262262"/><path d="M330 753h-1l-5-3a2 2 0 012-3l4 3a2 2 0 010 3" fill="#262262"/><path d="M312 781c9 3 21-9 21-9l-8-12c-2-1-28 1-28 5s6 13 15 16" fill="#eaf2f4"/><path d="M324 762zm-12 17c6 2 15-4 19-8l-7-9c-3-1-23 1-25 4 0 3 5 11 13 13zm3 4l-4-1c-9-2-15-12-15-17 0-2 2-3 3-3 3-2 9-3 15-3 10-2 12 0 12 0l8 12v2s-10 10-19 10" fill="#262262"/><path d="M311 762l-1-1-6-16a2 2 0 114-1l5 16a2 2 0 01-2 2M13 1191a4 4 0 01-1-9c32-2 60-13 82-32 18-15 32-36 37-56l10-49c10-46 18-89 44-106 24-16 59-8 60-7a4 4 0 11-2 8s-32-7-53 6c-23 15-31 57-40 100l-11 50c-11 43-54 90-126 95" fill="#262262"/><path d="M238 940l363 85 2-10-362-85-3 10" fill="#fff"/><path d="M238 940l363 85 1-5-362-85-2 5" fill="#c8d4de"/><path d="M601 1026l-144-33a2 2 0 111-4l142 34 1-7-359-84-2 7 172 40a2 2 0 11-1 3l-173-41-1-2 2-9 2-2 363 85a2 2 0 011 2l-2 10-2 1" fill="#262262"/><path d="M376 981l19 3c4 0 15-9 18-13 2-4-2-5-9-6-6-1-8-2-12-1s-11 7-13 9c0 0-10 6-3 8" fill="#fff"/><path d="M365 975s3 5 10 6l21 4 15-12c3-3-14-6-17-5-3 0-6 3-9 5l-4 1-16 1" fill="#d9ab39"/><path d="M395 986l-14-3-6-1c-7-1-11-7-11-7a2 2 0 013-2s3 5 9 6l5 1c6 1 12 3 14 2 3 0 13-8 16-12l1-1-8-3-12-1c-3 1-10 7-12 10h-1l-5 1-2-2 2-2h4c2-3 9-9 14-10 4-1 7 0 12 1 6 1 10 2 11 5l-1 4c-3 4-14 13-18 14h-1" fill="#262262"/><path d="M317 951a133 133 0 01-69-77 138 138 0 01-2-85c3-11 16-17 27-11 8 4 12 14 9 22a103 103 0 0018 100c9 10 25 22 36 29l-19 22" fill="#fff"/><path d="M272 777c7 4 12 17 9 25-5 15-5 20-6 28-1 13 0 29 4 42s8 21 17 31l-19 19-1-2a89 89 0 01-22-37 173 173 0 01-3-92c4-11 12-17 21-14M333 933l-16 18c-11-5-21-12-30-20 5-6 11-13 18-18 9 8 20 15 28 20" fill="#c8d4de"/><path d="M296 904l9 9c-7 5-13 12-18 18l-10-9 19-19v1" fill="#d9ab39"/><path d="M302 943l-3-1a2 2 0 012-2c3 2 18-4 32-11-12-7-26-19-34-28a105 105 0 01-19-101c3-8-1-17-8-21-5-2-10-2-15 0-4 2-8 6-9 11a137 137 0 0036 136 2 2 0 01-2 3 134 134 0 01-35-54 141 141 0 01-3-86 20 20 0 0129-13c9 5 13 15 10 25a101 101 0 0018 98 174 174 0 0037 30l-1 2-16 7c-10 4-16 5-19 5" fill="#262262"/><path d="M344 935c3 2 12 27 12 27 2 1-1 4-7 5s-18 3-21-1c-5-6-9-18-14-24s-1-25 8-29c3 1 11 12 14 14l8 8" fill="#fff"/><path d="M342 939l6 15 4 12c-2 4-21 4-24 0l-7-13-21-9c-1-3 4-13 7-17l11-11 24 23" fill="#d9ab39"/><path d="M342 969c-6 0-14 0-16-2-3-4-6-13-6-13a2 2 0 013-2c0 1 3 9 6 13 1 0 10 2 17 1s9-3 9-3v-1c-4-11-9-24-11-25l-13-13-9-9-13 13c-6 8-7 12-8 15l-2 2-1-2c0-4 2-9 8-17 2-2 9-10 15-14h2l10 9 13 13c3 3 10 21 12 27v3c-1 2-3 5-12 5h-4" fill="#262262"/><path d="M484 1057l84-41-51-10h51l-57-36 62 27-16-29 23 23-18-103 28 102 17-60-7 62 68-51-61 58 32-9-28 18h130l-130 9 54 32-59-23 68 105-76-99 8 88-18-86-50 149 41-152-25 21 17-27-87 32" fill="#d9ab39"/><path d="M590 1003l6-20-2 19 18-14-17 18 16-4-11 9 30 1-31 3 16 10-18-6 16 25-19-23 1 24-6-22-13 33 8-34-11 8 8-13-24 9 24-12-19-4h18l-18-13 20 9-7-14 12 12-5-29 8 28" fill="#fff"/><path d="M580 993h-1l-7-8a2 2 0 112-2l4 3-7-37a2 2 0 014 0l7 42a2 2 0 01-2 2M573 999h-1l-61-27a2 2 0 111-3l57 25-13-25a2 2 0 013-2l15 29a2 2 0 01-1 3M517 1008a2 2 0 010-4h51a2 2 0 010 3l-51 1M568 1017h-1l-19-4a2 2 0 110-3l20 4a2 2 0 010 3M484 1059a2 2 0 01-1-3l68-34a2 2 0 111 3l-68 34M526 1043a2 2 0 01-1-3l46-17a2 2 0 011 3l-45 17h-1M554 1054a2 2 0 01-1-3l25-21a2 2 0 112 2l-25 22h-1M555 1121l-2-2 17-60a2 2 0 013 1l-16 59-2 2M538 1184h-1l-1-2 46-133a2 2 0 113 1l-46 133-1 1M597 1076l-2-1-8-41a2 2 0 113-1l8 41a2 2 0 01-1 2M606 1122l-1-2-9-88a2 2 0 014 0l8 88a2 2 0 01-2 2M640 1088h-1l-27-36a2 2 0 112-2l28 36a2 2 0 01-2 2M674 1133l-1-1-68-105a2 2 0 112-2l69 105a2 2 0 01-2 3M665 1051h-1l-54-32a2 2 0 111-3l54 32a2 2 0 010 3M643 1017a2 2 0 010-4l40-2 2 1-2 2-40 3M741 1010l-130-1a2 2 0 01-1-3l28-17a2 2 0 112 3l-23 14 124 1a2 2 0 010 3M607 1000a2 2 0 01-1-3l61-58a2 2 0 012 3l-61 58h-1" fill="#262262"/><path d="M607 988a2 2 0 01-1-3l35-26a2 2 0 112 3l-35 26h-1M600 994h-1l-1-2 7-62 2-2c1 0 2 1 1 2l-7 62-1 2M590 991l-1-1-28-101a2 2 0 113-1l26 95 5-17a2 2 0 013 1l-6 23-2 1" fill="#262262"/><path d="M958 1227l-432-8 55-24 50-34 163 18 184-29-20 77" fill="#fff"/><path d="M958 1227l-432-8 55-24 35-24 136 17 226-38-20 77" fill="#c8d4de"/><path d="M967 1193l-9 34 62-27z" fill="#fff"/><path d="M965 1202l-7 25 45-19z" fill="#c8d4de"/><path d="M958 1229l-201-4-1-2 1-1 200 3 12-47a2 2 0 113 1l-12 48-2 2M698 1224l-172-4a2 2 0 01-1-3l55-23 50-35h1l163 19 184-30a2 2 0 010 4l-184 29-162-19-50 35-48 20 164 3a2 2 0 010 4" fill="#262262"/><path d="M588 1214a2 2 0 010-4l121-12 85-20a2 2 0 011 3l-85 21-121 12h-1M974 1222a2 2 0 01-1-3l41-18-47-6a2 2 0 110-4l54 7a2 2 0 010 3l-47 21M1062 1220h12c6 0 12-2 17-5h24c6 0 10 5 10 10v14h-34v-5l-8 5h-40c0-11 8-19 19-19" fill="#262262"/><path d="M1163 963l-54-7-15 139-7 122 41 3 9-130 26-127" fill="#fff"/><path d="M1137 1090l26-127-48-7-14 138-5 90 35 3 6-97M1094 1217l35 3 1-20-35-3-1 20" fill="#24325b"/><path d="M1096 1184l-1 13 35 3 1-13-35-3" fill="#d9ab39"/><path d="M1129 1222l-42-3-1-2 7-123 15-138a2 2 0 011-2l54 7 1 1 1 1-26 127a2 2 0 11-3 0l25-125-50-7-15 137-7 120 40 4a2 2 0 010 3M1146 1220h12c6 0 12-2 17-5h24c6 0 10 5 10 10v14h-34v-5l-8 5h-40c0-11 8-19 19-19" fill="#262262"/><path d="M1189 1090l-8-119c-1-7-5-23-9-29l-10-13-35 32 22 138 20 118 41-2-21-125" fill="#fff"/><path d="M1189 1090l-8-118c0-14-5-23-10-32l-7-12-31 33 22 138 15 86 35-2-16-93M1172 1198l3 19 35-2-3-19-35 2" fill="#24325b"/><path d="M1205 1183l-35 2 2 13 35-2-2-13" fill="#d9ab39"/><path d="M1169 1219l-2-2-20-118-22-138 1-1 35-32a2 2 0 012 0l10 13c6 9 10 20 10 30l8 119 3 18a2 2 0 01-3 0l-3-18-9-119c0-9-3-19-8-28l-9-12-33 31 22 136 19 117 40-1 2 1-2 2-41 2" fill="#262262"/><path d="M1051 1043a133 133 0 0042-94 138 138 0 00-24-82c-6-9-20-11-29-2-6 6-7 16-1 24a103 103 0 0112 100c-5 12-17 29-25 39l25 15" fill="#fff"/><path d="M1040 865c-6 6-3 15 2 22s12 17 15 25c5 12 7 27 7 40a103 103 0 01-10 43l23 14a131 131 0 0016-60 138 138 0 00-24-82c-6-9-20-11-29-2M1031 1031l20 12c7-7 14-14 19-23l-22-14-17 25" fill="#c8d4de"/><path d="M1048 1006l22 14 7-11-23-14-6 11" fill="#d9ab39"/><path d="M1051 1045a2 2 0 01-2-3 132 132 0 0034-145c-4-10-9-20-15-29a17 17 0 00-26-2c-6 6-7 15-2 22a104 104 0 0113 102s-6 14-18 29a2 2 0 11-2-2c12-15 17-28 17-29a102 102 0 00-13-98c-6-8-5-19 2-27a20 20 0 0132 3 140 140 0 0111 136 136 136 0 01-31 43" fill="#262262"/><path d="M1025 1032l-16 18 8 6 25-1 26-28-33-21-10 26" fill="#d9ab39"/><path d="M1025 1032zm-14 18l7 4 24-1 24-26-30-19-9 25h-1zm6 8l-1-1-8-5a2 2 0 01-1-3l17-18 9-26a2 2 0 013-1l33 21a2 2 0 011 3c-12 14-26 28-27 28l-1 1-25 1" fill="#262262"/><path d="M1070 838c-18 9-35 21-35 36-1 19 7 35 15 44l40 45 16 29s19-2 48-22c22-16 26-26 26-26l-31-37c-14-18-29-58-37-66-12-11-25-11-42-3" fill="#fff"/><path d="M1109 985l2 5s19-4 47-23c23-16 22-23 22-23l-4-5c-20 19-42 35-67 46M1168 929l-22-25c-14-18-28-53-35-62-8-14-21-13-38-5-18 9-33 21-33 36-1 19 6 30 13 40l42 46 7 15c25-11 47-26 66-45" fill="#c8d4de"/><path d="M1176 939l-8-10c-19 19-41 34-66 45l7 11c25-11 47-27 67-46" fill="#d9ab39"/><path d="M1106 993h-2l-15-29-40-44c-7-8-15-21-16-44 0-12 11-29 36-39 25-11 35-12 44 3l7 13c8 16 20 40 31 53a2460 2460 0 009 15h-2l-10-12c-11-14-23-38-31-54l-7-13c-7-12-14-13-40-2-17 7-34 21-34 36 1 21 9 34 15 41a1886 1886 0 0041 45l15 28c4-1 22-5 46-22 21-15 25-25 25-25l2-1c1 0 2 1 1 2 0 1-4 11-26 27a117 117 0 01-49 22" fill="#262262"/><path d="M1232 1103c-2 0-4-1-4-3-8-69-26-120-48-136-5-4-9-5-14-4-13 2-24 11-24 11a4 4 0 01-6-6c1-1 14-12 29-14 7-1 14 1 21 6 11 9 38 39 51 142a4 4 0 01-5 4" fill="#262262"/><path d="M1145 970l-303 217-6-8 303-217 6 8" fill="#fff"/><path d="M1145 970l-303 217-3-4 303-217 3 4" fill="#c8d4de"/><path d="M842 1189l-2-1-5-8a2 2 0 010-2l303-217a2 2 0 012 0l6 8-1 3-146 104a2 2 0 01-2-2l145-104-4-6-300 215 4 6 128-91a2 2 0 012 2l-129 93h-1" fill="#262262"/><path d="M1091 1015a133 133 0 0042-94 138 138 0 00-23-82c-7-10-20-11-29-3-6 6-7 17-2 24a103 103 0 0113 100c-6 13-17 30-26 39l25 16" fill="#fff"/><path d="M1082 835c-6 6-3 15 2 22 8 12 11 20 15 27a115 115 0 01-2 78l23 13a126 126 0 0013-52 143 143 0 00-22-83c-6-9-20-13-29-5M1071 1002l20 13c8-9 16-18 23-29l-23-12c-6 11-14 21-20 28" fill="#c8d4de"/><path d="M1097 963l-6 11 23 12 6-11c-7-5-15-9-23-12" fill="#d9ab39"/><path d="M1094 832c-4 0-8 2-12 5-5 6-6 15-1 22a104 104 0 0112 102c-4 10-11 21-15 26-1 1 4 6 12 10 7 3 12 3 13 2a131 131 0 0029-78 137 137 0 00-23-81 17 17 0 00-15-8zm7 171c-7 0-17-5-22-9s-5-7-4-9a102 102 0 003-125c-6-7-5-18 2-25 4-5 10-7 16-6 7 0 12 4 15 9a140 140 0 0112 135c-5 10-11 20-18 28-1 2-2 2-4 2" fill="#262262"/><path d="M1059 1007a918 918 0 00-8 12l-4 9c-2 5 4 6 5 4l9-14-11 27c0 2 3 2 9 2 4 0 20-8 20-10l17-39c2-4-15-15-22-16-2 1-6 12-9 14l-6 11" fill="#fff"/><path d="M1062 1011l-11 17c-4 9 2 4 3 2l7-12 2-1c2-1 4 1 3 3l-11 27c0 2 23-7 24-10l9-20 17-14c-1-3-10-10-14-13l-12-6c-1 2-12 21-17 27" fill="#d9ab39"/><path d="M1078 1036zm-23 13l-6-2v-3l4-10h-6c-1-1-4-3-1-8l4-8 7-12 9-14 7-11 2-1 17 9c9 6 13 9 14 12a2 2 0 11-3 2c-1-3-5-6-13-12l-15-7-6 9-9 15a227 227 0 00-7 12l-4 7-1 4c1 1 4 0 5-1l7-13 2-1 1 2-11 27h10c6-1 15-7 16-9l5-11 3-7c0-1 1-2 2-1l1 2-3 8-5 10c-1 3-11 10-19 11l-7 1" fill="#262262"/><path d="M1055 816l16 22c2 1-3 13-11 21-3 1-6 1-8-1l-2-2-14-18 19-22" fill="#fff"/><path d="M1055 816l16 22c-2 6-6 14-13 21l-5-6-15-20 17-17" fill="#ffcac0"/><path d="M1070 839zm-32-1l13 17c1 2 3 2 4 2 2 0 4 0 5-2 6-7 10-15 10-16l-15-20zm18 23h-1a8 8 0 01-7-4l-13-18v-2l18-22h3l17 22c3 3-10 20-11 20-1 2-4 4-6 4" fill="#262262"/><path d="M1008 811c4 14 20 28 34 24 13-4 18-25 14-38s-15-26-33-20c-21 8-19 21-15 34" fill="#fff"/><path d="M1013 811c4 13 20 28 32 24s16-24 12-37c-4-14-14-26-31-20-18 6-17 19-13 33" fill="#24325b"/><path d="M1032 777l-9 2c-17 6-18 17-14 32 2 6 7 13 13 18 7 5 14 6 19 5 9-3 18-19 13-36-1-5-5-14-13-19l-9-2zm5 61c-5 0-11-3-17-7-7-5-12-12-14-19-4-14-5-29 16-36 8-3 15-3 20 0 10 5 14 15 15 21 5 15-1 36-15 40l-5 1" fill="#262262"/><path d="M1016 827c-9-14-12-28 0-35 8-4 20-9 24 1 3 3 6 4 8 12l3-3c4-1 8 2 9 7s0 9-3 10c0 10-5 19-11 23-10 6-22-2-30-15" fill="#fff"/><path d="M1020 825c-8-13-10-29-4-33 7-5 20-9 24 1 3 3 6 4 8 12l2-2c7-4 10 5 10 10s-2 6-4 7c0 9-5 20-11 22-7 3-17-3-25-17" fill="#ffcac0"/><path d="M1031 789c-4 0-9 1-14 4-4 2-6 5-7 8-1 6 1 15 7 25 4 6 9 11 14 14 3 2 8 4 14 1 6-4 10-13 10-22l1-1c2-1 3-5 2-8 0-3-1-4-2-5l-4-2-3 2a2 2 0 01-3 0c-1-6-3-8-6-10h-1v-1a8 8 0 00-8-5zm7 57l-9-3c-5-3-11-9-15-16-6-11-9-20-7-26 1-5 4-8 9-11s13-6 19-4c3 1 5 3 7 6v1c3 2 5 3 7 8l2-1c2 0 5 0 7 2l4 7c1 4 0 9-3 11-1 10-6 19-13 23-2 2-5 3-8 3" fill="#262262"/><path d="M1055 822l-2-1a2 2 0 111-3h1c2 0 3-1 3-3v-5c0-3-1-4-2-5l-4-2c-2 1-3 3-4 6l-1 1-2-2c0-4 3-7 6-8 2 0 5 0 7 2l4 7-1 8c-1 2-3 4-5 4l-1 1" fill="#262262"/><path d="M1043 826s-7 6-16 7c0 0 4 5 11 2 5-2 5-6 5-9" fill="#fff"/><path d="M1027 806a2 2 0 01-1-3c1 0 6-3 13-2a2 2 0 01-1 3c-5-1-10 2-10 2h-1M1011 815h-1v-2l7-6a2 2 0 112 3l-6 5h-2M1023 818c1 2 0 4-1 4-2 1-4 0-4-2-1-2 0-4 1-5l4 3M1036 813c1 2 0 4-2 4-1 1-3 0-4-2 0-2 0-4 2-5l4 3" fill="#262262"/><path d="M1052 843c13-10 15-18 15-18l6 9v1c3 6-2 14-15 23l-6-9c-2-2-1-5 0-6" fill="#fff"/><path d="M1052 843c6-5 13-15 15-18l6 10c2 10-7 18-15 23l-6-9c-2-2-1-5 0-6" fill="#c8d4de"/><path d="M1050 850l6 9-4 1h-5l-7-11 4-1c2-1 4 0 6 2" fill="#fff"/><path d="M1050 850l6 9-3 1-9-12c2-1 4 0 6 2" fill="#c8d4de"/><path d="M1052 843zm15-14c-2 4-5 9-13 15-1 1-2 3-1 4l6 8c7-6 15-14 13-20l-1-1zm-9 31l-1-1-7-9c-2-2-1-6 1-9 12-9 14-16 14-16a2 2 0 013-1l7 9v1c3 8-2 16-16 26h-1" fill="#262262"/><path d="M1049 859l4-1-5-7c-1-1-2-2-3-1h-2zm1 3l-4-1-8-11a2 2 0 012-3l3-1c3-1 6 0 8 3l7 9a2 2 0 01-1 3l-7 1" fill="#262262"/><path d="M1056 861a2 2 0 01-1-3l4-3a2 2 0 112 3l-4 3h-1M1040 809a2 2 0 01-1-3l8-6 2 1v2l-8 6h-1" fill="#262262"/><path d="M1028 816c1 2 5 3 9 1 3-2 5-5 4-8-2-2-5-2-9-1-3 2-5 6-4 8" fill="#24325b"/><path d="M1030 815c0 1 3 2 6 0 3-1 4-3 3-5l-2-1-4 1-3 3v2zm2 5c-2 0-4-1-5-3v-6l4-4c2-1 4-2 6-1 2 0 4 1 5 3 2 3 0 7-5 9l-5 2" fill="#262262"/><path d="M1013 824c1 3 5 3 8 1s4-5 3-8c-2-2-5-2-8 0-4 2-5 5-3 7" fill="#24325b"/><path d="M1020 817l-4 1-2 3v2l2 2 4-1 3-3-1-3-2-1zm-3 11h-1c-2 0-4-1-5-3v-5l4-5 5-1c3 0 4 1 5 2l1 6-4 4-5 2" fill="#262262"/><path d="M1023 817a2 2 0 01-1-3l5-2a2 2 0 011 2l-4 3h-1" fill="#262262"/><path d="M1044 843c-8 4-22-7-22-7l7-11c1-2 27-3 28 1 0 4-4 13-13 17" fill="#eaf2f4"/><path d="M1024 836c4 2 13 9 20 6 7-4 11-12 11-16-2-2-22-1-25 0l-6 10zm16 10c-9 0-18-8-19-8v-2l7-12s1-2 12-2c2 0 10-1 15 1 1 0 3 1 3 3 1 5-4 15-13 19l-5 1" fill="#262262"/><path d="M1043 824h-1l-1-2 3-16a2 2 0 013 1l-3 16-1 1" fill="#262262"/><path d="M1055 784l-3-7c-6-13-22-18-35-12l-6 3c-13 7-18 22-12 35l1 2-7 10 10-5 52-26" fill="#fff"/><path d="M1055 784l-3-7c-6-13-22-18-35-12l-2 1c-12 7-17 22-10 35l1 3-5 8 44-23 10-5" fill="#eaf2f4"/><path d="M1017 765zm12-1c-4 0-7 1-11 3l-6 3a24 24 0 00-11 32l1 2v2l-4 5 55-28-3-6a24 24 0 00-21-13zm-36 53a2 2 0 01-1-3l6-9v-1a27 27 0 0112-37l7-3a27 27 0 0136 12l4 7-1 3-62 31h-1" fill="#262262"/><path d="M1039 1058l-18 9c-4 1-17-5-20-8-4-3 0-5 6-8 5-3 8-4 11-4 4 0 13 4 16 5 0 0 11 3 5 6" fill="#fff"/><path d="M1048 1050s-2 5-8 9l-11 5c-2 0-17-5-22-8-4-2-6-2 0-5 5-3 8-4 11-4 4 0 13 4 16 5l14-2" fill="#d9ab39"/><path d="M1020 1069c-6 0-17-6-20-9-2-1-2-2-2-3 0-3 3-5 8-8 6-2 8-4 12-4 5 0 13 4 16 6l4-1 2 1-1 2-5 1h-1c-3-2-11-6-14-6l-11 4-7 5 1 1c4 3 15 8 18 8l13-7 5-2c5-3 7-8 7-8a2 2 0 013 1s-2 6-9 10l-4 2-14 7h-1" fill="#262262"/><path d="M958 1188l-93 5 42 29-47-20 38 55-45-49 2 33-12-31-24 102 15-104-39 48 31-54-83 20 79-29-33-5 33-5-120-52 124 43-37-50 45 44-22-123 31 121 27-84-17 86 105-116-98 122 32-9-27 18 93 5" fill="#d9ab39"/><path d="M839 1196l-13 16 9-17-22 5 22-9-16-3 14-3-27-13 29 9-11-16 15 14-4-30 8 29 8-23-3 23 25-25-21 28 13-3-12 8 26 2-27 2 16 11-17-7 11 18-14-16 1 16-6-16-7 28 3-28" fill="#fff"/><path d="M833 1254l-1-2 10-42a2 2 0 013 0l3 9a2 2 0 11-3 1l-1-4-9 36-2 2M898 1259l-1-1-42-45 2 28-2 2-1-2-3-33a2 2 0 013-1l46 49a2 2 0 01-2 3M907 1224l-47-21a2 2 0 011-3l47 21a2 2 0 01-1 3M881 1206h-1l-16-12a2 2 0 112-2l16 11a2 2 0 01-1 3M883 1194a2 2 0 010-3l75-4a2 2 0 110 3l-75 4M913 1187l-48-2a2 2 0 010-3l48 2a2 2 0 010 3M860 1176a2 2 0 010-3l31-10 2 1c1 1 0 2-1 2l-31 10h-1M879 1153h-1l-1-2 39-49a2 2 0 012 2l-38 49h-1M864 1158l-1-1-1-2 95-105a2 2 0 012 3l-94 104-1 1M853 1170h-1l-1-2 9-41a2 2 0 113 1l-9 41-1 1M843 1168l-1-2 27-85a2 2 0 113 1l-27 85-2 1M837 1144l-1-1-12-43a2 2 0 014-1l11 43a2 2 0 01-2 2M834 1170l-2-1-21-124a2 2 0 113 0l21 123a2 2 0 01-1 2M826 1176l-1-1-37-50a2 2 0 112-2l37 50a2 2 0 01-1 3M795 1165l-38-13a2 2 0 111-3l38 13a2 2 0 01-1 3M789 1190a2 2 0 010-3l27-5-114-49a2 2 0 011-3l119 52a2 2 0 010 3l-33 5M743 1224a2 2 0 01-1-3l79-29a2 2 0 011 3l-79 29M775 1216a2 2 0 01-1-3l42-10a2 2 0 011 3l-42 10M795 1258h-1l-1-3 31-54a2 2 0 113 2l-31 54-1 1M819 1313l-2-1 14-98-12 14a2 2 0 11-2-2l15-19a2 2 0 013 1l-15 104-1 1" fill="#262262"/></svg>