<svg version="1.0" xmlns="http://www.w3.org/2000/svg" width="3838.667" height="3500" viewBox="0 0 2879 2625"><path d="M720 549c-24.3 2-61.7 9.7-88 18.3-11 3.6-26.1 9.1-29.5 10.7-1.1.5-4.9 2.1-8.5 3.6-10.3 4.2-36.4 17.4-50 25.4-38.4 22.4-72.3 49.2-107 84.6-46 47-80.9 95.9-112.8 158.7-26.1 51.1-45.5 103.8-60.7 164.3-4.4 17.8-5.6 23.3-11.5 55.4-1.8 9.7-4.8 31.4-8.5 62-4.9 40.7-4.8 123.4.1 166 1.4 12.7 2.1 18.1 4.5 37.5.5 4.4 1.6 11.4 2.3 15.5.8 4.1 2.2 11.8 3.1 17 3.5 20.5 13.9 65.4 17.4 75 .5 1.4 1.9 6.1 3.1 10.5 7.1 25.2 22.3 66.5 34.5 93.5 10 22.2 29.3 59.4 39.2 75.5 5.3 8.5 6.6 10.5 17.2 26.5 58.7 88.8 136 156.9 222.6 196.1 8.8 3.9 17.1 7.5 18.5 8 1.4.4 5.7 2 9.5 3.4 12.4 4.6 19.9 6.9 38 12.1 22.3 6.3 52.2 10.9 80.1 12.4 24.3 1.3 1039.9 1.3 1063.4 0 35.7-2 69.5-8.5 104.5-20.1 52.1-17.4 101.5-45.1 149-83.8 12.5-10.2 40.7-37.1 54.2-51.6 9.4-10.2 29-33.3 33.9-40.1l2.1-2.9 125.4-.5 125.4-.5 10-2.3c43.8-9.9 80.3-36.9 105.9-78.4 31.7-51.5 40.7-121.8 23.5-183.8-3.1-11.4-3.1-12 1.6-14.4 35.2-17.8 60.2-41.7 78.9-75.6 14.2-25.6 24-56.9 26.5-85 2.1-23.2 2.2-26 1.1-41.1-1.8-26.4-4.5-40.6-11.7-61.9-16.7-49.8-48-88.1-89.3-109.2-8.7-4.4-10.1-5.4-9.7-7.2.3-1.2 1.7-6.4 3-11.6 7-26.4 9.5-52.3 7.7-78.1-1.5-21.5-1.5-21.6-6.6-43.3-9.4-39.8-32.3-78.9-60.4-103.4-21.5-18.7-43.2-29.6-72.5-36.5-8.9-2.1-10.8-2.1-133.8-2.4l-124.7-.4-8.6-10.7c-48.2-60.3-105.3-108.3-166.9-140.3-39.9-20.7-81.5-35.1-121-41.8-6.6-1.2-16.3-2.9-21.5-3.8-9-1.7-38.6-1.8-551.5-1.9-298.1-.1-546.3.2-551.5.6zm737 136.1c0 .6-5.3 6.7-11.8 13.4-70.3 72.7-127.7 176.8-159.5 289.5-34.7 122.7-40.3 265.6-15.1 389.5 1.4 6.6 2.9 14.5 3.5 17.5 3.3 17.3 13.4 54.4 21.2 78 10.3 31 14.2 41 29.9 77.5 5.2 11.8 26.3 52.3 35.1 67.1 26.3 44.6 55 82.5 88.6 117.4 5 5.2 8.7 9.8 8.3 10.2-.5.5-163.7.7-362.8.5-284.9-.2-363.4-.5-368.9-1.5-3.8-.7-11.5-2-17-2.8-34.3-5.5-75-21.5-108.4-42.6-14.8-9.4-38.3-27.4-52.1-40-14.7-13.5-37.2-37.6-45.6-48.9-1-1.5-4.6-6.2-8-10.5-48.6-63.2-86.9-152.1-104.7-243.4-5.8-29.9-7.5-41-10.2-67.5-5.2-50.7-4.1-124.7 2.5-169.5 6.4-43.2 12.4-72 21.4-102.8 3.6-12 11.4-36.2 13.4-41.2 1-2.5 1.6-4.2 6.7-17.4 15.8-40.9 43.7-91.4 69.4-125.6 20.5-27.2 51.3-59.4 74.6-78 47.5-37.8 97.6-60 153.5-68 11.8-1.6 32.7-1.7 374.3-1.9 267.2-.1 361.7.2 361.7 1zm350.1.9c36.4 4.9 64.4 13.8 97.4 30.9 17.7 9.2 31.3 17.8 49 31.1 15.3 11.6 34.8 28.9 35.3 31.3.3 1.6-12.5 1.7-216.2 1.7-185.2 0-216.6-.2-216.6-1.4 0-1.4 12.8-13.5 24-22.7 32.9-27.2 72-48.8 109.5-60.3 6.6-2.1 12.7-4 13.5-4.2 4.1-1.4 25.8-5.4 34.6-6.4 5.4-.7 10.1-1.4 10.3-1.6.2-.2 10.4-.4 22.6-.4 16.6 0 25.9.5 36.6 2zm-25.3 164.7c153.5.2 279.2.7 279.2 1.2 0 .4-2.4 5.9-5.3 12.2-10 21.2-14.5 37.2-17.2 61.4-3.2 27.9-.7 55.2 7.2 81.5 3.2 10.6 8.4 23.6 12.3 30.9 4.9 8.9 5.7 8.5-16.3 7.8-10.7-.4-27.2-1.3-36.8-2.2-39-3.3-53.8-4.7-61.4-5.7-4.4-.5-13.4-1.6-20-2.3-28.8-3.2-40.2-4.5-42.5-5.1-1.3-.3-7.6-1.2-14-2-21.9-2.7-34.1-4.3-39.8-5.3-3.1-.6-12.7-2-21.2-3.1s-19.1-2.7-23.5-3.5c-4.4-.8-13.4-2.2-20-3-6.6-.9-16.7-2.5-22.5-3.5-5.8-1-15.4-2.6-21.5-3.5-6-.9-15.9-2.5-22-3.5-6-1-15.3-2.5-20.5-3.4-5.2-.8-15.1-2.5-22-3.6-6.9-1.2-16.5-2.8-21.5-3.6-4.9-.8-12.6-2.2-17-3-4.4-.8-15-2.6-23.5-4-24.6-4.1-46.3-7.9-82.5-14.4-6.6-1.2-16.7-3-22.5-4-5.8-1.1-14.3-2.6-19-3.4-4.7-.9-11.6-2.1-15.5-2.7-13.9-2.3-14.1-2.5-9.6-12.3 1.7-3.6 3.1-6.8 3.1-7.2 0-.4 1.3-3.5 2.9-6.8 1.6-3.4 4.8-10.2 7.1-15.1 8.3-17.7 21.6-41.2 34.9-61.5 5.6-8.7 6.2-9.3 9.1-8.4 1.4.5 128.2.9 281.8 1.1zm410.3 4.6c23.7 12.1 40.6 43 44 80.5 4.5 49.3-16.4 95.1-49.5 108.2-8 3.2-20.6 3.3-29 .1-29.2-10.9-50.6-51.1-50.6-95.3 0-40.5 17.1-77.4 42.7-92.5 8-4.7 11-5.3 23.4-5 11.2.2 11.8.3 19 4zm199.2-.4c16.5 8.2 30.5 26.7 38.5 50.8 4.8 14.3 6.6 25.7 6.6 42.8 0 17.1-1.8 28.5-6.6 42.8-5.6 16.9-12.3 28.3-22.8 38.8-7.2 7.3-11.7 10.3-20.5 13.9-8.5 3.4-21.4 3.3-30.2-.3-22.3-9.1-38.1-31.5-46.5-65.7-2-8.4-2.3-11.9-2.3-30 .1-18 .4-21.6 2.4-30 8.5-34.2 26.6-58.7 49.1-66.1 1.4-.5 7.7-.7 14-.6 10.8.2 11.9.4 18.3 3.6zm-960.5 173c5.3 1.1 14 2.7 19.2 3.6 5.2.9 14 2.4 19.5 3.5 5.5 1 15.4 2.8 22 3.9 6.6 1.2 15.4 2.8 19.5 3.5 4.1.8 12 2.2 17.5 3.1 5.5.9 13.2 2.3 17 3 3.9.8 12.9 2.4 20 3.5 7.2 1.2 16.4 2.8 20.5 3.6 4.1.8 14.3 2.5 22.5 3.9 14.9 2.4 42.7 7 60 10 5 .8 14.9 2.4 22 3.5 7.2 1.1 15.3 2.4 18 3 2.8.5 9.7 1.7 15.5 2.5 5.8.9 14.8 2.3 20 3.1 17.2 2.7 35.4 5.4 43 6.4 4.1.6 10 1.4 13 2 3 .5 12.5 1.9 21 3 8.5 1.2 21.6 3 29 4 36 5 79.5 10.1 106.8 12.6 8.4.7 9.4 1.7 6.4 6.6-19.7 32.4-29.4 78.5-24.8 118.8 2.7 23.9 7.8 43.5 15.6 60.6 2.5 5.3 3.7 9.1 3.1 9.7-.5.5-3.8.5-8.2-.2-4.1-.5-10.3-1.3-13.9-1.6-6.6-.6-17-1.9-45.5-5.5-31-3.9-40.1-5.2-49-6.6-4.9-.7-12.6-1.8-17-2.4-4.4-.5-14.1-1.9-21.5-3.1-13.3-2-22.1-3.3-43-6.4-5.8-.8-12.7-2-15.5-2.5-2.7-.5-9.5-1.6-15-2.4-14.7-2.3-59.1-9.4-66-10.7-3.3-.6-8.5-1.5-11.5-1.9-3-.5-12.2-2-20.5-3.5-8.2-1.5-17.5-3-20.5-3.5-12.8-2-56.7-9.6-78.5-13.7-4.4-.8-11.6-2.1-16-2.8-29.4-5.1-67.9-12-89-16-3.8-.7-12.6-2.3-19.5-3.5-6.9-1.2-13.2-2.5-14-2.9-1.3-.7-1.5-3.9-1.2-20.7.7-44.2 6.7-93 16.8-137.3 2.8-12.3 7.4-30.3 8-31.2.8-1.3 3.4-1.1 14.2 1zm654 90.7c20.9 6.1 40.2 31.2 48.2 62.5 6.2 24.1 4.6 56.1-3.8 79.9-4.6 13-12.8 26.5-21.5 35.2-21.5 21.7-47.5 22.3-69.2 1.7-15.4-14.6-25.2-35.1-29.5-61.4-8.5-51.4 14.3-105.7 49.4-117.6 6.6-2.3 19.1-2.4 26.4-.3zm206.5 2.7c17.1 8.5 30.8 26.4 38.8 51 4.7 14.4 6.3 25.2 6.2 42.7 0 23.6-3.5 39.6-12.8 58.2-5.6 11.3-9.7 16.9-18.5 25.2-21.3 20-47.3 19.4-68.4-1.8-20-20.1-30.9-52.8-29.3-88.6 1.8-43.2 22-78.2 51.7-89.6 2.3-.9 7-1.3 14.1-1.1 9.9.2 11 .4 18.2 4zm192.8-2.9c20.4 6.2 38 27.8 47.3 58.1 5.4 17.9 6.7 46.6 2.8 64.5-5.6 25.5-14.9 43.9-29 57.1-23.9 22.4-52.7 19.3-74.6-7.9-9.4-11.7-15.4-24.7-20.4-43.5-2.5-9.5-2.6-11.7-2.7-31.7 0-17.6.3-22.8 1.9-29 5.8-23.4 14.3-40.3 26.5-52.7 11-11.2 21.9-16.2 35.1-16.3 4.7 0 10.6.7 13.1 1.4zm-1068.6 173.2c7.7 1.4 18.5 3.3 24 4.4 5.5 1 14.3 2.6 19.5 3.5 5.2.9 12.7 2.3 16.5 3 3.9.8 9.3 1.7 12 2 2.8.4 6.6 1.1 8.5 1.6 1.9.4 6.4 1.3 10 1.8 3.6.6 11.5 2 17.5 3.1 6.1 1.1 14.8 2.6 19.5 3.4 4.7.8 13.7 2.4 20 3.5 6.3 1.1 16.9 3 23.5 4.1 12.5 2.2 93.5 15.7 111 18.5 5.5.9 15.2 2.5 21.5 3.6 6.3 1 16.2 2.6 22 3.4 5.8.9 15.9 2.4 22.5 3.5 6.6 1 17.2 2.6 23.5 3.5 6.3.9 15.6 2.2 20.5 3 5 .8 11.3 1.7 14 2 2.8.3 7.9 1 11.5 1.5 12.5 1.9 28.6 4.1 40.5 5.5 6.6.8 19.7 2.4 29 3.5 51 6.3 91.3 9.8 137 12.1 12.1.6 22.1 1.2 22.3 1.4.2.1-2.4 5.8-5.6 12.6-9.7 20.1-14.8 38.2-17.7 62.5-1.9 16.2-1.9 26.5 0 44 2.6 24.7 7.7 43.1 17.6 63.9 1.1 2.4 1.5 4.3.9 4.9-1 1-39.4-2.6-67.5-6.3-4.4-.6-13.8-1.7-21-2.6-7.1-.9-19.3-2.5-27-3.5-7.7-1-21.2-2.8-30-4-14.6-1.9-20.1-2.7-42.5-6-4.1-.6-12.2-1.8-18-2.5-5.8-.8-16.6-2.4-24-3.5-7.4-1.1-16.4-2.5-20-2.9-8.4-1.2-43.2-6.6-58-9-6.3-1.1-16.4-2.7-22.5-3.6-6-.9-14.6-2.2-19-3-4.4-.7-14.3-2.3-22-3.5-7.7-1.2-17.4-2.7-21.5-3.5-4.1-.8-12.4-2.1-18.5-3-6-.9-13.5-2.1-16.5-2.6-3-.6-14.7-2.6-26-4.4-11.3-1.9-39.4-6.6-62.5-10.5-23.1-3.9-45.8-7.7-50.5-8.5-4.7-.8-13.7-2.3-20-3.4-6.3-1.2-14.8-2.6-18.8-3.2-8.5-1.4-8.4-1.2-13.7-14.9-19.1-49.3-32.3-101.9-40-159-2.4-17.8-2.1-20.7 2-19.5 1.1.3 8.3 1.7 16 3.1zm769.6 93.4c32.6 10.2 55.6 59 51.1 108.4-1.8 19.6-5.6 33-13.7 48.3-10.5 19.8-24.4 32.2-40.9 36.4-7.7 1.9-19.9.7-27.6-2.9-43.4-19.6-60.9-98.1-34-152.4 15.3-30.9 40.6-45.5 65.1-37.8zm200.1.2c25.5 8.7 45.4 39.7 50.3 78.3 1.9 14.3 1.5 27.5-1.1 42.5-6.4 37.1-28.4 66.7-53.7 72.2-2.8.6-8.7.8-13 .5-25.6-1.7-48.5-28.5-57.8-67.7-2-8.3-2.3-12.1-2.3-30.5 0-19.8.1-21.6 2.8-31.5 5.7-21.8 13.7-37 25.6-49 11.8-12 22-16.9 35.2-17 5.5 0 9.7.7 14 2.2zM1500 1561c6.9 1.2 17.7 3 24 4.1 6.3 1.1 15.3 2.6 20 3.4 4.7.7 11.7 1.9 15.5 2.5 3.9.7 13.1 2.2 20.5 3.4 10.4 1.6 13.5 2.5 13.8 3.7.3 1.4-3.9 1.5-43 1.1-27.5-.2-44.9 0-47.7.6-2.4.6-5 .8-5.7.5-1.9-.7-14.6-20.1-13.9-21.2.3-.5 1.3-.7 2.3-.5.9.2 7.3 1.3 14.2 2.4zm488 89.6c0 2.4-18.3 18.5-37.5 32.9-25 18.7-56.1 35.6-83.5 45.4-55.7 19.8-112.1 22-168.2 6.5-36.8-10.2-71.5-27.4-104.3-51.9-19.7-14.7-39.1-31.7-38-33.5.4-.7 66.1-1 216.1-1 194.8 0 215.4.2 215.4 1.6z"/></svg>