<svg xmlns="http://www.w3.org/2000/svg" viewBox="0 0 512 512" style="enable-background:new 0 0 512 512" xml:space="preserve"><path d="M486.4 102.4H375.467V25.6c0-4.702 3.831-8.533 8.533-8.533h34.133c4.702 0 8.533 3.831 8.533 8.533v8.533h-8.533a8.536 8.536 0 0 0-8.533 8.533 8.536 8.536 0 0 0 8.533 8.533h8.533v17.067h-8.533c-4.71 0-8.533 3.823-8.533 8.533s3.823 8.533 8.533 8.533H435.2a8.536 8.536 0 0 0 8.533-8.533V25.6c0-14.114-11.486-25.6-25.6-25.6H384c-14.114 0-25.6 11.486-25.6 25.6v81.801l-12.066 12.066H165.666L153.6 107.401V25.6C153.6 11.486 142.114 0 128 0H93.867c-14.114 0-25.6 11.486-25.6 25.6v51.2c0 4.71 3.823 8.533 8.533 8.533s8.533-3.823 8.533-8.533V25.6c0-4.702 3.831-8.533 8.533-8.533H128c4.702 0 8.533 3.831 8.533 8.533v8.533H128a8.536 8.536 0 0 0-8.533 8.533A8.536 8.536 0 0 0 128 51.199h8.533v17.067H128c-4.71 0-8.533 3.823-8.533 8.533s3.823 8.533 8.533 8.533h8.533V102.4H25.6C11.486 102.4 0 113.886 0 128v34.133c0 11.11 7.151 20.489 17.067 24.021v283.179c0 23.526 19.14 42.667 42.667 42.667h392.533c23.526 0 42.667-19.14 42.667-42.667v-256c0-4.71-3.823-8.533-8.533-8.533s-8.533 3.823-8.533 8.533v256c0 14.114-11.486 25.6-25.6 25.6H59.733c-14.114 0-25.6-11.486-25.6-25.6V179.2a8.536 8.536 0 0 0-8.533-8.533c-4.702 0-8.533-3.831-8.533-8.533V128c0-4.702 3.831-8.533 8.533-8.533h115.934l14.566 14.566a8.546 8.546 0 0 0 6.033 2.5h187.733a8.564 8.564 0 0 0 6.033-2.5l14.566-14.566H486.4c4.702 0 8.533 3.831 8.533 8.533v34.133c0 4.702-3.831 8.533-8.533 8.533H59.733c-4.71 0-8.533 3.823-8.533 8.533s3.823 8.533 8.533 8.533H486.4c14.114 0 25.6-11.486 25.6-25.6V128c0-14.114-11.486-25.6-25.6-25.6z"/><path d="M366.933 341.333c-4.71 0-8.533 3.823-8.533 8.533s3.823 8.533 8.533 8.533H435.2c4.71 0 8.533-3.823 8.533-8.533s-3.823-8.533-8.533-8.533h-68.267zM226.534 442.812a8.532 8.532 0 0 0 10.419-2.15l85.333-102.4a8.53 8.53 0 0 0 1.178-9.079 8.55 8.55 0 0 0-7.731-4.915h-40.789l15.019-75.127a8.52 8.52 0 0 0-4.966-9.498 8.543 8.543 0 0 0-10.342 2.867l-85.333 119.467a8.536 8.536 0 0 0 6.946 13.491h40.269l-14.413 57.66a8.534 8.534 0 0 0 4.41 9.684zM212.847 358.4l52.582-73.617-9.267 46.345c-.503 2.509.154 5.103 1.775 7.083s4.036 3.123 6.596 3.123h32.981l-49.792 59.742 8.021-32.068a8.535 8.535 0 0 0-1.553-7.322 8.518 8.518 0 0 0-6.724-3.285h-34.619zM110.933 392.533a8.536 8.536 0 0 0 8.533-8.533v-25.6h25.6c4.71 0 8.533-3.823 8.533-8.533s-3.823-8.533-8.533-8.533h-25.6v-25.6c0-4.71-3.823-8.533-8.533-8.533s-8.533 3.823-8.533 8.533v25.6H76.8c-4.71 0-8.533 3.823-8.533 8.533S72.09 358.4 76.8 358.4h25.6V384a8.536 8.536 0 0 0 8.533 8.533z"/></svg>