<svg xmlns="http://www.w3.org/2000/svg" viewBox="0 0 452.263 452.263" style="enable-background:new 0 0 452.263 452.263" xml:space="preserve"><path d="M405.02 161.533a9 9 0 0 0-9 9v53.407h-18.298v-45.114a9 9 0 0 0-9-9h-41.756l-7.778-25.93a9 9 0 0 0-8.621-6.414h-63.575v-22.77h40.032a9 9 0 0 0 9-9V75.666a9 9 0 0 0-9-9h-128.96a9 9 0 0 0-9 9v30.047a9 9 0 0 0 9 9h40.031v22.77h-92.714a8.998 8.998 0 0 0-7.905 4.698l-15.044 27.646H47.227a9 9 0 0 0-9 9v45.114H18v-64.342c0-4.971-4.029-9-9-9s-9 4.029-9 9v186.008c0 4.971 4.029 9 9 9s9-4.029 9-9v-64.342h20.227v47.64a9 9 0 0 0 9 9h74.936l34.26 44.207a9 9 0 0 0 7.114 3.487h205.185a9 9 0 0 0 9-9v-95.333h18.298v53.407a9 9 0 0 0 9 9c26.05 0 47.243-21.193 47.243-47.243v-87.651c0-26.052-21.193-47.246-47.243-47.246zM18 263.264V241.94h20.227v21.324H18zM167.064 84.666h110.959v12.047H167.064V84.666zm49.032 30.047h12.896v22.77h-12.896v-22.77zM56.227 187.826h6.395v132.078h-6.395V187.826zm77.461 135.565a9 9 0 0 0-7.114-3.487H80.622V187.826h7.159a8.998 8.998 0 0 0 7.905-4.698l15.044-27.646h193.14l7.778 25.93a9 9 0 0 0 8.621 6.414h16.151v179.771H167.948l-34.26-44.206zm226.034 44.206h-5.302V187.826h5.302v179.771zm18-104.333V241.94h18.298v21.324h-18.298zm56.541 33.164c0 12.986-8.508 24.022-20.243 27.827V180.95c11.735 3.804 20.243 14.84 20.243 27.827v87.651z"/></svg>