<?xml version="1.0" encoding="iso-8859-1"?>
<!-- Generator: Adobe Illustrator 17.1.0, SVG Export Plug-In . SVG Version: 6.00 Build 0)  -->
<!DOCTYPE svg PUBLIC "-//W3C//DTD SVG 1.1//EN" "http://www.w3.org/Graphics/SVG/1.1/DTD/svg11.dtd">
<svg version="1.1" id="Capa_1" xmlns="http://www.w3.org/2000/svg" xmlns:xlink="http://www.w3.org/1999/xlink" x="0px" y="0px"
	 viewBox="0 0 511 511" style="enable-background:new 0 0 511 511;" xml:space="preserve">
<g>
	<path d="M201.176,352.639c-3.796,1.657-5.53,6.078-3.873,9.875c1.79,4.099,2.697,8.468,2.697,12.987c0,17.92-14.58,32.5-32.5,32.5
		S135,393.42,135,375.5s14.58-32.5,32.5-32.5c4.527,0,8.905,0.911,13.011,2.707c3.793,1.66,8.217-0.07,9.877-3.865
		s-0.07-8.217-3.865-9.877C180.51,329.334,174.109,328,167.5,328c-26.191,0-47.5,21.309-47.5,47.5s21.309,47.5,47.5,47.5
		s47.5-21.309,47.5-47.5c0-6.597-1.329-12.985-3.95-18.989C209.393,352.715,204.973,350.982,201.176,352.639z"/>
	<path d="M167.5,360c-8.547,0-15.5,6.953-15.5,15.5s6.953,15.5,15.5,15.5s15.5-6.953,15.5-15.5S176.047,360,167.5,360z M167.5,376
		c-0.276,0-0.5-0.224-0.5-0.5s0.224-0.5,0.5-0.5s0.5,0.224,0.5,0.5S167.776,376,167.5,376z"/>
	<path d="M377.176,352.639c-3.796,1.657-5.53,6.078-3.873,9.875c1.79,4.099,2.697,8.468,2.697,12.987c0,17.92-14.58,32.5-32.5,32.5
		S311,393.42,311,375.5s14.58-32.5,32.5-32.5c4.527,0,8.905,0.911,13.011,2.707c3.792,1.66,8.217-0.07,9.877-3.865
		c1.66-3.795-0.07-8.217-3.865-9.877C356.51,329.334,350.109,328,343.5,328c-26.191,0-47.5,21.309-47.5,47.5s21.309,47.5,47.5,47.5
		s47.5-21.309,47.5-47.5c0-6.597-1.329-12.985-3.95-18.989C385.393,352.715,380.973,350.982,377.176,352.639z"/>
	<path d="M343.5,360c-8.547,0-15.5,6.953-15.5,15.5s6.953,15.5,15.5,15.5s15.5-6.953,15.5-15.5S352.047,360,343.5,360z M343.5,376
		c-0.276,0-0.5-0.224-0.5-0.5s0.224-0.5,0.5-0.5s0.5,0.224,0.5,0.5S343.776,376,343.5,376z"/>
	<path d="M487.5,56h-464C10.542,56,0,66.542,0,79.5v232C0,324.458,10.542,335,23.5,335h40.524c-0.138,2.083,0.581,4.212,2.173,5.803
		c2.929,2.929,7.678,2.929,10.606,0L82.606,335h16.521C92.069,346.87,88,360.716,88,375.5c0,43.836,35.664,79.5,79.5,79.5
		c41.306,0,75.343-31.669,79.136-72h17.728c3.793,40.331,37.83,72,79.136,72c43.836,0,79.5-35.664,79.5-79.5
		c0-14.784-4.069-28.63-11.127-40.5h16.521l5.803,5.803c1.464,1.464,3.384,2.197,5.303,2.197s3.839-0.732,5.303-2.197
		c1.592-1.592,2.311-3.721,2.173-5.803H487.5c12.958,0,23.5-10.542,23.5-23.5v-232C511,66.542,500.458,56,487.5,56z M167.5,440
		c-35.565,0-64.5-28.935-64.5-64.5s28.935-64.5,64.5-64.5s64.5,28.935,64.5,64.5S203.065,440,167.5,440z M264.364,368h-17.728
		c-1.125-11.964-4.913-23.161-10.763-33h39.254C269.277,344.839,265.489,356.036,264.364,368z M343.5,440
		c-35.565,0-64.5-28.935-64.5-64.5s28.935-64.5,64.5-64.5s64.5,28.935,64.5,64.5S379.065,440,343.5,440z M400.345,320
		c-14.445-14.792-34.586-24-56.845-24s-42.4,9.208-56.845,24h-62.309c-14.445-14.792-34.586-24-56.845-24s-42.4,9.208-56.845,24
		H97.606l41-41h233.787l41,41H400.345z M487.5,320h-52.894l-53.803-53.803c-1.406-1.407-3.314-2.197-5.303-2.197h-240
		c-1.989,0-3.897,0.79-5.303,2.197L76.394,320H23.5c-4.687,0-8.5-3.813-8.5-8.5V303h56.5c4.142,0,7.5-3.358,7.5-7.5
		s-3.358-7.5-7.5-7.5H15V79.5c0-4.687,3.813-8.5,8.5-8.5h464c4.687,0,8.5,3.813,8.5,8.5V288h-56.5c-4.142,0-7.5,3.358-7.5,7.5
		s3.358,7.5,7.5,7.5H496v8.5C496,316.187,492.187,320,487.5,320z"/>
	<path d="M159.5,96h-112c-4.142,0-7.5,3.358-7.5,7.5v128c0,4.142,3.358,7.5,7.5,7.5h112c4.142,0,7.5-3.358,7.5-7.5v-128
		C167,99.358,163.642,96,159.5,96z M152,111v65h-49v-40.5c0-4.142-3.358-7.5-7.5-7.5s-7.5,3.358-7.5,7.5V176H55v-65H152z M55,224
		v-33h97v33H55z"/>
	<path d="M79.5,200c-1.97,0-3.91,0.8-5.3,2.2c-1.4,1.39-2.2,3.32-2.2,5.3c0,1.97,0.8,3.91,2.2,5.3c1.39,1.4,3.33,2.2,5.3,2.2
		c1.98,0,3.91-0.8,5.3-2.2c1.4-1.39,2.2-3.33,2.2-5.3c0-1.98-0.8-3.91-2.2-5.3C83.41,200.799,81.48,200,79.5,200z"/>
	<path d="M111.5,200c-1.97,0-3.91,0.8-5.3,2.2c-1.4,1.39-2.2,3.33-2.2,5.3c0,1.97,0.8,3.91,2.2,5.3c1.39,1.4,3.33,2.2,5.3,2.2
		c1.98,0,3.91-0.8,5.3-2.2c1.4-1.39,2.2-3.33,2.2-5.3c0-1.97-0.8-3.91-2.2-5.3C115.41,200.799,113.48,200,111.5,200z"/>
	<path d="M135.5,200c-1.97,0-3.91,0.8-5.3,2.2c-1.4,1.39-2.2,3.33-2.2,5.3c0,1.97,0.8,3.91,2.2,5.3c1.39,1.4,3.33,2.2,5.3,2.2
		c1.97,0,3.91-0.8,5.3-2.2c1.4-1.39,2.2-3.32,2.2-5.3c0-1.97-0.8-3.91-2.2-5.3C139.41,200.799,137.48,200,135.5,200z"/>
	<path d="M383.5,111h80c4.142,0,7.5-3.358,7.5-7.5s-3.358-7.5-7.5-7.5h-80c-4.142,0-7.5,3.358-7.5,7.5S379.358,111,383.5,111z"/>
	<path d="M383.5,143h80c4.142,0,7.5-3.358,7.5-7.5s-3.358-7.5-7.5-7.5h-80c-4.142,0-7.5,3.358-7.5,7.5S379.358,143,383.5,143z"/>
	<path d="M383.5,175h80c4.142,0,7.5-3.358,7.5-7.5s-3.358-7.5-7.5-7.5h-80c-4.142,0-7.5,3.358-7.5,7.5S379.358,175,383.5,175z"/>
	<path d="M383.5,207h80c4.142,0,7.5-3.358,7.5-7.5s-3.358-7.5-7.5-7.5h-80c-4.142,0-7.5,3.358-7.5,7.5S379.358,207,383.5,207z"/>
	<path d="M471,231.5c0-4.142-3.358-7.5-7.5-7.5h-80c-4.142,0-7.5,3.358-7.5,7.5s3.358,7.5,7.5,7.5h80
		C467.642,239,471,235.642,471,231.5z"/>
	<path d="M351.5,143c4.142,0,7.5-3.358,7.5-7.5s-3.358-7.5-7.5-7.5H351v-24.5c0-4.142-3.358-7.5-7.5-7.5h-144
		c-4.142,0-7.5,3.358-7.5,7.5v128c0,4.142,3.358,7.5,7.5,7.5h144c4.142,0,7.5-3.358,7.5-7.5V207h0.5c4.142,0,7.5-3.358,7.5-7.5
		s-3.358-7.5-7.5-7.5H351v-49H351.5z M336,192h-0.5c-4.142,0-7.5,3.358-7.5,7.5s3.358,7.5,7.5,7.5h0.5v17H207V111h129v17h-0.5
		c-4.142,0-7.5,3.358-7.5,7.5s3.358,7.5,7.5,7.5h0.5V192z"/>
	<path d="M231.5,160h-8c-4.142,0-7.5,3.358-7.5,7.5s3.358,7.5,7.5,7.5h8c4.142,0,7.5-3.358,7.5-7.5S235.642,160,231.5,160z"/>
</g>
<g>
</g>
<g>
</g>
<g>
</g>
<g>
</g>
<g>
</g>
<g>
</g>
<g>
</g>
<g>
</g>
<g>
</g>
<g>
</g>
<g>
</g>
<g>
</g>
<g>
</g>
<g>
</g>
<g>
</g>
</svg>
